%
M48
M72
T01C0.0118
T02C0.0315
T03C0.0320
T04C0.0354
T05C0.0360
T06C0.0374
T07C0.0394
T08C0.0400
T09C0.0433
T10C0.0512
T11C0.0590
T12C0.0787
T13C0.0866
T14C0.0906
T15C0.1102
T16C0.1260
%
T01
X9305Y2403
X16155Y3153
X19355Y2853
X16455Y5953
X16155Y6253
X17155Y7653
X14155Y7403
X16655Y9453
X15805Y11803
X13355Y11253
X11955Y11653
X10655Y11903
X10655Y11053
X10655Y10653
X10655Y10153
X10655Y9653
X10655Y9303
X10655Y8903
X5905Y6653
X5305Y12453
X6505Y12903
X5655Y14753
X5155Y14703
X4155Y16153
X7905Y14653
X10155Y14203
X10555Y14253
X10705Y13953
X11155Y13703
X11155Y14253
X12255Y14103
X12755Y14153
X13655Y14153
X14655Y14153
X15755Y13503
X17155Y13553
X16655Y15153
X14005Y15653
X13155Y16253
X13155Y17303
X11705Y18653
X9405Y19903
X10405Y21703
X13655Y21153
X14655Y19153
X10655Y16353
X9105Y17053
X12655Y14953
X9405Y13003
X20655Y8653
X25255Y10553
X26405Y10153
X26905Y10653
X27405Y10653
X26405Y11153
X26905Y11653
X27405Y11653
X26405Y12153
X26905Y12653
X27405Y12653
X28105Y12603
X29955Y12153
X30755Y11153
X31755Y11703
X32355Y11703
X32955Y11703
X33655Y11703
X33755Y10803
X33855Y10153
X34705Y10153
X34705Y9153
X35255Y9153
X36055Y9153
X36355Y8803
X36855Y9003
X36855Y9353
X37755Y9453
X38005Y9203
X37755Y8903
X38005Y8603
X38605Y8253
X38605Y7903
X38605Y7553
X38205Y7903
X38605Y6953
X38055Y6703
X41405Y6603
X41355Y7653
X41355Y8653
X38005Y9753
X37755Y10053
X38005Y10353
X37755Y10603
X36955Y9853
X35555Y11153
X34455Y11253
X32355Y10853
X31455Y10303
X31455Y9753
X30705Y9153
X31455Y8603
X30755Y8153
X30355Y8153
X31755Y7603
X32355Y7603
X33005Y7603
X33805Y7603
X34305Y7903
X34755Y8153
X32355Y8503
X28455Y8353
X27755Y7653
X28655Y5653
X27655Y2653
X27405Y9653
X26905Y9653
X28605Y11103
X30105Y13603
X31105Y13603
X29655Y14603
X27255Y14153
X37405Y13403
X38405Y13403
X11905Y23903
X6305Y20353
X41655Y30153
T02
X36698Y6547
X35911Y6547
X35123Y6547
X34336Y6547
X33548Y6547
X32761Y6547
X31974Y6547
X31186Y6547
X30399Y6547
X29611Y6547
X29611Y5759
X30399Y5759
X31186Y5759
X31974Y5759
X32761Y5759
X33548Y5759
X34336Y5759
X35123Y5759
X35911Y5759
X36698Y5759
X26655Y6153
X25655Y6153
X24655Y6153
X22655Y6153
X21655Y6153
X20655Y6153
T03
X22655Y11653
X23655Y11653
X14655Y12153
X13655Y12153
X21655Y18653
X22655Y18653
X22655Y19653
X21655Y19653
X24655Y19153
X25655Y18153
X26655Y19153
X27655Y19153
X28655Y18153
X29655Y19153
X31655Y19653
X32655Y19653
X32655Y18653
X31655Y18653
X26155Y21653
X26155Y22653
X28155Y22653
X29155Y22653
X29155Y23653
X28155Y23653
X17655Y30153
X16655Y30153
T04
X10993Y5934
X10993Y4949
X10166Y4949
X9143Y4949
X8316Y4949
X8316Y5934
X15289Y3953
X17021Y3953
T05
X26155Y15153
X27155Y15153
X31155Y24653
X32155Y24653
X23155Y24653
X22155Y24653
X16105Y25153
X16105Y26153
X38655Y4153
X38655Y3153
T06
X8647Y27299
X8647Y28086
X7663Y28086
X7663Y27299
T07
X14777Y6767
X15761Y6767
X16548Y6767
X17533Y6767
X41769Y20275
X41769Y21259
X41769Y22047
X41769Y23031
T08
X41155Y25653
X40155Y25653
X39155Y25653
X38155Y25653
X29155Y24653
X28155Y24653
X27155Y24653
X26155Y24653
X25155Y15153
X24155Y15153
X23155Y15153
X22155Y15153
X21155Y15153
X20155Y15153
X20155Y14153
X21155Y14153
X22155Y14153
X23155Y14153
X24155Y14153
X25155Y14153
X29155Y14153
X30155Y14153
X31155Y14153
X32155Y14153
X33155Y14153
X34155Y14153
X34155Y15153
X33155Y15153
X32155Y15153
X31155Y15153
X30155Y15153
X29155Y15153
X19655Y9653
X18655Y9653
X17655Y9653
X17655Y8653
X18655Y8653
X19655Y8653
X21655Y9153
X22655Y9153
X23655Y9153
X23655Y8153
X22655Y8153
X21655Y8153
X15655Y8653
X14655Y8653
X13655Y8653
X13655Y9653
X14655Y9653
X15655Y9653
X8655Y19153
X7655Y19153
X6655Y19153
X5655Y19153
X5655Y25653
X4655Y25653
X6655Y25653
X7655Y25653
T09
X20655Y23653
X21655Y23653
X22655Y23653
X23655Y23653
X23655Y20653
X22655Y20653
X21655Y20653
X20655Y20653
X30655Y20653
X31655Y20653
X32655Y20653
X33655Y20653
X33655Y23653
X32655Y23653
X31655Y23653
X30655Y23653
X26655Y5117
X24655Y5117
X22655Y5117
X20655Y5117
T10
X39702Y5799
X41631Y5562
X41631Y11743
X39702Y11507
T11
X8415Y20433
X5465Y20223
X4185Y22073
X6725Y23093
X7275Y24083
T12
X29055Y9653
T13
X12312Y3768
X9655Y3453
X6997Y3768
X25868Y28653
X27522Y28653
X32168Y28653
T14
X40702Y24240
X40702Y19066
X18741Y5700
X13568Y5700
X10525Y29153
X5785Y29153
T15
X11765Y28653
X13655Y29834
X16060Y23078
X16060Y16228
T16
X4729Y3228
X19605Y18153
X19605Y25653
X21144Y28653
X22718Y28653
X30592Y28653
X34655Y25703
X40950Y31574
X34655Y18153
X40950Y14645
X32655Y9653
X40950Y3228
X13655Y27472
X4729Y31574
M30
