G75*
G70*
%OFA0B0*%
%FSLAX24Y24*%
%IPPOS*%
%LPD*%
%AMOC8*
5,1,8,0,0,1.08239X$1,22.5*
%
%ADD10C,0.0070*%
%ADD11R,0.0700X0.0050*%
%ADD12R,0.1100X0.0050*%
%ADD13R,0.0500X0.0050*%
%ADD14R,0.0600X0.0050*%
%ADD15R,0.1400X0.0050*%
%ADD16R,0.1600X0.0050*%
%ADD17R,0.1800X0.0050*%
%ADD18R,0.0400X0.0050*%
%ADD19R,0.0200X0.0050*%
%ADD20R,0.0100X0.0050*%
%ADD21R,0.0300X0.0050*%
%ADD22R,0.0800X0.0050*%
%ADD23R,0.0450X0.0050*%
%ADD24R,0.0550X0.0050*%
%ADD25R,0.1700X0.0050*%
%ADD26C,0.0050*%
%ADD27C,0.0080*%
%ADD28C,0.0004*%
%ADD29C,0.0030*%
%ADD30C,0.0118*%
%ADD31C,0.0040*%
D10*
X021346Y029588D02*
X021346Y029982D01*
X021543Y030178D01*
X021739Y029982D01*
X021739Y029588D01*
X021954Y029686D02*
X022052Y029588D01*
X022249Y029588D01*
X022347Y029686D01*
X022249Y029883D02*
X022052Y029883D01*
X021954Y029785D01*
X021954Y029686D01*
X021739Y029883D02*
X021346Y029883D01*
X021954Y030080D02*
X022052Y030178D01*
X022249Y030178D01*
X022347Y030080D01*
X022347Y029982D01*
X022249Y029883D01*
X022561Y029883D02*
X022955Y029883D01*
X023169Y029686D02*
X023267Y029588D01*
X023464Y029588D01*
X023563Y029686D01*
X023563Y030080D01*
X023464Y030178D01*
X023267Y030178D01*
X023169Y030080D01*
X023777Y030178D02*
X023777Y029588D01*
X024170Y030178D01*
X024170Y029588D01*
X024384Y029883D02*
X024778Y029883D01*
X024992Y030080D02*
X025189Y029883D01*
X025189Y029588D01*
X025189Y029883D02*
X025386Y030080D01*
X025386Y030178D01*
X025600Y030080D02*
X025600Y029982D01*
X025698Y029883D01*
X025994Y029883D01*
X025994Y029588D02*
X025698Y029588D01*
X025600Y029686D01*
X025600Y029785D01*
X025698Y029883D01*
X025600Y030080D02*
X025698Y030178D01*
X025994Y030178D01*
X025994Y029588D01*
X026815Y029686D02*
X026914Y029588D01*
X027111Y029588D01*
X027209Y029686D01*
X027209Y030080D01*
X027111Y030178D01*
X026914Y030178D01*
X026815Y030080D01*
X027423Y030080D02*
X027521Y030178D01*
X027718Y030178D01*
X027817Y030080D01*
X027817Y029686D01*
X027718Y029588D01*
X027521Y029588D01*
X027423Y029686D01*
X028630Y029686D02*
X028630Y029588D01*
X028728Y029588D01*
X028728Y029686D01*
X028630Y029686D01*
X028630Y029883D02*
X028728Y029883D01*
X028728Y029982D01*
X028630Y029982D01*
X028630Y029883D01*
X029550Y029883D02*
X029550Y029785D01*
X029944Y029785D01*
X029944Y029883D02*
X029845Y029982D01*
X029648Y029982D01*
X029550Y029883D01*
X029648Y029588D02*
X029845Y029588D01*
X029944Y029686D01*
X029944Y029883D01*
X030158Y029982D02*
X030453Y029982D01*
X030551Y029883D01*
X030453Y029785D01*
X030256Y029785D01*
X030158Y029686D01*
X030256Y029588D01*
X030551Y029588D01*
X030765Y029588D02*
X030765Y029883D01*
X030864Y029982D01*
X031159Y029982D01*
X031159Y029588D01*
X031373Y029785D02*
X031767Y029785D01*
X031767Y029883D02*
X031668Y029982D01*
X031472Y029982D01*
X031373Y029883D01*
X031373Y029785D01*
X031472Y029588D02*
X031668Y029588D01*
X031767Y029686D01*
X031767Y029883D01*
X031981Y029982D02*
X032276Y029982D01*
X032375Y029883D01*
X032375Y029686D01*
X032276Y029588D01*
X031981Y029588D01*
X032583Y029588D02*
X032780Y029588D01*
X032681Y029588D02*
X032681Y029982D01*
X032780Y029982D01*
X032681Y030178D02*
X032681Y030277D01*
X033387Y030178D02*
X033387Y029588D01*
X032994Y029588D01*
X034209Y029588D02*
X034209Y029883D01*
X034308Y029982D01*
X034603Y029982D01*
X034603Y029588D01*
X034817Y029588D02*
X035112Y029588D01*
X035211Y029686D01*
X035211Y029883D01*
X035112Y029982D01*
X034817Y029982D01*
X034817Y029490D01*
X034915Y029391D01*
X035014Y029391D01*
X035419Y029588D02*
X035616Y029588D01*
X035517Y029588D02*
X035517Y029982D01*
X035616Y029982D01*
X035830Y029982D02*
X036125Y029982D01*
X036223Y029883D01*
X036125Y029785D01*
X035928Y029785D01*
X035830Y029686D01*
X035928Y029588D01*
X036223Y029588D01*
X036437Y029785D02*
X036831Y029785D01*
X036831Y029883D02*
X036733Y029982D01*
X036536Y029982D01*
X036437Y029883D01*
X036437Y029785D01*
X036536Y029588D02*
X036733Y029588D01*
X036831Y029686D01*
X036831Y029883D01*
X037045Y029686D02*
X037045Y030080D01*
X037144Y030178D01*
X037439Y030178D01*
X037439Y029588D01*
X037144Y029588D01*
X037045Y029686D01*
X038261Y029686D02*
X038359Y029588D01*
X038654Y029588D01*
X038654Y030178D01*
X038359Y030178D01*
X038261Y030080D01*
X038261Y029982D01*
X038359Y029883D01*
X038654Y029883D01*
X038868Y029686D02*
X038967Y029588D01*
X039164Y029588D01*
X039262Y029686D01*
X039262Y030080D01*
X039164Y030178D01*
X038967Y030178D01*
X038868Y030080D01*
X038359Y029883D02*
X038261Y029785D01*
X038261Y029686D01*
X039476Y029883D02*
X039574Y029785D01*
X039870Y029785D01*
X039870Y029588D02*
X039870Y030178D01*
X039574Y030178D01*
X039476Y030080D01*
X039476Y029883D01*
X035517Y030178D02*
X035517Y030277D01*
X026620Y030886D02*
X026521Y030788D01*
X026226Y030788D01*
X026012Y030886D02*
X025914Y030985D01*
X025618Y030985D01*
X025618Y031083D02*
X025618Y030788D01*
X025914Y030788D01*
X026012Y030886D01*
X025914Y031182D02*
X025717Y031182D01*
X025618Y031083D01*
X025404Y030985D02*
X025207Y031182D01*
X025109Y031182D01*
X025404Y031182D02*
X025404Y030788D01*
X024898Y030886D02*
X024799Y030985D01*
X024504Y030985D01*
X024504Y031083D02*
X024504Y030788D01*
X024799Y030788D01*
X024898Y030886D01*
X024799Y031182D02*
X024603Y031182D01*
X024504Y031083D01*
X024290Y031182D02*
X024192Y031182D01*
X024093Y031083D01*
X023995Y031182D01*
X023896Y031083D01*
X023896Y030788D01*
X024093Y030788D02*
X024093Y031083D01*
X024290Y031182D02*
X024290Y030788D01*
X023682Y030886D02*
X023682Y031083D01*
X023584Y031182D01*
X023387Y031182D01*
X023289Y031083D01*
X023289Y030985D01*
X023682Y030985D01*
X023682Y030886D02*
X023584Y030788D01*
X023387Y030788D01*
X023075Y030788D02*
X022878Y030788D01*
X022976Y030788D02*
X022976Y031378D01*
X023075Y031378D01*
X022670Y031083D02*
X022670Y030886D01*
X022571Y030788D01*
X022276Y030788D01*
X022276Y030690D02*
X022276Y031182D01*
X022571Y031182D01*
X022670Y031083D01*
X022276Y030690D02*
X022374Y030591D01*
X022473Y030591D01*
X022062Y030886D02*
X021963Y030985D01*
X021668Y030985D01*
X021668Y031083D02*
X021668Y030788D01*
X021963Y030788D01*
X022062Y030886D01*
X021963Y031182D02*
X021767Y031182D01*
X021668Y031083D01*
X021454Y031182D02*
X021257Y031182D01*
X021356Y031280D02*
X021356Y030886D01*
X021257Y030788D01*
X021049Y030886D02*
X021049Y031083D01*
X020951Y031182D01*
X020754Y031182D01*
X020655Y031083D01*
X020655Y030985D01*
X021049Y030985D01*
X021049Y030886D02*
X020951Y030788D01*
X020754Y030788D01*
X020441Y030886D02*
X020441Y031280D01*
X020343Y031378D01*
X020146Y031378D01*
X020048Y031280D01*
X020048Y031083D01*
X020146Y030985D01*
X020146Y031182D01*
X020343Y031182D01*
X020343Y030985D01*
X020146Y030985D01*
X020048Y030886D02*
X020146Y030788D01*
X020343Y030788D01*
X020441Y030886D01*
X019834Y030886D02*
X019834Y031083D01*
X019735Y031182D01*
X019440Y031182D01*
X019440Y030690D01*
X019538Y030591D01*
X019637Y030591D01*
X019735Y030788D02*
X019440Y030788D01*
X019226Y030788D02*
X019226Y031182D01*
X019127Y031182D01*
X019029Y031083D01*
X018931Y031182D01*
X018832Y031083D01*
X018832Y030788D01*
X019029Y030788D02*
X019029Y031083D01*
X018618Y030886D02*
X018520Y030985D01*
X018224Y030985D01*
X018224Y031083D02*
X018224Y030788D01*
X018520Y030788D01*
X018618Y030886D01*
X018520Y031182D02*
X018323Y031182D01*
X018224Y031083D01*
X018010Y031182D02*
X017912Y031182D01*
X017912Y030788D01*
X018010Y030788D02*
X017814Y030788D01*
X017605Y030788D02*
X017408Y030788D01*
X017507Y030788D02*
X017507Y031378D01*
X017605Y031378D01*
X017912Y031378D02*
X017912Y031477D01*
X017200Y030886D02*
X017102Y030886D01*
X017102Y030788D01*
X017200Y030788D01*
X017200Y030886D01*
X016896Y030886D02*
X016798Y030788D01*
X016503Y030788D01*
X016289Y030886D02*
X016190Y030788D01*
X015993Y030788D01*
X015895Y030886D01*
X015895Y031083D01*
X015993Y031182D01*
X016190Y031182D01*
X016289Y031083D01*
X016289Y030886D01*
X016503Y031182D02*
X016798Y031182D01*
X016896Y031083D01*
X016896Y030886D01*
X015681Y030788D02*
X015681Y031182D01*
X015582Y031182D01*
X015484Y031083D01*
X015386Y031182D01*
X015287Y031083D01*
X015287Y030788D01*
X015484Y030788D02*
X015484Y031083D01*
X019735Y030788D02*
X019834Y030886D01*
X024992Y030178D02*
X024992Y030080D01*
X026226Y031182D02*
X026521Y031182D01*
X026620Y031083D01*
X026620Y030886D01*
D11*
X037430Y031353D03*
X037430Y031403D03*
X037430Y031453D03*
X037430Y031503D03*
X037430Y031553D03*
X037430Y031603D03*
X039430Y032253D03*
X039430Y032303D03*
X039430Y030703D03*
X039430Y030653D03*
D12*
X038030Y030653D03*
X038030Y030703D03*
X038030Y032253D03*
X038030Y032303D03*
D13*
X039530Y032003D03*
X039530Y031953D03*
X039530Y031903D03*
X039530Y031853D03*
X039530Y031003D03*
X039530Y030953D03*
X039530Y030903D03*
X039530Y030853D03*
X038030Y031053D03*
X038030Y031103D03*
X036730Y030703D03*
X036730Y030653D03*
X036630Y030853D03*
X036630Y030903D03*
X036530Y031053D03*
X036530Y031103D03*
X036430Y031403D03*
X036430Y031453D03*
X036430Y031503D03*
X036430Y031553D03*
X036530Y031853D03*
X036530Y031903D03*
X036630Y032053D03*
X036630Y032103D03*
X030330Y031503D03*
X030330Y031453D03*
X030330Y031103D03*
X030330Y031053D03*
X030230Y031853D03*
X030230Y031903D03*
D14*
X031780Y031103D03*
X031780Y031053D03*
X035380Y031053D03*
X035380Y031103D03*
X035380Y031453D03*
X035380Y031503D03*
X035380Y031853D03*
X035380Y031903D03*
X036480Y031803D03*
X036480Y031753D03*
X036480Y031703D03*
X036480Y031653D03*
X036480Y031603D03*
X036480Y031353D03*
X036480Y031303D03*
X036480Y031253D03*
X036480Y031203D03*
X036480Y031153D03*
X036580Y031003D03*
X036580Y030953D03*
X036680Y030803D03*
X036680Y030753D03*
X036580Y031953D03*
X036580Y032003D03*
X036680Y032153D03*
X036680Y032203D03*
X036780Y032253D03*
X036780Y032303D03*
X039480Y032203D03*
X039480Y032153D03*
X039480Y032103D03*
X039480Y032053D03*
X039480Y030803D03*
X039480Y030753D03*
D15*
X038080Y030753D03*
X038080Y030803D03*
X038080Y032153D03*
X038080Y032203D03*
D16*
X038080Y032103D03*
X038080Y032053D03*
X038080Y030903D03*
X038080Y030853D03*
D17*
X038080Y030953D03*
X038080Y031003D03*
D18*
X038280Y031353D03*
X038280Y031403D03*
X038280Y031453D03*
X038280Y031503D03*
X038280Y031553D03*
X038280Y031603D03*
X038780Y031103D03*
X038780Y031053D03*
X038880Y031153D03*
X038880Y031203D03*
X039580Y031203D03*
X039580Y031253D03*
X039580Y031303D03*
X039580Y031353D03*
X039580Y031403D03*
X039580Y031453D03*
X039580Y031503D03*
X039580Y031553D03*
X039580Y031603D03*
X039580Y031653D03*
X039580Y031703D03*
X039580Y031753D03*
X039580Y031803D03*
X039580Y031153D03*
X039580Y031103D03*
X039580Y031053D03*
X037380Y031053D03*
X037380Y031103D03*
X037380Y031853D03*
X037380Y031903D03*
X034380Y031603D03*
X034380Y031553D03*
X033180Y031653D03*
X033180Y031703D03*
X031780Y031853D03*
X031780Y031903D03*
X031080Y031403D03*
X031080Y031353D03*
X029280Y031753D03*
X029280Y031803D03*
D19*
X029080Y031603D03*
X029080Y031553D03*
X028980Y031403D03*
X028980Y031353D03*
X028880Y031103D03*
X028880Y031053D03*
X029580Y031153D03*
X029580Y031203D03*
X029480Y031453D03*
X029480Y031503D03*
X030080Y031403D03*
X030080Y031353D03*
X030080Y031203D03*
X030080Y031153D03*
X030480Y031553D03*
X030480Y031603D03*
X032080Y031203D03*
X032080Y031153D03*
X032180Y031253D03*
X032180Y031303D03*
X032180Y031353D03*
X032180Y031403D03*
X032180Y031453D03*
X032180Y031503D03*
X032180Y031553D03*
X032180Y031603D03*
X032680Y031103D03*
X032680Y031053D03*
X033280Y031053D03*
X033280Y031103D03*
X033280Y031153D03*
X033280Y031203D03*
X033280Y031253D03*
X033280Y031303D03*
X033280Y031353D03*
X033280Y031403D03*
X033280Y031453D03*
X033280Y031503D03*
X033280Y031853D03*
X033280Y031903D03*
X034080Y031903D03*
X034080Y031853D03*
X034180Y031803D03*
X034180Y031753D03*
X034180Y031703D03*
X034180Y031653D03*
X034580Y031653D03*
X034580Y031703D03*
X034680Y031753D03*
X034680Y031803D03*
X034780Y031853D03*
X034780Y031903D03*
X035080Y031803D03*
X035080Y031753D03*
X035080Y031703D03*
X035080Y031653D03*
X035080Y031203D03*
X035080Y031153D03*
X035580Y031153D03*
X035580Y031203D03*
X035580Y031253D03*
X035580Y031303D03*
X035580Y031353D03*
X035580Y031403D03*
X035580Y031553D03*
X035580Y031603D03*
X035580Y031653D03*
X035580Y031703D03*
X035580Y031753D03*
X035580Y031803D03*
X037180Y031703D03*
X037180Y031653D03*
X037180Y031303D03*
X037180Y031253D03*
X038980Y031403D03*
X038980Y031453D03*
X038980Y031503D03*
X038980Y031553D03*
X034380Y031103D03*
X034380Y031053D03*
D20*
X034430Y031153D03*
X034430Y031203D03*
X034430Y031253D03*
X034430Y031303D03*
X034430Y031353D03*
X034430Y031403D03*
X035030Y031403D03*
X035030Y031353D03*
X035030Y031303D03*
X035030Y031253D03*
X035130Y031553D03*
X035130Y031603D03*
X033330Y031603D03*
X033330Y031553D03*
X033030Y031553D03*
X033030Y031603D03*
X032930Y031503D03*
X032930Y031453D03*
X032930Y031403D03*
X032930Y031353D03*
X032630Y031353D03*
X032630Y031403D03*
X032630Y031453D03*
X032630Y031503D03*
X032630Y031553D03*
X032630Y031603D03*
X032630Y031653D03*
X032630Y031703D03*
X032630Y031753D03*
X032630Y031803D03*
X032630Y031853D03*
X032630Y031903D03*
X032130Y031703D03*
X032130Y031653D03*
X031530Y031753D03*
X031530Y031803D03*
X030530Y031803D03*
X030530Y031753D03*
X030530Y031703D03*
X030530Y031653D03*
X030630Y031203D03*
X030630Y031153D03*
X030030Y031253D03*
X030030Y031303D03*
X029630Y031103D03*
X029630Y031053D03*
X029530Y031353D03*
X029530Y031403D03*
X029430Y031553D03*
X029430Y031603D03*
X029430Y031653D03*
X029430Y031703D03*
X029130Y031703D03*
X029130Y031653D03*
X029030Y031503D03*
X029030Y031453D03*
X028930Y031203D03*
X028930Y031153D03*
X030030Y031753D03*
X030030Y031803D03*
X031530Y031203D03*
X031530Y031153D03*
X038030Y031153D03*
X038030Y031203D03*
X038030Y031753D03*
X038030Y031803D03*
D21*
X038830Y031803D03*
X038830Y031753D03*
X038930Y031703D03*
X038930Y031653D03*
X038930Y031603D03*
X038930Y031353D03*
X038930Y031303D03*
X038930Y031253D03*
X037230Y031203D03*
X037230Y031153D03*
X037230Y031753D03*
X037230Y031803D03*
X034430Y031503D03*
X034430Y031453D03*
X033830Y031403D03*
X033830Y031353D03*
X033230Y031753D03*
X033230Y031803D03*
X032730Y031303D03*
X032730Y031253D03*
X032730Y031203D03*
X032730Y031153D03*
X032030Y031753D03*
X032030Y031803D03*
X029230Y031853D03*
X029230Y031903D03*
D22*
X029280Y031303D03*
X029280Y031253D03*
D23*
X038755Y031853D03*
X038755Y031903D03*
D24*
X038055Y031903D03*
X038055Y031853D03*
D25*
X038030Y031953D03*
X038030Y032003D03*
D26*
X006590Y005528D02*
X006290Y005528D01*
X006590Y005528D02*
X006290Y005828D01*
X006290Y005903D01*
X006365Y005978D01*
X006515Y005978D01*
X006590Y005903D01*
X006750Y005903D02*
X006825Y005978D01*
X006975Y005978D01*
X007050Y005903D01*
X007050Y005603D01*
X006975Y005528D01*
X006825Y005528D01*
X006750Y005603D01*
X007840Y006378D02*
X008140Y006378D01*
X007840Y006678D01*
X007840Y006753D01*
X007915Y006828D01*
X008065Y006828D01*
X008140Y006753D01*
X008300Y006753D02*
X008600Y006453D01*
X008600Y006378D01*
X008761Y006378D02*
X008911Y006528D01*
X008836Y006528D02*
X009061Y006528D01*
X009061Y006378D02*
X009061Y006828D01*
X008836Y006828D01*
X008761Y006753D01*
X008761Y006603D01*
X008836Y006528D01*
X008600Y006828D02*
X008300Y006828D01*
X008300Y006753D01*
X008519Y007028D02*
X008519Y007103D01*
X008219Y007403D01*
X008219Y007478D01*
X008519Y007478D01*
X008679Y007403D02*
X008679Y007253D01*
X008754Y007178D01*
X008980Y007178D01*
X008980Y007028D02*
X008980Y007478D01*
X008754Y007478D01*
X008679Y007403D01*
X008830Y007178D02*
X008679Y007028D01*
X008059Y007103D02*
X007984Y007028D01*
X007834Y007028D01*
X007759Y007103D01*
X007759Y007178D01*
X007834Y007253D01*
X007909Y007253D01*
X007834Y007253D02*
X007759Y007328D01*
X007759Y007403D01*
X007834Y007478D01*
X007984Y007478D01*
X008059Y007403D01*
X007930Y007578D02*
X007930Y008028D01*
X007704Y008028D01*
X007629Y007953D01*
X007629Y007803D01*
X007704Y007728D01*
X007930Y007728D01*
X007780Y007728D02*
X007629Y007578D01*
X007469Y007578D02*
X007169Y007878D01*
X007169Y007953D01*
X007244Y008028D01*
X007394Y008028D01*
X007469Y007953D01*
X007469Y008328D02*
X007169Y008328D01*
X007009Y008328D02*
X006709Y008328D01*
X006859Y008328D02*
X006859Y008778D01*
X007009Y008628D01*
X007169Y008628D02*
X007169Y008703D01*
X007244Y008778D01*
X007394Y008778D01*
X007469Y008703D01*
X007629Y008703D02*
X007629Y008553D01*
X007704Y008478D01*
X007930Y008478D01*
X007930Y008328D02*
X007930Y008778D01*
X007704Y008778D01*
X007629Y008703D01*
X007780Y008478D02*
X007629Y008328D01*
X007469Y008328D02*
X007169Y008628D01*
X007009Y008028D02*
X006709Y008028D01*
X006784Y007878D02*
X006709Y007803D01*
X006709Y007653D01*
X006784Y007578D01*
X006934Y007578D01*
X007009Y007653D01*
X007009Y007803D02*
X006859Y007878D01*
X006784Y007878D01*
X007009Y007803D02*
X007009Y008028D01*
X007169Y007578D02*
X007469Y007578D01*
X010209Y007628D02*
X010509Y007628D01*
X010209Y007928D01*
X010209Y008003D01*
X010284Y008078D01*
X010434Y008078D01*
X010509Y008003D01*
X010669Y008003D02*
X010669Y007928D01*
X010744Y007853D01*
X010669Y007778D01*
X010669Y007703D01*
X010744Y007628D01*
X010894Y007628D01*
X010969Y007703D01*
X011129Y007628D02*
X011280Y007778D01*
X011204Y007778D02*
X011430Y007778D01*
X011430Y007628D02*
X011430Y008078D01*
X011204Y008078D01*
X011129Y008003D01*
X011129Y007853D01*
X011204Y007778D01*
X010969Y008003D02*
X010894Y008078D01*
X010744Y008078D01*
X010669Y008003D01*
X010744Y007853D02*
X010819Y007853D01*
X010744Y008228D02*
X010894Y008228D01*
X010969Y008303D01*
X011129Y008228D02*
X011280Y008378D01*
X011204Y008378D02*
X011430Y008378D01*
X011430Y008228D02*
X011430Y008678D01*
X011204Y008678D01*
X011129Y008603D01*
X011129Y008453D01*
X011204Y008378D01*
X010969Y008603D02*
X010894Y008678D01*
X010744Y008678D01*
X010669Y008603D01*
X010669Y008528D01*
X010744Y008453D01*
X010669Y008378D01*
X010669Y008303D01*
X010744Y008228D01*
X010744Y008453D02*
X010819Y008453D01*
X010509Y008303D02*
X010434Y008228D01*
X010284Y008228D01*
X010209Y008303D01*
X010209Y008378D01*
X010284Y008453D01*
X010359Y008453D01*
X010284Y008453D02*
X010209Y008528D01*
X010209Y008603D01*
X010284Y008678D01*
X010434Y008678D01*
X010509Y008603D01*
X007930Y009078D02*
X007930Y009528D01*
X007704Y009528D01*
X007629Y009453D01*
X007629Y009303D01*
X007704Y009228D01*
X007930Y009228D01*
X007780Y009228D02*
X007629Y009078D01*
X007469Y009078D02*
X007169Y009378D01*
X007169Y009453D01*
X007244Y009528D01*
X007394Y009528D01*
X007469Y009453D01*
X007469Y009728D02*
X007169Y010028D01*
X007169Y010103D01*
X007244Y010178D01*
X007394Y010178D01*
X007469Y010103D01*
X007629Y010103D02*
X007629Y009953D01*
X007704Y009878D01*
X007930Y009878D01*
X007930Y009728D02*
X007930Y010178D01*
X007704Y010178D01*
X007629Y010103D01*
X007780Y009878D02*
X007629Y009728D01*
X007469Y009728D02*
X007169Y009728D01*
X007009Y009803D02*
X006934Y009728D01*
X006784Y009728D01*
X006709Y009803D01*
X006709Y009878D01*
X006784Y009953D01*
X006859Y009953D01*
X006784Y009953D02*
X006709Y010028D01*
X006709Y010103D01*
X006784Y010178D01*
X006934Y010178D01*
X007009Y010103D01*
X007169Y010428D02*
X007469Y010428D01*
X007169Y010728D01*
X007169Y010803D01*
X007244Y010878D01*
X007394Y010878D01*
X007469Y010803D01*
X007629Y010803D02*
X007629Y010653D01*
X007704Y010578D01*
X007930Y010578D01*
X007930Y010428D02*
X007930Y010878D01*
X007704Y010878D01*
X007629Y010803D01*
X007780Y010578D02*
X007629Y010428D01*
X007009Y010653D02*
X006709Y010653D01*
X006784Y010428D02*
X006784Y010878D01*
X007009Y010653D01*
X005930Y010713D02*
X005855Y010638D01*
X005930Y010713D02*
X005930Y010863D01*
X005855Y010939D01*
X005780Y010939D01*
X005480Y010638D01*
X005480Y010939D01*
X005480Y010478D02*
X005630Y010328D01*
X005630Y010403D02*
X005630Y010178D01*
X005480Y010178D02*
X005930Y010178D01*
X005930Y010403D01*
X005855Y010478D01*
X005705Y010478D01*
X005630Y010403D01*
X004880Y010353D02*
X004880Y010203D01*
X004805Y010128D01*
X004505Y010128D01*
X004430Y010203D01*
X004430Y010353D01*
X004505Y010428D01*
X004655Y010588D02*
X004655Y010889D01*
X004880Y010813D02*
X004655Y010588D01*
X004805Y010428D02*
X004880Y010353D01*
X004880Y010813D02*
X004430Y010813D01*
X006709Y009453D02*
X006784Y009528D01*
X006934Y009528D01*
X007009Y009453D01*
X006709Y009453D02*
X006709Y009378D01*
X007009Y009078D01*
X006709Y009078D01*
X007169Y009078D02*
X007469Y009078D01*
X007555Y011678D02*
X007255Y011678D01*
X007180Y011753D01*
X007180Y011903D01*
X007255Y011978D01*
X007255Y012138D02*
X007180Y012213D01*
X007180Y012363D01*
X007255Y012439D01*
X007330Y012439D01*
X007405Y012363D01*
X007405Y012288D01*
X007405Y012363D02*
X007480Y012439D01*
X007555Y012439D01*
X007630Y012363D01*
X007630Y012213D01*
X007555Y012138D01*
X007555Y011978D02*
X007630Y011903D01*
X007630Y011753D01*
X007555Y011678D01*
X009640Y011703D02*
X009715Y011628D01*
X009865Y011628D01*
X009940Y011703D01*
X009940Y011853D02*
X009790Y011928D01*
X009715Y011928D01*
X009640Y011853D01*
X009640Y011703D01*
X009940Y011853D02*
X009940Y012078D01*
X009640Y012078D01*
X010100Y012003D02*
X010175Y012078D01*
X010325Y012078D01*
X010400Y012003D01*
X010400Y011703D01*
X010325Y011628D01*
X010175Y011628D01*
X010100Y011703D01*
X011290Y012678D02*
X011590Y012678D01*
X011290Y012978D01*
X011290Y013053D01*
X011365Y013128D01*
X011515Y013128D01*
X011590Y013053D01*
X011750Y013053D02*
X011825Y013128D01*
X011975Y013128D01*
X012050Y013053D01*
X012050Y012753D01*
X011975Y012678D01*
X011825Y012678D01*
X011750Y012753D01*
X012207Y012678D02*
X012357Y012678D01*
X012282Y012678D02*
X012282Y013128D01*
X012357Y013128D02*
X012207Y013128D01*
X012680Y012974D02*
X012680Y012824D01*
X012755Y012749D01*
X012905Y012749D02*
X012980Y012899D01*
X012980Y012974D01*
X012905Y013049D01*
X012755Y013049D01*
X012680Y012974D01*
X012905Y012749D02*
X013130Y012749D01*
X013130Y013049D01*
X013130Y012589D02*
X013130Y012288D01*
X012905Y012288D01*
X012980Y012438D01*
X012980Y012513D01*
X012905Y012589D01*
X012755Y012589D01*
X012680Y012513D01*
X012680Y012363D01*
X012755Y012288D01*
X012680Y012128D02*
X012830Y011978D01*
X012830Y012053D02*
X012830Y011828D01*
X012680Y011828D02*
X013130Y011828D01*
X013130Y012053D01*
X013055Y012128D01*
X012905Y012128D01*
X012830Y012053D01*
X015180Y012078D02*
X015330Y011928D01*
X015330Y012003D02*
X015330Y011778D01*
X015180Y011778D02*
X015630Y011778D01*
X015630Y012003D01*
X015555Y012078D01*
X015405Y012078D01*
X015330Y012003D01*
X015405Y012238D02*
X015480Y012388D01*
X015480Y012463D01*
X015405Y012539D01*
X015255Y012539D01*
X015180Y012463D01*
X015180Y012313D01*
X015255Y012238D01*
X015405Y012238D02*
X015630Y012238D01*
X015630Y012539D01*
X015405Y012699D02*
X015555Y012849D01*
X015630Y012999D01*
X015405Y012924D02*
X015405Y012699D01*
X015255Y012699D01*
X015180Y012774D01*
X015180Y012924D01*
X015255Y012999D01*
X015330Y012999D01*
X015405Y012924D01*
X017569Y011703D02*
X017569Y011628D01*
X017644Y011553D01*
X017794Y011553D01*
X017869Y011628D01*
X017869Y011703D01*
X017794Y011778D01*
X017644Y011778D01*
X017569Y011703D01*
X017644Y011553D02*
X017569Y011478D01*
X017569Y011403D01*
X017644Y011328D01*
X017794Y011328D01*
X017869Y011403D01*
X017869Y011478D01*
X017794Y011553D01*
X018029Y011553D02*
X018104Y011478D01*
X018330Y011478D01*
X018330Y011328D02*
X018330Y011778D01*
X018104Y011778D01*
X018029Y011703D01*
X018029Y011553D01*
X018180Y011478D02*
X018029Y011328D01*
X016180Y010728D02*
X016180Y010278D01*
X016180Y010428D02*
X015954Y010428D01*
X015879Y010503D01*
X015879Y010653D01*
X015954Y010728D01*
X016180Y010728D01*
X016030Y010428D02*
X015879Y010278D01*
X015719Y010353D02*
X015644Y010278D01*
X015494Y010278D01*
X015419Y010353D01*
X015419Y010503D01*
X015494Y010578D01*
X015569Y010578D01*
X015719Y010503D01*
X015719Y010728D01*
X015419Y010728D01*
X015259Y010653D02*
X015259Y010578D01*
X015184Y010503D01*
X015034Y010503D01*
X014959Y010428D01*
X014959Y010353D01*
X015034Y010278D01*
X015184Y010278D01*
X015259Y010353D01*
X015259Y010428D01*
X015184Y010503D01*
X015034Y010503D02*
X014959Y010578D01*
X014959Y010653D01*
X015034Y010728D01*
X015184Y010728D01*
X015259Y010653D01*
X015119Y008128D02*
X015419Y008128D01*
X015419Y007903D01*
X015269Y007978D01*
X015194Y007978D01*
X015119Y007903D01*
X015119Y007753D01*
X015194Y007678D01*
X015344Y007678D01*
X015419Y007753D01*
X015579Y007678D02*
X015730Y007828D01*
X015654Y007828D02*
X015880Y007828D01*
X015880Y007678D02*
X015880Y008128D01*
X015654Y008128D01*
X015579Y008053D01*
X015579Y007903D01*
X015654Y007828D01*
X014959Y007753D02*
X014959Y007678D01*
X014959Y007753D02*
X014659Y008053D01*
X014659Y008128D01*
X014959Y008128D01*
X018240Y007028D02*
X018240Y006953D01*
X018540Y006653D01*
X018540Y006578D01*
X018700Y006578D02*
X018850Y006728D01*
X018775Y006728D02*
X019000Y006728D01*
X019000Y006578D02*
X019000Y007028D01*
X018775Y007028D01*
X018700Y006953D01*
X018700Y006803D01*
X018775Y006728D01*
X018540Y007028D02*
X018240Y007028D01*
X020580Y007178D02*
X021030Y007178D01*
X021030Y007403D01*
X020955Y007478D01*
X020805Y007478D01*
X020730Y007403D01*
X020730Y007178D01*
X020730Y007328D02*
X020580Y007478D01*
X020580Y007638D02*
X020580Y007939D01*
X020580Y007788D02*
X021030Y007788D01*
X020880Y007638D01*
X021030Y008099D02*
X021030Y008399D01*
X020955Y008399D01*
X020655Y008099D01*
X020580Y008099D01*
X020580Y009778D02*
X021030Y009778D01*
X021030Y010003D01*
X020955Y010078D01*
X020805Y010078D01*
X020730Y010003D01*
X020730Y009778D01*
X020730Y009928D02*
X020580Y010078D01*
X020580Y010238D02*
X020580Y010539D01*
X020580Y010388D02*
X021030Y010388D01*
X020880Y010238D01*
X020880Y010699D02*
X020955Y010699D01*
X021030Y010774D01*
X021030Y010924D01*
X020955Y010999D01*
X020880Y010999D01*
X020805Y010924D01*
X020805Y010774D01*
X020880Y010699D01*
X020805Y010774D02*
X020730Y010699D01*
X020655Y010699D01*
X020580Y010774D01*
X020580Y010924D01*
X020655Y010999D01*
X020730Y010999D01*
X020805Y010924D01*
X022990Y009953D02*
X023290Y009653D01*
X023215Y009578D01*
X023065Y009578D01*
X022990Y009653D01*
X022990Y009953D01*
X023065Y010028D01*
X023215Y010028D01*
X023290Y009953D01*
X023290Y009653D01*
X023450Y009578D02*
X023750Y009578D01*
X023600Y009578D02*
X023600Y010028D01*
X023750Y009878D01*
X023911Y009803D02*
X023986Y009728D01*
X024211Y009728D01*
X024211Y009578D02*
X024211Y010028D01*
X023986Y010028D01*
X023911Y009953D01*
X023911Y009803D01*
X024061Y009728D02*
X023911Y009578D01*
X024234Y011178D02*
X024234Y011628D01*
X024459Y011403D01*
X024159Y011403D01*
X024619Y011403D02*
X024919Y011403D01*
X024694Y011628D01*
X024694Y011178D01*
X025079Y011253D02*
X025154Y011178D01*
X025305Y011178D01*
X025380Y011253D01*
X025380Y011553D01*
X025305Y011628D01*
X025154Y011628D01*
X025079Y011553D01*
X025440Y012528D02*
X025740Y012528D01*
X025590Y012528D02*
X025590Y012978D01*
X025740Y012828D01*
X025900Y012903D02*
X025975Y012978D01*
X026125Y012978D01*
X026200Y012903D01*
X026200Y012603D01*
X026125Y012528D01*
X025975Y012528D01*
X025900Y012603D01*
X028183Y011858D02*
X028183Y011407D01*
X028108Y011633D02*
X028408Y011633D01*
X028183Y011858D01*
X028569Y011783D02*
X028644Y011858D01*
X028794Y011858D01*
X028869Y011783D01*
X028869Y011482D01*
X028794Y011407D01*
X028644Y011407D01*
X028569Y011482D01*
X029026Y011407D02*
X029176Y011407D01*
X029101Y011407D02*
X029101Y011858D01*
X029176Y011858D02*
X029026Y011858D01*
X028248Y010617D02*
X028090Y010617D01*
X028090Y010460D01*
X029862Y010617D02*
X030019Y010617D01*
X030019Y010460D01*
X030019Y008846D02*
X030019Y008688D01*
X029862Y008688D01*
X030905Y008153D02*
X030905Y007903D01*
X031155Y007903D01*
X031155Y008153D01*
X030905Y008153D01*
X030905Y008109D02*
X031155Y008109D01*
X031155Y008061D02*
X030905Y008061D01*
X030905Y008012D02*
X031155Y008012D01*
X031155Y007964D02*
X030905Y007964D01*
X030905Y007915D02*
X031155Y007915D01*
X031182Y007643D02*
X031333Y007643D01*
X031257Y007643D02*
X031257Y007193D01*
X031182Y007193D02*
X031333Y007193D01*
X031026Y007268D02*
X030951Y007193D01*
X030800Y007193D01*
X030725Y007268D01*
X030565Y007268D02*
X030490Y007193D01*
X030340Y007193D01*
X030265Y007268D01*
X030265Y007418D01*
X030340Y007493D01*
X030415Y007493D01*
X030565Y007418D01*
X030565Y007643D01*
X030265Y007643D01*
X030725Y007568D02*
X030800Y007643D01*
X030951Y007643D01*
X031026Y007568D01*
X031026Y007268D01*
X028248Y008688D02*
X028090Y008688D01*
X028090Y008846D01*
X023750Y007178D02*
X023750Y006728D01*
X023750Y006878D02*
X023525Y006878D01*
X023450Y006953D01*
X023450Y007103D01*
X023525Y007178D01*
X023750Y007178D01*
X023600Y006878D02*
X023450Y006728D01*
X023290Y006803D02*
X023215Y006728D01*
X023065Y006728D01*
X022990Y006803D01*
X022990Y007103D01*
X023065Y007178D01*
X023215Y007178D01*
X023290Y007103D01*
X023290Y007028D01*
X023215Y006953D01*
X022990Y006953D01*
X020755Y004299D02*
X020455Y004299D01*
X020380Y004224D01*
X020380Y004074D01*
X020455Y003999D01*
X020455Y003839D02*
X020380Y003763D01*
X020380Y003613D01*
X020455Y003538D01*
X020605Y003538D02*
X020680Y003688D01*
X020680Y003763D01*
X020605Y003839D01*
X020455Y003839D01*
X020680Y003999D02*
X020605Y004074D01*
X020605Y004299D01*
X020755Y004299D02*
X020830Y004224D01*
X020830Y004074D01*
X020755Y003999D01*
X020680Y003999D01*
X020830Y003839D02*
X020830Y003538D01*
X020605Y003538D01*
X020605Y003378D02*
X020530Y003303D01*
X020530Y003078D01*
X020530Y003228D02*
X020380Y003378D01*
X020605Y003378D02*
X020755Y003378D01*
X020830Y003303D01*
X020830Y003078D01*
X020380Y003078D01*
X018980Y003063D02*
X018905Y002988D01*
X018830Y002988D01*
X018755Y003063D01*
X018755Y003213D01*
X018680Y003289D01*
X018605Y003289D01*
X018530Y003213D01*
X018530Y003063D01*
X018605Y002988D01*
X018605Y002828D02*
X018980Y002828D01*
X018980Y003063D02*
X018980Y003213D01*
X018905Y003289D01*
X018980Y003449D02*
X018530Y003449D01*
X018530Y003674D01*
X018605Y003749D01*
X018680Y003749D01*
X018755Y003674D01*
X018755Y003449D01*
X018755Y003674D02*
X018830Y003749D01*
X018905Y003749D01*
X018980Y003674D01*
X018980Y003449D01*
X018605Y002828D02*
X018530Y002753D01*
X018530Y002603D01*
X018605Y002528D01*
X018980Y002528D01*
X017667Y002215D02*
X017667Y001623D01*
X014642Y001623D01*
X014642Y002215D01*
X015071Y002154D02*
X014990Y003238D01*
X015071Y003238D01*
X015174Y002297D01*
X015378Y002297D01*
X015480Y003238D01*
X015562Y003238D01*
X015460Y002154D01*
X015456Y002135D01*
X015450Y002116D01*
X015440Y002099D01*
X015428Y002083D01*
X015413Y002070D01*
X015396Y002059D01*
X015378Y002052D01*
X015153Y002052D02*
X015135Y002059D01*
X015118Y002070D01*
X015103Y002083D01*
X015091Y002099D01*
X015081Y002116D01*
X015075Y002135D01*
X015071Y002154D01*
X015154Y002053D02*
X015190Y002044D01*
X015228Y002038D01*
X015266Y002036D01*
X015304Y002038D01*
X015341Y002044D01*
X015378Y002053D01*
X015664Y002154D02*
X015746Y003749D01*
X015745Y003749D02*
X015748Y003767D01*
X015755Y003784D01*
X015764Y003799D01*
X015777Y003812D01*
X015792Y003821D01*
X015809Y003828D01*
X015827Y003831D01*
X015828Y003830D02*
X016482Y003830D01*
X016482Y003831D02*
X016500Y003828D01*
X016517Y003821D01*
X016532Y003812D01*
X016545Y003799D01*
X016554Y003784D01*
X016561Y003767D01*
X016564Y003749D01*
X016563Y003749D02*
X016645Y002154D01*
X016643Y002138D01*
X016639Y002123D01*
X016631Y002108D01*
X016621Y002096D01*
X016609Y002086D01*
X016594Y002078D01*
X016579Y002074D01*
X016563Y002072D01*
X016547Y002074D01*
X016532Y002078D01*
X016517Y002086D01*
X016505Y002096D01*
X016495Y002108D01*
X016487Y002123D01*
X016483Y002138D01*
X016481Y002154D01*
X016482Y002154D02*
X016400Y003503D01*
X015909Y003503D01*
X015828Y002154D01*
X015826Y002138D01*
X015822Y002123D01*
X015814Y002108D01*
X015804Y002096D01*
X015792Y002086D01*
X015777Y002078D01*
X015762Y002074D01*
X015746Y002072D01*
X015730Y002074D01*
X015715Y002078D01*
X015700Y002086D01*
X015688Y002096D01*
X015678Y002108D01*
X015670Y002123D01*
X015666Y002138D01*
X015664Y002154D01*
X016850Y002154D02*
X016747Y003238D01*
X016829Y003238D01*
X016931Y002297D01*
X017136Y002297D01*
X017238Y003238D01*
X017320Y003238D01*
X017238Y002154D01*
X017234Y002135D01*
X017228Y002116D01*
X017218Y002099D01*
X017206Y002083D01*
X017191Y002070D01*
X017174Y002059D01*
X017156Y002052D01*
X016931Y002052D02*
X016913Y002059D01*
X016896Y002070D01*
X016881Y002083D01*
X016869Y002099D01*
X016859Y002116D01*
X016853Y002135D01*
X016849Y002154D01*
X016932Y002053D02*
X016968Y002044D01*
X017006Y002038D01*
X017044Y002036D01*
X017082Y002038D01*
X017119Y002044D01*
X017156Y002053D01*
X017667Y003330D02*
X017667Y004239D01*
X017669Y004223D01*
X017673Y004208D01*
X017681Y004193D01*
X017691Y004181D01*
X017703Y004171D01*
X017718Y004163D01*
X017733Y004159D01*
X017749Y004157D01*
X017810Y004157D01*
X018530Y004209D02*
X018530Y003909D01*
X018830Y004209D01*
X018905Y004209D01*
X018980Y004134D01*
X018980Y003984D01*
X018905Y003909D01*
X017340Y005159D02*
X017340Y005302D01*
X017340Y005322D02*
X016952Y005322D01*
X016952Y005302D02*
X016952Y004566D01*
X016870Y004362D02*
X015439Y004362D01*
X015423Y004360D01*
X015408Y004356D01*
X015393Y004348D01*
X015381Y004338D01*
X015371Y004326D01*
X015363Y004311D01*
X015359Y004296D01*
X015357Y004280D01*
X015358Y004280D02*
X015360Y004260D01*
X015366Y004241D01*
X015375Y004223D01*
X015388Y004208D01*
X015403Y004195D01*
X015421Y004186D01*
X015440Y004180D01*
X015460Y004178D01*
X016850Y004178D01*
X016870Y004180D01*
X016889Y004186D01*
X016907Y004195D01*
X016922Y004208D01*
X016935Y004223D01*
X016944Y004241D01*
X016950Y004260D01*
X016952Y004280D01*
X016950Y004296D01*
X016946Y004311D01*
X016938Y004326D01*
X016928Y004338D01*
X016916Y004348D01*
X016901Y004356D01*
X016886Y004360D01*
X016870Y004362D01*
X015358Y004566D02*
X015358Y005302D01*
X015358Y005322D02*
X014969Y005322D01*
X014969Y005302D02*
X014969Y005159D01*
X014642Y004239D02*
X014642Y003330D01*
X014561Y004157D02*
X014499Y004157D01*
X014561Y004157D02*
X014577Y004159D01*
X014592Y004163D01*
X014607Y004171D01*
X014619Y004181D01*
X014629Y004193D01*
X014637Y004208D01*
X014641Y004223D01*
X014643Y004239D01*
X022280Y003738D02*
X022355Y003738D01*
X022655Y004039D01*
X022730Y004039D01*
X022730Y003738D01*
X022655Y003578D02*
X022730Y003503D01*
X022730Y003353D01*
X022655Y003278D01*
X022355Y003278D01*
X022280Y003353D01*
X022280Y003503D01*
X022355Y003578D01*
X026230Y003453D02*
X026305Y003528D01*
X026230Y003453D02*
X026230Y003303D01*
X026305Y003228D01*
X026605Y003228D01*
X026680Y003303D01*
X026680Y003453D01*
X026605Y003528D01*
X026605Y003688D02*
X026530Y003688D01*
X026455Y003763D01*
X026455Y003913D01*
X026380Y003989D01*
X026305Y003989D01*
X026230Y003913D01*
X026230Y003763D01*
X026305Y003688D01*
X026380Y003688D01*
X026455Y003763D01*
X026455Y003913D02*
X026530Y003989D01*
X026605Y003989D01*
X026680Y003913D01*
X026680Y003763D01*
X026605Y003688D01*
X033230Y003713D02*
X033680Y003713D01*
X033455Y003488D01*
X033455Y003789D01*
X033530Y003949D02*
X033455Y004024D01*
X033455Y004249D01*
X033605Y004249D02*
X033680Y004174D01*
X033680Y004024D01*
X033605Y003949D01*
X033530Y003949D01*
X033305Y003949D02*
X033230Y004024D01*
X033230Y004174D01*
X033305Y004249D01*
X033605Y004249D01*
X033959Y004453D02*
X033959Y004753D01*
X034259Y004453D01*
X034184Y004378D01*
X034034Y004378D01*
X033959Y004453D01*
X034259Y004453D02*
X034259Y004753D01*
X034184Y004828D01*
X034034Y004828D01*
X033959Y004753D01*
X034419Y004828D02*
X034719Y004828D01*
X034719Y004603D01*
X034569Y004678D01*
X034494Y004678D01*
X034419Y004603D01*
X034419Y004453D01*
X034494Y004378D01*
X034644Y004378D01*
X034719Y004453D01*
X034879Y004378D02*
X035030Y004528D01*
X034954Y004528D02*
X035180Y004528D01*
X035180Y004378D02*
X035180Y004828D01*
X034954Y004828D01*
X034879Y004753D01*
X034879Y004603D01*
X034954Y004528D01*
X035459Y004753D02*
X035759Y004453D01*
X035759Y004378D01*
X035994Y004378D02*
X035994Y004828D01*
X036219Y004603D01*
X035919Y004603D01*
X035759Y004828D02*
X035459Y004828D01*
X035459Y004753D01*
X036379Y004753D02*
X036379Y004603D01*
X036454Y004528D01*
X036680Y004528D01*
X036680Y004378D02*
X036680Y004828D01*
X036454Y004828D01*
X036379Y004753D01*
X036530Y004528D02*
X036379Y004378D01*
X037430Y004328D02*
X037880Y004328D01*
X037880Y004553D01*
X037805Y004628D01*
X037655Y004628D01*
X037580Y004553D01*
X037580Y004328D01*
X037580Y004478D02*
X037430Y004628D01*
X037655Y004788D02*
X037655Y005089D01*
X037730Y005249D02*
X037805Y005249D01*
X037880Y005324D01*
X037880Y005474D01*
X037805Y005549D01*
X037730Y005549D01*
X037655Y005474D01*
X037655Y005324D01*
X037730Y005249D01*
X037655Y005324D02*
X037580Y005249D01*
X037505Y005249D01*
X037430Y005324D01*
X037430Y005474D01*
X037505Y005549D01*
X037580Y005549D01*
X037655Y005474D01*
X037430Y005013D02*
X037880Y005013D01*
X037655Y004788D01*
X038784Y006278D02*
X038784Y006728D01*
X039009Y006503D01*
X038709Y006503D01*
X039169Y006578D02*
X039169Y006653D01*
X039244Y006728D01*
X039394Y006728D01*
X039469Y006653D01*
X039629Y006653D02*
X039629Y006503D01*
X039704Y006428D01*
X039930Y006428D01*
X039930Y006278D02*
X039930Y006728D01*
X039704Y006728D01*
X039629Y006653D01*
X039780Y006428D02*
X039629Y006278D01*
X039469Y006353D02*
X039394Y006278D01*
X039244Y006278D01*
X039169Y006353D01*
X039169Y006428D01*
X039244Y006503D01*
X039319Y006503D01*
X039244Y006503D02*
X039169Y006578D01*
X039194Y008478D02*
X039344Y008478D01*
X039419Y008553D01*
X039579Y008478D02*
X039730Y008628D01*
X039654Y008628D02*
X039880Y008628D01*
X039880Y008478D02*
X039880Y008928D01*
X039654Y008928D01*
X039579Y008853D01*
X039579Y008703D01*
X039654Y008628D01*
X039419Y008853D02*
X039344Y008928D01*
X039194Y008928D01*
X039119Y008853D01*
X039119Y008778D01*
X039194Y008703D01*
X039119Y008628D01*
X039119Y008553D01*
X039194Y008478D01*
X039194Y008703D02*
X039269Y008703D01*
X038959Y008703D02*
X038809Y008778D01*
X038734Y008778D01*
X038659Y008703D01*
X038659Y008553D01*
X038734Y008478D01*
X038884Y008478D01*
X038959Y008553D01*
X038959Y008703D02*
X038959Y008928D01*
X038659Y008928D01*
X038734Y009228D02*
X038659Y009303D01*
X038659Y009378D01*
X038734Y009453D01*
X038959Y009453D01*
X038959Y009303D01*
X038884Y009228D01*
X038734Y009228D01*
X038959Y009453D02*
X038809Y009603D01*
X038659Y009678D01*
X039119Y009603D02*
X039119Y009528D01*
X039194Y009453D01*
X039119Y009378D01*
X039119Y009303D01*
X039194Y009228D01*
X039344Y009228D01*
X039419Y009303D01*
X039579Y009228D02*
X039730Y009378D01*
X039654Y009378D02*
X039880Y009378D01*
X039880Y009228D02*
X039880Y009678D01*
X039654Y009678D01*
X039579Y009603D01*
X039579Y009453D01*
X039654Y009378D01*
X039419Y009603D02*
X039344Y009678D01*
X039194Y009678D01*
X039119Y009603D01*
X039194Y009453D02*
X039269Y009453D01*
X035280Y012672D02*
X035205Y012597D01*
X034905Y012597D01*
X034830Y012672D01*
X034830Y012822D01*
X034905Y012897D01*
X034830Y013057D02*
X034830Y013357D01*
X034830Y013207D02*
X035280Y013207D01*
X035130Y013057D01*
X035205Y012897D02*
X035280Y012822D01*
X035280Y012672D01*
X035280Y013517D02*
X035055Y013517D01*
X035130Y013668D01*
X035130Y013743D01*
X035055Y013818D01*
X034905Y013818D01*
X034830Y013743D01*
X034830Y013593D01*
X034905Y013517D01*
X035280Y013517D02*
X035280Y013818D01*
X037440Y013828D02*
X037740Y013828D01*
X037590Y013828D02*
X037590Y014278D01*
X037740Y014128D01*
X037900Y014053D02*
X037900Y013903D01*
X037975Y013828D01*
X038125Y013828D01*
X038200Y013903D01*
X038200Y014053D02*
X038050Y014128D01*
X037975Y014128D01*
X037900Y014053D01*
X037900Y014278D02*
X038200Y014278D01*
X038200Y014053D01*
X038361Y014053D02*
X038436Y013978D01*
X038661Y013978D01*
X038661Y013828D02*
X038661Y014278D01*
X038436Y014278D01*
X038361Y014203D01*
X038361Y014053D01*
X038511Y013978D02*
X038361Y013828D01*
X038361Y014578D02*
X038511Y014728D01*
X038436Y014728D02*
X038661Y014728D01*
X038661Y014578D02*
X038661Y015028D01*
X038436Y015028D01*
X038361Y014953D01*
X038361Y014803D01*
X038436Y014728D01*
X038200Y014653D02*
X038125Y014578D01*
X037975Y014578D01*
X037900Y014653D01*
X037900Y014803D01*
X037975Y014878D01*
X038050Y014878D01*
X038200Y014803D01*
X038200Y015028D01*
X037900Y015028D01*
X037740Y014953D02*
X037665Y015028D01*
X037515Y015028D01*
X037440Y014953D01*
X037440Y014878D01*
X037740Y014578D01*
X037440Y014578D01*
X020357Y013678D02*
X020207Y013678D01*
X020282Y013678D02*
X020282Y013228D01*
X020357Y013228D02*
X020207Y013228D01*
X020050Y013303D02*
X019975Y013228D01*
X019825Y013228D01*
X019750Y013303D01*
X019590Y013303D02*
X019590Y013378D01*
X019515Y013453D01*
X019365Y013453D01*
X019290Y013378D01*
X019290Y013303D01*
X019365Y013228D01*
X019515Y013228D01*
X019590Y013303D01*
X019515Y013453D02*
X019590Y013528D01*
X019590Y013603D01*
X019515Y013678D01*
X019365Y013678D01*
X019290Y013603D01*
X019290Y013528D01*
X019365Y013453D01*
X019750Y013603D02*
X019825Y013678D01*
X019975Y013678D01*
X020050Y013603D01*
X020050Y013303D01*
X011780Y016703D02*
X011705Y016628D01*
X011405Y016628D01*
X011330Y016703D01*
X011330Y016853D01*
X011405Y016928D01*
X011405Y017088D02*
X011330Y017163D01*
X011330Y017313D01*
X011405Y017389D01*
X011480Y017389D01*
X011555Y017313D01*
X011555Y017238D01*
X011555Y017313D02*
X011630Y017389D01*
X011705Y017389D01*
X011780Y017313D01*
X011780Y017163D01*
X011705Y017088D01*
X011705Y016928D02*
X011780Y016853D01*
X011780Y016703D01*
X011555Y017549D02*
X011555Y017849D01*
X011780Y017774D02*
X011555Y017549D01*
X011330Y017774D02*
X011780Y017774D01*
X011879Y019078D02*
X012030Y019228D01*
X011954Y019228D02*
X012180Y019228D01*
X012180Y019078D02*
X012180Y019528D01*
X011954Y019528D01*
X011879Y019453D01*
X011879Y019303D01*
X011954Y019228D01*
X011719Y019153D02*
X011644Y019078D01*
X011494Y019078D01*
X011419Y019153D01*
X011419Y019228D01*
X011494Y019303D01*
X011569Y019303D01*
X011494Y019303D02*
X011419Y019378D01*
X011419Y019453D01*
X011494Y019528D01*
X011644Y019528D01*
X011719Y019453D01*
X011769Y019728D02*
X011469Y019728D01*
X011309Y019803D02*
X011234Y019728D01*
X011084Y019728D01*
X011009Y019803D01*
X011009Y019878D01*
X011084Y019953D01*
X011309Y019953D01*
X011309Y019803D01*
X011309Y019953D02*
X011159Y020103D01*
X011009Y020178D01*
X011469Y020103D02*
X011544Y020178D01*
X011694Y020178D01*
X011769Y020103D01*
X011929Y020103D02*
X011929Y019953D01*
X012004Y019878D01*
X012230Y019878D01*
X012230Y019728D02*
X012230Y020178D01*
X012004Y020178D01*
X011929Y020103D01*
X012080Y019878D02*
X011929Y019728D01*
X011769Y019728D02*
X011469Y020028D01*
X011469Y020103D01*
X011184Y019528D02*
X011034Y019528D01*
X010959Y019453D01*
X011259Y019153D01*
X011184Y019078D01*
X011034Y019078D01*
X010959Y019153D01*
X010959Y019453D01*
X011184Y019528D02*
X011259Y019453D01*
X011259Y019153D01*
X011430Y020800D02*
X011430Y020950D01*
X011430Y020875D02*
X011880Y020875D01*
X011880Y020800D02*
X011880Y020950D01*
X011805Y021107D02*
X011505Y021107D01*
X011430Y021182D01*
X011430Y021332D01*
X011505Y021407D01*
X011505Y021567D02*
X011430Y021567D01*
X011505Y021567D02*
X011805Y021868D01*
X011880Y021868D01*
X011880Y021567D01*
X011805Y021407D02*
X011880Y021332D01*
X011880Y021182D01*
X011805Y021107D01*
X010436Y023128D02*
X010286Y023128D01*
X010211Y023203D01*
X010050Y023128D02*
X009750Y023128D01*
X009900Y023128D02*
X009900Y023578D01*
X010050Y023428D01*
X010211Y023503D02*
X010286Y023578D01*
X010436Y023578D01*
X010511Y023503D01*
X010511Y023203D01*
X010436Y023128D01*
X010511Y023828D02*
X010511Y024278D01*
X010286Y024278D01*
X010211Y024203D01*
X010211Y024053D01*
X010286Y023978D01*
X010511Y023978D01*
X010361Y023978D02*
X010211Y023828D01*
X010050Y023828D02*
X009750Y024128D01*
X009750Y024203D01*
X009825Y024278D01*
X009975Y024278D01*
X010050Y024203D01*
X010050Y023828D02*
X009750Y023828D01*
X009590Y023903D02*
X009515Y023828D01*
X009365Y023828D01*
X009290Y023903D01*
X009290Y024203D01*
X009365Y024278D01*
X009515Y024278D01*
X009590Y024203D01*
X009590Y024128D01*
X009515Y024053D01*
X009290Y024053D01*
X009365Y023578D02*
X009290Y023503D01*
X009290Y023428D01*
X009365Y023353D01*
X009515Y023353D01*
X009590Y023428D01*
X009590Y023503D01*
X009515Y023578D01*
X009365Y023578D01*
X009365Y023353D02*
X009290Y023278D01*
X009290Y023203D01*
X009365Y023128D01*
X009515Y023128D01*
X009590Y023203D01*
X009590Y023278D01*
X009515Y023353D01*
X005630Y023303D02*
X005630Y023003D01*
X005555Y022928D01*
X005404Y022928D01*
X005329Y023003D01*
X005169Y022928D02*
X004869Y022928D01*
X005019Y022928D02*
X005019Y023378D01*
X005169Y023228D01*
X005329Y023303D02*
X005404Y023378D01*
X005555Y023378D01*
X005630Y023303D01*
X004709Y023153D02*
X004409Y023153D01*
X004484Y022928D02*
X004484Y023378D01*
X004709Y023153D01*
X004634Y023678D02*
X004484Y023678D01*
X004409Y023753D01*
X004409Y023828D01*
X004484Y023903D01*
X004634Y023903D01*
X004709Y023978D01*
X004709Y024053D01*
X004634Y024128D01*
X004484Y024128D01*
X004409Y024053D01*
X004409Y023978D01*
X004484Y023903D01*
X004634Y023903D02*
X004709Y023828D01*
X004709Y023753D01*
X004634Y023678D01*
X004869Y023678D02*
X005169Y023678D01*
X004869Y023978D01*
X004869Y024053D01*
X004944Y024128D01*
X005094Y024128D01*
X005169Y024053D01*
X005329Y024053D02*
X005329Y023903D01*
X005404Y023828D01*
X005630Y023828D01*
X005630Y023678D02*
X005630Y024128D01*
X005404Y024128D01*
X005329Y024053D01*
X005480Y023828D02*
X005329Y023678D01*
X005955Y018599D02*
X005880Y018524D01*
X005880Y018374D01*
X005955Y018299D01*
X005880Y018139D02*
X005880Y017838D01*
X005880Y017988D02*
X006330Y017988D01*
X006180Y017838D01*
X006255Y017678D02*
X006330Y017603D01*
X006330Y017453D01*
X006255Y017378D01*
X005955Y017378D01*
X005880Y017453D01*
X005880Y017603D01*
X005955Y017678D01*
X006580Y017603D02*
X006655Y017678D01*
X006580Y017603D02*
X006580Y017453D01*
X006655Y017378D01*
X006955Y017378D01*
X007030Y017453D01*
X007030Y017603D01*
X006955Y017678D01*
X006805Y017838D02*
X006805Y018139D01*
X006805Y018299D02*
X006805Y018524D01*
X006730Y018599D01*
X006655Y018599D01*
X006580Y018524D01*
X006580Y018374D01*
X006655Y018299D01*
X006805Y018299D01*
X006955Y018449D01*
X007030Y018599D01*
X007230Y018524D02*
X007230Y018374D01*
X007305Y018299D01*
X007455Y018299D02*
X007530Y018449D01*
X007530Y018524D01*
X007455Y018599D01*
X007305Y018599D01*
X007230Y018524D01*
X007455Y018299D02*
X007680Y018299D01*
X007680Y018599D01*
X007880Y018524D02*
X007955Y018599D01*
X008030Y018599D01*
X008105Y018524D01*
X008105Y018299D01*
X007955Y018299D01*
X007880Y018374D01*
X007880Y018524D01*
X008105Y018299D02*
X008255Y018449D01*
X008330Y018599D01*
X007880Y018139D02*
X007880Y017838D01*
X007880Y017988D02*
X008330Y017988D01*
X008180Y017838D01*
X008255Y017678D02*
X008105Y017678D01*
X008030Y017603D01*
X008030Y017378D01*
X008030Y017528D02*
X007880Y017678D01*
X007680Y017603D02*
X007605Y017678D01*
X007455Y017678D01*
X007380Y017603D01*
X007380Y017378D01*
X007380Y017528D02*
X007230Y017678D01*
X007230Y017838D02*
X007230Y018139D01*
X007230Y017988D02*
X007680Y017988D01*
X007530Y017838D01*
X007680Y017603D02*
X007680Y017378D01*
X007230Y017378D01*
X007880Y017378D02*
X008330Y017378D01*
X008330Y017603D01*
X008255Y017678D01*
X007030Y018063D02*
X006805Y017838D01*
X006580Y018063D02*
X007030Y018063D01*
X006330Y018374D02*
X006330Y018524D01*
X006255Y018599D01*
X006180Y018599D01*
X006105Y018524D01*
X006030Y018599D01*
X005955Y018599D01*
X006105Y018524D02*
X006105Y018449D01*
X006255Y018299D02*
X006330Y018374D01*
X007490Y014428D02*
X007790Y014428D01*
X007790Y014203D01*
X007640Y014278D01*
X007565Y014278D01*
X007490Y014203D01*
X007490Y014053D01*
X007565Y013978D01*
X007715Y013978D01*
X007790Y014053D01*
X007950Y013978D02*
X008100Y014128D01*
X008025Y014128D02*
X008250Y014128D01*
X008250Y013978D02*
X008250Y014428D01*
X008025Y014428D01*
X007950Y014353D01*
X007950Y014203D01*
X008025Y014128D01*
X007975Y013828D02*
X007900Y013753D01*
X007900Y013603D01*
X007975Y013528D01*
X008200Y013528D01*
X008050Y013528D02*
X007900Y013378D01*
X007740Y013378D02*
X007440Y013378D01*
X007590Y013378D02*
X007590Y013828D01*
X007740Y013678D01*
X007975Y013828D02*
X008200Y013828D01*
X008200Y013378D01*
X005714Y013338D02*
X005714Y013968D01*
X004596Y013968D02*
X004596Y013338D01*
X004230Y013282D02*
X004155Y013207D01*
X003855Y013207D01*
X003780Y013282D01*
X003780Y013432D01*
X003855Y013507D01*
X003855Y013667D02*
X003780Y013743D01*
X003780Y013893D01*
X003855Y013968D01*
X003930Y013968D01*
X004005Y013893D01*
X004005Y013818D01*
X004005Y013893D02*
X004080Y013968D01*
X004155Y013968D01*
X004230Y013893D01*
X004230Y013743D01*
X004155Y013667D01*
X004155Y013507D02*
X004230Y013432D01*
X004230Y013282D01*
X004230Y013050D02*
X004230Y012900D01*
X004230Y012975D02*
X003780Y012975D01*
X003780Y012900D02*
X003780Y013050D01*
X026905Y030503D02*
X039905Y030503D01*
X039905Y032453D01*
X026905Y032453D01*
X026905Y030503D01*
X033230Y003328D02*
X033380Y003178D01*
X033380Y003253D02*
X033380Y003028D01*
X033230Y003028D02*
X033680Y003028D01*
X033680Y003253D01*
X033605Y003328D01*
X033455Y003328D01*
X033380Y003253D01*
D27*
X034190Y008117D02*
X031119Y008117D01*
X031119Y011188D01*
X034190Y011188D01*
X034190Y008117D01*
X021001Y011277D02*
X019308Y011277D01*
X019308Y013029D01*
X021001Y013029D01*
X021001Y011277D01*
X019515Y011543D02*
X019517Y011565D01*
X019523Y011587D01*
X019532Y011607D01*
X019545Y011625D01*
X019561Y011641D01*
X019579Y011654D01*
X019599Y011663D01*
X019621Y011669D01*
X019643Y011671D01*
X019665Y011669D01*
X019687Y011663D01*
X019707Y011654D01*
X019725Y011641D01*
X019741Y011625D01*
X019754Y011607D01*
X019763Y011587D01*
X019769Y011565D01*
X019771Y011543D01*
X019769Y011521D01*
X019763Y011499D01*
X019754Y011479D01*
X019741Y011461D01*
X019725Y011445D01*
X019707Y011432D01*
X019687Y011423D01*
X019665Y011417D01*
X019643Y011415D01*
X019621Y011417D01*
X019599Y011423D01*
X019579Y011432D01*
X019561Y011445D01*
X019545Y011461D01*
X019532Y011479D01*
X019523Y011499D01*
X019517Y011521D01*
X019515Y011543D01*
X011501Y013277D02*
X009808Y013277D01*
X009808Y015029D01*
X011501Y015029D01*
X011501Y013277D01*
X010015Y013543D02*
X010017Y013565D01*
X010023Y013587D01*
X010032Y013607D01*
X010045Y013625D01*
X010061Y013641D01*
X010079Y013654D01*
X010099Y013663D01*
X010121Y013669D01*
X010143Y013671D01*
X010165Y013669D01*
X010187Y013663D01*
X010207Y013654D01*
X010225Y013641D01*
X010241Y013625D01*
X010254Y013607D01*
X010263Y013587D01*
X010269Y013565D01*
X010271Y013543D01*
X010269Y013521D01*
X010263Y013499D01*
X010254Y013479D01*
X010241Y013461D01*
X010225Y013445D01*
X010207Y013432D01*
X010187Y013423D01*
X010165Y013417D01*
X010143Y013415D01*
X010121Y013417D01*
X010099Y013423D01*
X010079Y013432D01*
X010061Y013445D01*
X010045Y013461D01*
X010032Y013479D01*
X010023Y013499D01*
X010017Y013521D01*
X010015Y013543D01*
X009210Y020905D02*
X011100Y020905D01*
X011100Y022204D01*
X009210Y022204D01*
X009210Y020905D01*
X009210Y022204D02*
X009210Y022401D01*
X011100Y022401D01*
X011100Y022204D01*
X019343Y031693D02*
X019570Y031693D01*
X019684Y031806D01*
X019930Y031693D02*
X020383Y031693D01*
X020157Y031693D02*
X020157Y032373D01*
X020383Y032147D01*
X020629Y032260D02*
X021083Y031806D01*
X020970Y031693D01*
X020743Y031693D01*
X020629Y031806D01*
X020629Y032260D01*
X020743Y032373D01*
X020970Y032373D01*
X021083Y032260D01*
X021083Y031806D01*
X021329Y031693D02*
X021783Y031693D01*
X021329Y032147D01*
X021329Y032260D01*
X021443Y032373D01*
X021670Y032373D01*
X021783Y032260D01*
X022023Y032147D02*
X022023Y031920D01*
X022249Y031693D01*
X022496Y031806D02*
X022609Y031693D01*
X022836Y031693D01*
X022949Y031806D01*
X022949Y032260D01*
X022836Y032373D01*
X022609Y032373D01*
X022496Y032260D01*
X022249Y032373D02*
X022023Y032147D01*
X023189Y032373D02*
X023416Y032147D01*
X023416Y031920D01*
X023189Y031693D01*
X024362Y031806D02*
X024362Y032033D01*
X024588Y032033D01*
X024362Y031806D02*
X024475Y031693D01*
X024702Y031693D01*
X024815Y031806D01*
X024815Y032260D01*
X024702Y032373D01*
X024475Y032373D01*
X024362Y032260D01*
X025061Y032373D02*
X025061Y031693D01*
X025515Y032373D01*
X025515Y031693D01*
X025751Y031693D02*
X025865Y031693D01*
X025865Y031806D01*
X025751Y031806D01*
X025751Y031693D01*
X026338Y031693D02*
X026338Y032373D01*
X026565Y032373D02*
X026111Y032373D01*
X019684Y032260D02*
X019570Y032373D01*
X019343Y032373D01*
X019230Y032260D01*
X019230Y032147D01*
X019343Y032033D01*
X019230Y031920D01*
X019230Y031806D01*
X019343Y031693D01*
X019343Y032033D02*
X019457Y032033D01*
D28*
X005155Y014165D02*
X005155Y014161D01*
D29*
X004655Y013913D02*
X004655Y013397D01*
X005659Y013397D01*
X005659Y013913D01*
X004655Y013913D01*
D30*
X029911Y008797D03*
D31*
X016952Y004280D02*
X016952Y004280D01*
X016563Y002073D02*
X016563Y002073D01*
X014642Y001623D02*
X014642Y001623D01*
M02*
