G75*
G70*
%OFA0B0*%
%FSLAX24Y24*%
%IPPOS*%
%LPD*%
%AMOC8*
5,1,8,0,0,1.08239X$1,22.5*
%
%ADD10C,0.0079*%
%ADD11C,0.0000*%
D10*
X008990Y012185D02*
X008990Y035095D01*
X035400Y035095D01*
X035400Y029095D01*
X048581Y029095D01*
X048581Y039437D01*
X051313Y039437D01*
X051313Y012185D01*
X008990Y012185D01*
X035990Y029685D02*
X047990Y029685D01*
X047990Y040028D01*
X048833Y040028D01*
X051313Y040028D01*
X051313Y040618D02*
X051313Y043681D01*
X049423Y043681D01*
X049423Y040618D01*
X051313Y040618D01*
X048833Y040028D02*
X048833Y043681D01*
X048242Y043681D02*
X048242Y040618D01*
X047400Y040618D01*
X047400Y030276D01*
X036581Y030276D01*
X036581Y036276D01*
X008990Y036276D01*
X008990Y043681D01*
X048242Y043681D01*
X035990Y035685D02*
X035990Y029685D01*
X035990Y035685D02*
X008990Y035685D01*
D11*
X014447Y032685D02*
X014449Y032711D01*
X014455Y032737D01*
X014465Y032762D01*
X014478Y032785D01*
X014494Y032805D01*
X014514Y032823D01*
X014536Y032838D01*
X014559Y032850D01*
X014585Y032858D01*
X014611Y032862D01*
X014637Y032862D01*
X014663Y032858D01*
X014689Y032850D01*
X014713Y032838D01*
X014734Y032823D01*
X014754Y032805D01*
X014770Y032785D01*
X014783Y032762D01*
X014793Y032737D01*
X014799Y032711D01*
X014801Y032685D01*
X014799Y032659D01*
X014793Y032633D01*
X014783Y032608D01*
X014770Y032585D01*
X014754Y032565D01*
X014734Y032547D01*
X014712Y032532D01*
X014689Y032520D01*
X014663Y032512D01*
X014637Y032508D01*
X014611Y032508D01*
X014585Y032512D01*
X014559Y032520D01*
X014535Y032532D01*
X014514Y032547D01*
X014494Y032565D01*
X014478Y032585D01*
X014465Y032608D01*
X014455Y032633D01*
X014449Y032659D01*
X014447Y032685D01*
X016179Y032685D02*
X016181Y032711D01*
X016187Y032737D01*
X016197Y032762D01*
X016210Y032785D01*
X016226Y032805D01*
X016246Y032823D01*
X016268Y032838D01*
X016291Y032850D01*
X016317Y032858D01*
X016343Y032862D01*
X016369Y032862D01*
X016395Y032858D01*
X016421Y032850D01*
X016445Y032838D01*
X016466Y032823D01*
X016486Y032805D01*
X016502Y032785D01*
X016515Y032762D01*
X016525Y032737D01*
X016531Y032711D01*
X016533Y032685D01*
X016531Y032659D01*
X016525Y032633D01*
X016515Y032608D01*
X016502Y032585D01*
X016486Y032565D01*
X016466Y032547D01*
X016444Y032532D01*
X016421Y032520D01*
X016395Y032512D01*
X016369Y032508D01*
X016343Y032508D01*
X016317Y032512D01*
X016291Y032520D01*
X016267Y032532D01*
X016246Y032547D01*
X016226Y032565D01*
X016210Y032585D01*
X016197Y032608D01*
X016187Y032633D01*
X016181Y032659D01*
X016179Y032685D01*
X020447Y032685D02*
X020449Y032711D01*
X020455Y032737D01*
X020465Y032762D01*
X020478Y032785D01*
X020494Y032805D01*
X020514Y032823D01*
X020536Y032838D01*
X020559Y032850D01*
X020585Y032858D01*
X020611Y032862D01*
X020637Y032862D01*
X020663Y032858D01*
X020689Y032850D01*
X020713Y032838D01*
X020734Y032823D01*
X020754Y032805D01*
X020770Y032785D01*
X020783Y032762D01*
X020793Y032737D01*
X020799Y032711D01*
X020801Y032685D01*
X020799Y032659D01*
X020793Y032633D01*
X020783Y032608D01*
X020770Y032585D01*
X020754Y032565D01*
X020734Y032547D01*
X020712Y032532D01*
X020689Y032520D01*
X020663Y032512D01*
X020637Y032508D01*
X020611Y032508D01*
X020585Y032512D01*
X020559Y032520D01*
X020535Y032532D01*
X020514Y032547D01*
X020494Y032565D01*
X020478Y032585D01*
X020465Y032608D01*
X020455Y032633D01*
X020449Y032659D01*
X020447Y032685D01*
X022179Y032685D02*
X022181Y032711D01*
X022187Y032737D01*
X022197Y032762D01*
X022210Y032785D01*
X022226Y032805D01*
X022246Y032823D01*
X022268Y032838D01*
X022291Y032850D01*
X022317Y032858D01*
X022343Y032862D01*
X022369Y032862D01*
X022395Y032858D01*
X022421Y032850D01*
X022445Y032838D01*
X022466Y032823D01*
X022486Y032805D01*
X022502Y032785D01*
X022515Y032762D01*
X022525Y032737D01*
X022531Y032711D01*
X022533Y032685D01*
X022531Y032659D01*
X022525Y032633D01*
X022515Y032608D01*
X022502Y032585D01*
X022486Y032565D01*
X022466Y032547D01*
X022444Y032532D01*
X022421Y032520D01*
X022395Y032512D01*
X022369Y032508D01*
X022343Y032508D01*
X022317Y032512D01*
X022291Y032520D01*
X022267Y032532D01*
X022246Y032547D01*
X022226Y032565D01*
X022210Y032585D01*
X022197Y032608D01*
X022187Y032633D01*
X022181Y032659D01*
X022179Y032685D01*
X021590Y016435D02*
X021592Y016485D01*
X021598Y016535D01*
X021608Y016585D01*
X021621Y016633D01*
X021638Y016681D01*
X021659Y016727D01*
X021683Y016771D01*
X021711Y016813D01*
X021742Y016853D01*
X021776Y016890D01*
X021813Y016925D01*
X021852Y016956D01*
X021893Y016985D01*
X021937Y017010D01*
X021983Y017032D01*
X022030Y017050D01*
X022078Y017064D01*
X022127Y017075D01*
X022177Y017082D01*
X022227Y017085D01*
X022278Y017084D01*
X022328Y017079D01*
X022378Y017070D01*
X022426Y017058D01*
X022474Y017041D01*
X022520Y017021D01*
X022565Y016998D01*
X022608Y016971D01*
X022648Y016941D01*
X022686Y016908D01*
X022721Y016872D01*
X022754Y016833D01*
X022783Y016792D01*
X022809Y016749D01*
X022832Y016704D01*
X022851Y016657D01*
X022866Y016609D01*
X022878Y016560D01*
X022886Y016510D01*
X022890Y016460D01*
X022890Y016410D01*
X022886Y016360D01*
X022878Y016310D01*
X022866Y016261D01*
X022851Y016213D01*
X022832Y016166D01*
X022809Y016121D01*
X022783Y016078D01*
X022754Y016037D01*
X022721Y015998D01*
X022686Y015962D01*
X022648Y015929D01*
X022608Y015899D01*
X022565Y015872D01*
X022520Y015849D01*
X022474Y015829D01*
X022426Y015812D01*
X022378Y015800D01*
X022328Y015791D01*
X022278Y015786D01*
X022227Y015785D01*
X022177Y015788D01*
X022127Y015795D01*
X022078Y015806D01*
X022030Y015820D01*
X021983Y015838D01*
X021937Y015860D01*
X021893Y015885D01*
X021852Y015914D01*
X021813Y015945D01*
X021776Y015980D01*
X021742Y016017D01*
X021711Y016057D01*
X021683Y016099D01*
X021659Y016143D01*
X021638Y016189D01*
X021621Y016237D01*
X021608Y016285D01*
X021598Y016335D01*
X021592Y016385D01*
X021590Y016435D01*
X026090Y016435D02*
X026092Y016485D01*
X026098Y016535D01*
X026108Y016585D01*
X026121Y016633D01*
X026138Y016681D01*
X026159Y016727D01*
X026183Y016771D01*
X026211Y016813D01*
X026242Y016853D01*
X026276Y016890D01*
X026313Y016925D01*
X026352Y016956D01*
X026393Y016985D01*
X026437Y017010D01*
X026483Y017032D01*
X026530Y017050D01*
X026578Y017064D01*
X026627Y017075D01*
X026677Y017082D01*
X026727Y017085D01*
X026778Y017084D01*
X026828Y017079D01*
X026878Y017070D01*
X026926Y017058D01*
X026974Y017041D01*
X027020Y017021D01*
X027065Y016998D01*
X027108Y016971D01*
X027148Y016941D01*
X027186Y016908D01*
X027221Y016872D01*
X027254Y016833D01*
X027283Y016792D01*
X027309Y016749D01*
X027332Y016704D01*
X027351Y016657D01*
X027366Y016609D01*
X027378Y016560D01*
X027386Y016510D01*
X027390Y016460D01*
X027390Y016410D01*
X027386Y016360D01*
X027378Y016310D01*
X027366Y016261D01*
X027351Y016213D01*
X027332Y016166D01*
X027309Y016121D01*
X027283Y016078D01*
X027254Y016037D01*
X027221Y015998D01*
X027186Y015962D01*
X027148Y015929D01*
X027108Y015899D01*
X027065Y015872D01*
X027020Y015849D01*
X026974Y015829D01*
X026926Y015812D01*
X026878Y015800D01*
X026828Y015791D01*
X026778Y015786D01*
X026727Y015785D01*
X026677Y015788D01*
X026627Y015795D01*
X026578Y015806D01*
X026530Y015820D01*
X026483Y015838D01*
X026437Y015860D01*
X026393Y015885D01*
X026352Y015914D01*
X026313Y015945D01*
X026276Y015980D01*
X026242Y016017D01*
X026211Y016057D01*
X026183Y016099D01*
X026159Y016143D01*
X026138Y016189D01*
X026121Y016237D01*
X026108Y016285D01*
X026098Y016335D01*
X026092Y016385D01*
X026090Y016435D01*
X048971Y037854D02*
X048973Y037906D01*
X048979Y037958D01*
X048989Y038009D01*
X049002Y038059D01*
X049020Y038109D01*
X049041Y038156D01*
X049065Y038202D01*
X049094Y038246D01*
X049125Y038288D01*
X049159Y038327D01*
X049196Y038364D01*
X049236Y038397D01*
X049279Y038428D01*
X049323Y038455D01*
X049369Y038479D01*
X049418Y038499D01*
X049467Y038515D01*
X049518Y038528D01*
X049569Y038537D01*
X049621Y038542D01*
X049673Y038543D01*
X049725Y038540D01*
X049777Y038533D01*
X049828Y038522D01*
X049878Y038508D01*
X049927Y038489D01*
X049974Y038467D01*
X050019Y038442D01*
X050063Y038413D01*
X050104Y038381D01*
X050143Y038346D01*
X050178Y038308D01*
X050211Y038267D01*
X050241Y038225D01*
X050267Y038180D01*
X050290Y038133D01*
X050309Y038084D01*
X050325Y038034D01*
X050337Y037984D01*
X050345Y037932D01*
X050349Y037880D01*
X050349Y037828D01*
X050345Y037776D01*
X050337Y037724D01*
X050325Y037674D01*
X050309Y037624D01*
X050290Y037575D01*
X050267Y037528D01*
X050241Y037483D01*
X050211Y037441D01*
X050178Y037400D01*
X050143Y037362D01*
X050104Y037327D01*
X050063Y037295D01*
X050019Y037266D01*
X049974Y037241D01*
X049927Y037219D01*
X049878Y037200D01*
X049828Y037186D01*
X049777Y037175D01*
X049725Y037168D01*
X049673Y037165D01*
X049621Y037166D01*
X049569Y037171D01*
X049518Y037180D01*
X049467Y037193D01*
X049418Y037209D01*
X049369Y037229D01*
X049323Y037253D01*
X049279Y037280D01*
X049236Y037311D01*
X049196Y037344D01*
X049159Y037381D01*
X049125Y037420D01*
X049094Y037462D01*
X049065Y037506D01*
X049041Y037552D01*
X049020Y037599D01*
X049002Y037649D01*
X048989Y037699D01*
X048979Y037750D01*
X048973Y037802D01*
X048971Y037854D01*
M02*
