G75*
G70*
%OFA0B0*%
%FSLAX24Y24*%
%IPPOS*%
%LPD*%
%AMOC8*
5,1,8,0,0,1.08239X$1,22.5*
%
%ADD10C,0.0060*%
%ADD11R,0.0050X0.0700*%
%ADD12R,0.0050X0.1100*%
%ADD13R,0.0050X0.0500*%
%ADD14R,0.0050X0.0600*%
%ADD15R,0.0050X0.1400*%
%ADD16R,0.0050X0.1600*%
%ADD17R,0.0050X0.1800*%
%ADD18R,0.0050X0.0400*%
%ADD19R,0.0050X0.0200*%
%ADD20R,0.0050X0.0100*%
%ADD21R,0.0050X0.0300*%
%ADD22R,0.0050X0.0800*%
%ADD23R,0.0050X0.0450*%
%ADD24R,0.0050X0.0550*%
%ADD25R,0.0050X0.1700*%
%ADD26C,0.0050*%
%ADD27C,0.0100*%
%ADD28C,0.0080*%
%ADD29C,0.0224*%
%ADD30C,0.0040*%
%ADD31R,0.0300X0.0300*%
D10*
X015910Y012518D02*
X016411Y012518D01*
X016411Y012769D01*
X016327Y012852D01*
X016160Y012852D01*
X016077Y012769D01*
X016077Y012518D01*
X016077Y012685D02*
X015910Y012852D01*
X015994Y013034D02*
X015910Y013117D01*
X015910Y013284D01*
X015994Y013368D01*
X016160Y013368D01*
X016244Y013284D01*
X016244Y013201D01*
X016160Y013034D01*
X016411Y013034D01*
X016411Y013368D01*
X016411Y013550D02*
X016411Y013883D01*
X016327Y013883D01*
X015994Y013550D01*
X015910Y013550D01*
X016910Y013633D02*
X016994Y013550D01*
X017077Y013550D01*
X017160Y013633D01*
X017160Y013800D01*
X017077Y013883D01*
X016994Y013883D01*
X016910Y013800D01*
X016910Y013633D01*
X017160Y013633D02*
X017244Y013550D01*
X017327Y013550D01*
X017411Y013633D01*
X017411Y013800D01*
X017327Y013883D01*
X017244Y013883D01*
X017160Y013800D01*
X017160Y013368D02*
X016994Y013368D01*
X016910Y013284D01*
X016910Y013117D01*
X016994Y013034D01*
X017160Y013034D02*
X017244Y013201D01*
X017244Y013284D01*
X017160Y013368D01*
X017411Y013368D02*
X017411Y013034D01*
X017160Y013034D01*
X017160Y012852D02*
X017077Y012769D01*
X017077Y012518D01*
X016910Y012518D02*
X017411Y012518D01*
X017411Y012769D01*
X017327Y012852D01*
X017160Y012852D01*
X017077Y012685D02*
X016910Y012852D01*
X017910Y012852D02*
X018077Y012685D01*
X018077Y012769D02*
X018077Y012518D01*
X017910Y012518D02*
X018411Y012518D01*
X018411Y012769D01*
X018327Y012852D01*
X018160Y012852D01*
X018077Y012769D01*
X017994Y013034D02*
X017910Y013117D01*
X017910Y013284D01*
X017994Y013368D01*
X018160Y013368D01*
X018244Y013284D01*
X018244Y013201D01*
X018160Y013034D01*
X018411Y013034D01*
X018411Y013368D01*
X018327Y013550D02*
X018244Y013550D01*
X018160Y013633D01*
X018160Y013883D01*
X017994Y013883D02*
X018327Y013883D01*
X018411Y013800D01*
X018411Y013633D01*
X018327Y013550D01*
X017994Y013550D02*
X017910Y013633D01*
X017910Y013800D01*
X017994Y013883D01*
X019060Y014518D02*
X019561Y014518D01*
X019561Y014769D01*
X019477Y014852D01*
X019310Y014852D01*
X019227Y014769D01*
X019227Y014518D01*
X019227Y014685D02*
X019060Y014852D01*
X019144Y015034D02*
X019060Y015117D01*
X019060Y015284D01*
X019144Y015368D01*
X019310Y015368D01*
X019394Y015284D01*
X019394Y015201D01*
X019310Y015034D01*
X019561Y015034D01*
X019561Y015368D01*
X019394Y015550D02*
X019561Y015716D01*
X019060Y015716D01*
X019060Y015550D02*
X019060Y015883D01*
X019960Y015800D02*
X019960Y015633D01*
X020044Y015550D01*
X020210Y015550D02*
X020294Y015716D01*
X020294Y015800D01*
X020210Y015883D01*
X020044Y015883D01*
X019960Y015800D01*
X020210Y015550D02*
X020461Y015550D01*
X020461Y015883D01*
X020377Y015368D02*
X020461Y015284D01*
X020461Y015117D01*
X020377Y015034D01*
X020377Y014852D02*
X020210Y014852D01*
X020127Y014769D01*
X020127Y014518D01*
X019960Y014518D02*
X020461Y014518D01*
X020461Y014769D01*
X020377Y014852D01*
X020127Y014685D02*
X019960Y014852D01*
X019960Y015034D02*
X020294Y015368D01*
X020377Y015368D01*
X019960Y015368D02*
X019960Y015034D01*
X022760Y014283D02*
X022760Y013950D01*
X023094Y014283D01*
X023177Y014283D01*
X023261Y014200D01*
X023261Y014033D01*
X023177Y013950D01*
X023261Y013768D02*
X023261Y013434D01*
X023010Y013434D01*
X023094Y013601D01*
X023094Y013684D01*
X023010Y013768D01*
X022844Y013768D01*
X022760Y013684D01*
X022760Y013517D01*
X022844Y013434D01*
X022760Y013252D02*
X022927Y013085D01*
X022927Y013169D02*
X022927Y012918D01*
X022760Y012918D02*
X023261Y012918D01*
X023261Y013169D01*
X023177Y013252D01*
X023010Y013252D01*
X022927Y013169D01*
X024354Y015315D02*
X024270Y015399D01*
X024270Y015565D01*
X024354Y015649D01*
X024270Y015831D02*
X024270Y016164D01*
X024270Y015998D02*
X024771Y015998D01*
X024604Y015831D01*
X024687Y015649D02*
X024771Y015565D01*
X024771Y015399D01*
X024687Y015315D01*
X024354Y015315D01*
X024270Y016346D02*
X024270Y016680D01*
X024270Y016513D02*
X024771Y016513D01*
X024604Y016346D01*
X026560Y014200D02*
X027061Y014200D01*
X026810Y013950D01*
X026810Y014283D01*
X026810Y013768D02*
X026644Y013768D01*
X026560Y013684D01*
X026560Y013517D01*
X026644Y013434D01*
X026810Y013434D02*
X026894Y013601D01*
X026894Y013684D01*
X026810Y013768D01*
X027061Y013768D02*
X027061Y013434D01*
X026810Y013434D01*
X026810Y013252D02*
X026727Y013169D01*
X026727Y012918D01*
X026560Y012918D02*
X027061Y012918D01*
X027061Y013169D01*
X026977Y013252D01*
X026810Y013252D01*
X026727Y013085D02*
X026560Y013252D01*
X027754Y015315D02*
X027670Y015399D01*
X027670Y015565D01*
X027754Y015649D01*
X027670Y015831D02*
X027670Y016164D01*
X027670Y015998D02*
X028171Y015998D01*
X028004Y015831D01*
X028087Y015649D02*
X028171Y015565D01*
X028171Y015399D01*
X028087Y015315D01*
X027754Y015315D01*
X027754Y016346D02*
X028087Y016680D01*
X027754Y016680D01*
X027670Y016597D01*
X027670Y016430D01*
X027754Y016346D01*
X028087Y016346D01*
X028171Y016430D01*
X028171Y016597D01*
X028087Y016680D01*
X030044Y018765D02*
X030211Y018765D01*
X030295Y018849D01*
X030295Y018932D01*
X030211Y019015D01*
X030044Y019015D01*
X029961Y018932D01*
X029961Y018849D01*
X030044Y018765D01*
X030044Y019015D02*
X029961Y019099D01*
X029961Y019182D01*
X030044Y019266D01*
X030211Y019266D01*
X030295Y019182D01*
X030295Y019099D01*
X030211Y019015D01*
X030477Y018849D02*
X030560Y018765D01*
X030727Y018765D01*
X030810Y018849D01*
X030810Y019182D01*
X030727Y019266D01*
X030560Y019266D01*
X030477Y019182D01*
X032460Y018800D02*
X032544Y018883D01*
X032877Y018883D01*
X032961Y018800D01*
X032961Y018633D01*
X032877Y018550D01*
X032794Y018550D01*
X032710Y018633D01*
X032710Y018883D01*
X032460Y018800D02*
X032460Y018633D01*
X032544Y018550D01*
X032460Y018368D02*
X032627Y018201D01*
X032627Y018284D02*
X032627Y018034D01*
X032460Y018034D02*
X032961Y018034D01*
X032961Y018284D01*
X032877Y018368D01*
X032710Y018368D01*
X032627Y018284D01*
X035961Y019182D02*
X036295Y018849D01*
X036295Y018765D01*
X036477Y018849D02*
X036560Y018765D01*
X036727Y018765D01*
X036810Y018849D01*
X036810Y019182D01*
X036727Y019266D01*
X036560Y019266D01*
X036477Y019182D01*
X036295Y019266D02*
X035961Y019266D01*
X035961Y019182D01*
X026221Y020365D02*
X026221Y020615D01*
X026137Y020699D01*
X025970Y020699D01*
X025887Y020615D01*
X025887Y020365D01*
X025720Y020365D02*
X026221Y020365D01*
X025887Y020532D02*
X025720Y020699D01*
X025970Y020881D02*
X025970Y021214D01*
X025970Y021396D02*
X026054Y021563D01*
X026054Y021647D01*
X025970Y021730D01*
X025804Y021730D01*
X025720Y021647D01*
X025720Y021480D01*
X025804Y021396D01*
X025970Y021396D02*
X026221Y021396D01*
X026221Y021730D01*
X026221Y021131D02*
X025720Y021131D01*
X025970Y020881D02*
X026221Y021131D01*
X025321Y021131D02*
X025070Y020881D01*
X025070Y021214D01*
X025070Y021396D02*
X025070Y021730D01*
X024820Y021647D02*
X025321Y021647D01*
X025070Y021396D01*
X024820Y021131D02*
X025321Y021131D01*
X025237Y020699D02*
X025070Y020699D01*
X024987Y020615D01*
X024987Y020365D01*
X024820Y020365D02*
X025321Y020365D01*
X025321Y020615D01*
X025237Y020699D01*
X024987Y020532D02*
X024820Y020699D01*
X024371Y020615D02*
X024371Y020365D01*
X023870Y020365D01*
X024037Y020365D02*
X024037Y020615D01*
X024120Y020699D01*
X024287Y020699D01*
X024371Y020615D01*
X024037Y020532D02*
X023870Y020699D01*
X024120Y020881D02*
X024120Y021214D01*
X023954Y021396D02*
X023870Y021480D01*
X023870Y021647D01*
X023954Y021730D01*
X024037Y021730D01*
X024120Y021647D01*
X024120Y021563D01*
X024120Y021647D02*
X024204Y021730D01*
X024287Y021730D01*
X024371Y021647D01*
X024371Y021480D01*
X024287Y021396D01*
X024371Y021131D02*
X024120Y020881D01*
X023870Y021131D02*
X024371Y021131D01*
X023321Y021131D02*
X023070Y020881D01*
X023070Y021214D01*
X023237Y021396D02*
X023321Y021480D01*
X023321Y021647D01*
X023237Y021730D01*
X023154Y021730D01*
X022820Y021396D01*
X022820Y021730D01*
X022820Y021131D02*
X023321Y021131D01*
X023237Y020699D02*
X023070Y020699D01*
X022987Y020615D01*
X022987Y020365D01*
X022820Y020365D02*
X023321Y020365D01*
X023321Y020615D01*
X023237Y020699D01*
X022987Y020532D02*
X022820Y020699D01*
X022107Y019306D02*
X021857Y019306D01*
X021774Y019222D01*
X021774Y019055D01*
X021857Y018972D01*
X022107Y018972D01*
X021940Y018972D02*
X021774Y018805D01*
X021591Y018889D02*
X021508Y018805D01*
X021341Y018805D01*
X021258Y018889D01*
X021258Y019055D01*
X021341Y019139D01*
X021425Y019139D01*
X021591Y019055D01*
X021591Y019306D01*
X021258Y019306D01*
X021076Y019222D02*
X021076Y018889D01*
X020742Y019222D01*
X020742Y018889D01*
X020826Y018805D01*
X020992Y018805D01*
X021076Y018889D01*
X021076Y019222D02*
X020992Y019306D01*
X020826Y019306D01*
X020742Y019222D01*
X022107Y019306D02*
X022107Y018805D01*
X018771Y022415D02*
X018270Y022415D01*
X018437Y022415D02*
X018437Y022665D01*
X018520Y022749D01*
X018687Y022749D01*
X018771Y022665D01*
X018771Y022415D01*
X018437Y022582D02*
X018270Y022749D01*
X018354Y022931D02*
X018270Y023014D01*
X018270Y023181D01*
X018354Y023264D01*
X018520Y023264D01*
X018604Y023181D01*
X018604Y023098D01*
X018520Y022931D01*
X018771Y022931D01*
X018771Y023264D01*
X018771Y023446D02*
X018520Y023446D01*
X018604Y023613D01*
X018604Y023697D01*
X018520Y023780D01*
X018354Y023780D01*
X018270Y023697D01*
X018270Y023530D01*
X018354Y023446D01*
X018771Y023446D02*
X018771Y023780D01*
X017671Y023613D02*
X017170Y023613D01*
X017170Y023446D02*
X017170Y023780D01*
X017504Y023446D02*
X017671Y023613D01*
X017671Y023264D02*
X017587Y023098D01*
X017420Y022931D01*
X017420Y023181D01*
X017337Y023264D01*
X017254Y023264D01*
X017170Y023181D01*
X017170Y023014D01*
X017254Y022931D01*
X017420Y022931D01*
X017420Y022749D02*
X017337Y022665D01*
X017337Y022415D01*
X017170Y022415D02*
X017671Y022415D01*
X017671Y022665D01*
X017587Y022749D01*
X017420Y022749D01*
X017337Y022582D02*
X017170Y022749D01*
X016242Y021870D02*
X015742Y021870D01*
X015742Y022036D02*
X015742Y021703D01*
X015825Y021521D02*
X015742Y021437D01*
X015742Y021271D01*
X015825Y021187D01*
X016159Y021187D01*
X016242Y021271D01*
X016242Y021437D01*
X016159Y021521D01*
X016075Y021703D02*
X016242Y021870D01*
X016242Y021010D02*
X016242Y020844D01*
X016242Y020927D02*
X015742Y020927D01*
X015742Y020844D02*
X015742Y021010D01*
X013671Y019963D02*
X013170Y019963D01*
X013170Y019796D02*
X013170Y020130D01*
X013504Y019796D02*
X013671Y019963D01*
X013671Y019614D02*
X013170Y019614D01*
X013671Y019281D01*
X013170Y019281D01*
X013170Y019099D02*
X013337Y018932D01*
X013337Y019015D02*
X013337Y018765D01*
X013170Y018765D02*
X013671Y018765D01*
X013671Y019015D01*
X013587Y019099D01*
X013420Y019099D01*
X013337Y019015D01*
X013260Y017416D02*
X013010Y017416D01*
X012927Y017332D01*
X012927Y017165D01*
X013010Y017082D01*
X013260Y017082D01*
X013093Y017082D02*
X012927Y016915D01*
X012745Y016999D02*
X012661Y016915D01*
X012494Y016915D01*
X012411Y016999D01*
X012411Y017082D01*
X012494Y017165D01*
X012745Y017165D01*
X012745Y016999D01*
X012745Y017165D02*
X012578Y017332D01*
X012411Y017416D01*
X012229Y017332D02*
X012146Y017416D01*
X011979Y017416D01*
X011895Y017332D01*
X012229Y016999D01*
X012146Y016915D01*
X011979Y016915D01*
X011895Y016999D01*
X011895Y017332D01*
X012229Y017332D02*
X012229Y016999D01*
X013260Y016915D02*
X013260Y017416D01*
X013142Y013556D02*
X013226Y013472D01*
X013142Y013556D02*
X012976Y013556D01*
X012892Y013472D01*
X012892Y013389D01*
X013226Y013055D01*
X012892Y013055D01*
X013408Y013139D02*
X013491Y013055D01*
X013658Y013055D01*
X013741Y013139D01*
X013924Y013055D02*
X014090Y013222D01*
X014007Y013222D02*
X014257Y013222D01*
X014257Y013055D02*
X014257Y013556D01*
X014007Y013556D01*
X013924Y013472D01*
X013924Y013305D01*
X014007Y013222D01*
X013741Y013472D02*
X013658Y013556D01*
X013491Y013556D01*
X013408Y013472D01*
X013408Y013389D01*
X013491Y013305D01*
X013408Y013222D01*
X013408Y013139D01*
X013491Y013305D02*
X013575Y013305D01*
X011844Y013482D02*
X011844Y032982D01*
X011842Y033012D01*
X011837Y033042D01*
X011828Y033071D01*
X011815Y033098D01*
X011800Y033124D01*
X011781Y033148D01*
X011760Y033169D01*
X011736Y033188D01*
X011710Y033203D01*
X011683Y033216D01*
X011654Y033225D01*
X011624Y033230D01*
X011594Y033232D01*
X009694Y033232D01*
X009664Y033230D01*
X009634Y033225D01*
X009605Y033216D01*
X009578Y033203D01*
X009552Y033188D01*
X009528Y033169D01*
X009507Y033148D01*
X009488Y033124D01*
X009473Y033098D01*
X009460Y033071D01*
X009451Y033042D01*
X009446Y033012D01*
X009444Y032982D01*
X009444Y013482D01*
X009446Y013452D01*
X009451Y013422D01*
X009460Y013393D01*
X009473Y013366D01*
X009488Y013340D01*
X009507Y013316D01*
X009528Y013295D01*
X009552Y013276D01*
X009578Y013261D01*
X009605Y013248D01*
X009634Y013239D01*
X009664Y013234D01*
X009694Y013232D01*
X011594Y013232D01*
X011624Y013234D01*
X011654Y013239D01*
X011683Y013248D01*
X011710Y013261D01*
X011736Y013276D01*
X011760Y013295D01*
X011781Y013316D01*
X011800Y013340D01*
X011815Y013366D01*
X011828Y013393D01*
X011837Y013422D01*
X011842Y013452D01*
X011844Y013482D01*
X012770Y022265D02*
X013271Y022265D01*
X013271Y022515D01*
X013187Y022599D01*
X013020Y022599D01*
X012937Y022515D01*
X012937Y022265D01*
X012937Y022432D02*
X012770Y022599D01*
X012770Y022781D02*
X013271Y022781D01*
X012770Y023114D01*
X013271Y023114D01*
X013187Y023296D02*
X013271Y023380D01*
X013271Y023547D01*
X013187Y023630D01*
X013104Y023630D01*
X012770Y023296D01*
X012770Y023630D01*
X014819Y026655D02*
X015152Y026655D01*
X014819Y026989D01*
X014819Y027072D01*
X014902Y027156D01*
X015069Y027156D01*
X015152Y027072D01*
X015334Y027072D02*
X015418Y027156D01*
X015585Y027156D01*
X015668Y027072D01*
X015668Y026739D01*
X015585Y026655D01*
X015418Y026655D01*
X015334Y026739D01*
X015845Y026655D02*
X016012Y026655D01*
X015928Y026655D02*
X015928Y027156D01*
X015845Y027156D02*
X016012Y027156D01*
X023942Y033455D02*
X024276Y033455D01*
X024109Y033455D02*
X024109Y033956D01*
X024276Y033789D01*
X024458Y033956D02*
X024792Y033956D01*
X024792Y033455D01*
X024458Y033455D01*
X024625Y033705D02*
X024792Y033705D01*
X024974Y033539D02*
X025057Y033455D01*
X025224Y033455D01*
X025307Y033539D01*
X025307Y033872D01*
X025224Y033956D01*
X025057Y033956D01*
X024974Y033872D01*
X025484Y033956D02*
X025651Y033956D01*
X025568Y033956D02*
X025568Y033455D01*
X025651Y033455D02*
X025484Y033455D01*
X025833Y033622D02*
X025833Y033956D01*
X026167Y033956D02*
X026167Y033622D01*
X026000Y033455D01*
X025833Y033622D01*
X026349Y033455D02*
X026682Y033455D01*
X026682Y033956D01*
X026349Y033956D01*
X026515Y033705D02*
X026682Y033705D01*
X026864Y033539D02*
X026864Y033872D01*
X026948Y033956D01*
X027198Y033956D01*
X027198Y033455D01*
X026948Y033455D01*
X026864Y033539D01*
X027870Y031430D02*
X027870Y031096D01*
X027870Y031263D02*
X028371Y031263D01*
X028204Y031096D01*
X028120Y030914D02*
X028120Y030581D01*
X028371Y030831D01*
X027870Y030831D01*
X027870Y030399D02*
X028037Y030232D01*
X028037Y030315D02*
X028037Y030065D01*
X027870Y030065D02*
X028371Y030065D01*
X028371Y030315D01*
X028287Y030399D01*
X028120Y030399D01*
X028037Y030315D01*
X028820Y030399D02*
X028987Y030232D01*
X028987Y030315D02*
X028987Y030065D01*
X028820Y030065D02*
X029321Y030065D01*
X029321Y030315D01*
X029237Y030399D01*
X029070Y030399D01*
X028987Y030315D01*
X029070Y030581D02*
X029070Y030914D01*
X028904Y031096D02*
X029237Y031430D01*
X028904Y031430D01*
X028820Y031347D01*
X028820Y031180D01*
X028904Y031096D01*
X029237Y031096D01*
X029321Y031180D01*
X029321Y031347D01*
X029237Y031430D01*
X029770Y031347D02*
X029770Y031180D01*
X029854Y031096D01*
X029937Y031096D01*
X030020Y031180D01*
X030020Y031347D01*
X029937Y031430D01*
X029854Y031430D01*
X029770Y031347D01*
X030020Y031347D02*
X030104Y031430D01*
X030187Y031430D01*
X030271Y031347D01*
X030271Y031180D01*
X030187Y031096D01*
X030104Y031096D01*
X030020Y031180D01*
X029937Y030914D02*
X029854Y030914D01*
X029770Y030831D01*
X029770Y030664D01*
X029854Y030581D01*
X029770Y030399D02*
X029937Y030232D01*
X029937Y030315D02*
X029937Y030065D01*
X029770Y030065D02*
X030271Y030065D01*
X030271Y030315D01*
X030187Y030399D01*
X030020Y030399D01*
X029937Y030315D01*
X030187Y030581D02*
X030271Y030664D01*
X030271Y030831D01*
X030187Y030914D01*
X030104Y030914D01*
X030020Y030831D01*
X029937Y030914D01*
X030020Y030831D02*
X030020Y030748D01*
X029321Y030831D02*
X029070Y030581D01*
X028820Y030831D02*
X029321Y030831D01*
X030770Y030831D02*
X030770Y030664D01*
X030854Y030581D01*
X030770Y030399D02*
X030937Y030232D01*
X030937Y030315D02*
X030937Y030065D01*
X030770Y030065D02*
X031271Y030065D01*
X031271Y030315D01*
X031187Y030399D01*
X031020Y030399D01*
X030937Y030315D01*
X031187Y030581D02*
X031271Y030664D01*
X031271Y030831D01*
X031187Y030914D01*
X031104Y030914D01*
X031020Y030831D01*
X030937Y030914D01*
X030854Y030914D01*
X030770Y030831D01*
X031020Y030831D02*
X031020Y030748D01*
X030854Y031096D02*
X030770Y031096D01*
X030854Y031096D02*
X031187Y031430D01*
X031271Y031430D01*
X031271Y031096D01*
X031770Y030914D02*
X031770Y030581D01*
X032104Y030914D01*
X032187Y030914D01*
X032271Y030831D01*
X032271Y030664D01*
X032187Y030581D01*
X032187Y030399D02*
X032020Y030399D01*
X031937Y030315D01*
X031937Y030065D01*
X031770Y030065D02*
X032271Y030065D01*
X032271Y030315D01*
X032187Y030399D01*
X031937Y030232D02*
X031770Y030399D01*
X032020Y031096D02*
X032020Y031430D01*
X031770Y031347D02*
X032271Y031347D01*
X032020Y031096D01*
X032770Y031180D02*
X032770Y031347D01*
X032854Y031430D01*
X032937Y031430D01*
X033020Y031347D01*
X033020Y031263D01*
X033020Y031347D02*
X033104Y031430D01*
X033187Y031430D01*
X033271Y031347D01*
X033271Y031180D01*
X033187Y031096D01*
X033187Y030914D02*
X033271Y030831D01*
X033271Y030664D01*
X033187Y030581D01*
X033187Y030399D02*
X033020Y030399D01*
X032937Y030315D01*
X032937Y030065D01*
X032770Y030065D02*
X033271Y030065D01*
X033271Y030315D01*
X033187Y030399D01*
X032937Y030232D02*
X032770Y030399D01*
X032770Y030581D02*
X033104Y030914D01*
X033187Y030914D01*
X032854Y031096D02*
X032770Y031180D01*
X032770Y030914D02*
X032770Y030581D01*
X033820Y030581D02*
X034154Y030914D01*
X034237Y030914D01*
X034321Y030831D01*
X034321Y030664D01*
X034237Y030581D01*
X034237Y030399D02*
X034070Y030399D01*
X033987Y030315D01*
X033987Y030065D01*
X033820Y030065D02*
X034321Y030065D01*
X034321Y030315D01*
X034237Y030399D01*
X033987Y030232D02*
X033820Y030399D01*
X033820Y030581D02*
X033820Y030914D01*
X033820Y031096D02*
X034154Y031430D01*
X034237Y031430D01*
X034321Y031347D01*
X034321Y031180D01*
X034237Y031096D01*
X033820Y031096D02*
X033820Y031430D01*
X040660Y031434D02*
X040660Y031267D01*
X040744Y031184D01*
X040744Y031002D02*
X040660Y030919D01*
X040660Y030752D01*
X040744Y030668D01*
X041077Y030668D01*
X041161Y030752D01*
X041161Y030919D01*
X041077Y031002D01*
X041077Y031184D02*
X041161Y031267D01*
X041161Y031434D01*
X041077Y031518D01*
X040994Y031518D01*
X040910Y031434D01*
X040827Y031518D01*
X040744Y031518D01*
X040660Y031434D01*
X040910Y031434D02*
X040910Y031351D01*
X040910Y031700D02*
X040910Y031950D01*
X040827Y032033D01*
X040744Y032033D01*
X040660Y031950D01*
X040660Y031783D01*
X040744Y031700D01*
X040910Y031700D01*
X041077Y031866D01*
X041161Y032033D01*
X041360Y031950D02*
X041360Y031783D01*
X041444Y031700D01*
X041610Y031700D02*
X041694Y031866D01*
X041694Y031950D01*
X041610Y032033D01*
X041444Y032033D01*
X041360Y031950D01*
X041610Y031700D02*
X041861Y031700D01*
X041861Y032033D01*
X041777Y031518D02*
X041694Y031518D01*
X041610Y031434D01*
X041527Y031518D01*
X041444Y031518D01*
X041360Y031434D01*
X041360Y031267D01*
X041444Y031184D01*
X041444Y031002D02*
X041360Y030919D01*
X041360Y030752D01*
X041444Y030668D01*
X041777Y030668D01*
X041861Y030752D01*
X041861Y030919D01*
X041777Y031002D01*
X041777Y031184D02*
X041861Y031267D01*
X041861Y031434D01*
X041777Y031518D01*
X041610Y031434D02*
X041610Y031351D01*
X042710Y031434D02*
X042710Y031267D01*
X042794Y031184D01*
X042794Y031002D02*
X042710Y030919D01*
X042710Y030752D01*
X042794Y030668D01*
X043127Y030668D01*
X043211Y030752D01*
X043211Y030919D01*
X043127Y031002D01*
X043127Y031184D02*
X043211Y031267D01*
X043211Y031434D01*
X043127Y031518D01*
X043044Y031518D01*
X042960Y031434D01*
X042877Y031518D01*
X042794Y031518D01*
X042710Y031434D01*
X042960Y031434D02*
X042960Y031351D01*
X042794Y031700D02*
X043127Y032033D01*
X043211Y032033D01*
X043211Y031700D01*
X042794Y031700D02*
X042710Y031700D01*
X041891Y036140D02*
X041725Y036140D01*
X041808Y036140D02*
X041808Y036640D01*
X041891Y036640D02*
X041725Y036640D01*
X041548Y036557D02*
X041548Y036223D01*
X041464Y036140D01*
X041297Y036140D01*
X041214Y036223D01*
X041032Y036140D02*
X040698Y036140D01*
X040865Y036140D02*
X040865Y036640D01*
X041032Y036474D01*
X041214Y036557D02*
X041297Y036640D01*
X041464Y036640D01*
X041548Y036557D01*
X040516Y036557D02*
X040516Y036223D01*
X040183Y036557D01*
X040183Y036223D01*
X040266Y036140D01*
X040433Y036140D01*
X040516Y036223D01*
X040516Y036557D02*
X040433Y036640D01*
X040266Y036640D01*
X040183Y036557D01*
X040187Y038415D02*
X039854Y038415D01*
X039770Y038499D01*
X039770Y038665D01*
X039854Y038749D01*
X039854Y038931D02*
X039770Y039014D01*
X039770Y039181D01*
X039854Y039264D01*
X039937Y039264D01*
X040020Y039181D01*
X040020Y039098D01*
X040020Y039181D02*
X040104Y039264D01*
X040187Y039264D01*
X040271Y039181D01*
X040271Y039014D01*
X040187Y038931D01*
X040187Y038749D02*
X040271Y038665D01*
X040271Y038499D01*
X040187Y038415D01*
X039621Y038499D02*
X039537Y038415D01*
X039204Y038415D01*
X039120Y038499D01*
X039120Y038665D01*
X039204Y038749D01*
X039204Y038931D02*
X039120Y039014D01*
X039120Y039181D01*
X039204Y039264D01*
X039287Y039264D01*
X039370Y039181D01*
X039370Y039098D01*
X039370Y039181D02*
X039454Y039264D01*
X039537Y039264D01*
X039621Y039181D01*
X039621Y039014D01*
X039537Y038931D01*
X039537Y038749D02*
X039621Y038665D01*
X039621Y038499D01*
X038971Y038499D02*
X038887Y038415D01*
X038554Y038415D01*
X038470Y038499D01*
X038470Y038665D01*
X038554Y038749D01*
X038554Y038931D02*
X038470Y039014D01*
X038470Y039181D01*
X038554Y039264D01*
X038637Y039264D01*
X038720Y039181D01*
X038720Y039098D01*
X038720Y039181D02*
X038804Y039264D01*
X038887Y039264D01*
X038971Y039181D01*
X038971Y039014D01*
X038887Y038931D01*
X038887Y038749D02*
X038971Y038665D01*
X038971Y038499D01*
X038887Y039446D02*
X038804Y039446D01*
X038720Y039530D01*
X038720Y039697D01*
X038637Y039780D01*
X038554Y039780D01*
X038470Y039697D01*
X038470Y039530D01*
X038554Y039446D01*
X038637Y039446D01*
X038720Y039530D01*
X038720Y039697D02*
X038804Y039780D01*
X038887Y039780D01*
X038971Y039697D01*
X038971Y039530D01*
X038887Y039446D01*
X039120Y039530D02*
X039204Y039446D01*
X039120Y039530D02*
X039120Y039697D01*
X039204Y039780D01*
X039537Y039780D01*
X039621Y039697D01*
X039621Y039530D01*
X039537Y039446D01*
X039454Y039446D01*
X039370Y039530D01*
X039370Y039780D01*
X039770Y039780D02*
X039770Y039446D01*
X040104Y039780D01*
X040187Y039780D01*
X040271Y039697D01*
X040271Y039530D01*
X040187Y039446D01*
X041170Y039530D02*
X041254Y039446D01*
X041587Y039780D01*
X041254Y039780D01*
X041170Y039697D01*
X041170Y039530D01*
X041254Y039446D02*
X041587Y039446D01*
X041671Y039530D01*
X041671Y039697D01*
X041587Y039780D01*
X041820Y039697D02*
X041820Y039530D01*
X041904Y039446D01*
X041904Y039264D02*
X041987Y039264D01*
X042070Y039181D01*
X042070Y038931D01*
X041904Y038931D01*
X041820Y039014D01*
X041820Y039181D01*
X041904Y039264D01*
X041671Y039181D02*
X041420Y038931D01*
X041420Y039264D01*
X041170Y039181D02*
X041671Y039181D01*
X041587Y038749D02*
X041671Y038665D01*
X041671Y038499D01*
X041587Y038415D01*
X041254Y038415D01*
X041170Y038499D01*
X041170Y038665D01*
X041254Y038749D01*
X041820Y038749D02*
X041987Y038582D01*
X041987Y038665D02*
X041987Y038415D01*
X041820Y038415D02*
X042321Y038415D01*
X042321Y038665D01*
X042237Y038749D01*
X042070Y038749D01*
X041987Y038665D01*
X042070Y038931D02*
X042237Y039098D01*
X042321Y039264D01*
X042237Y039446D02*
X042321Y039530D01*
X042321Y039697D01*
X042237Y039780D01*
X042154Y039780D01*
X042070Y039697D01*
X041987Y039780D01*
X041904Y039780D01*
X041820Y039697D01*
X042070Y039697D02*
X042070Y039613D01*
X043428Y039316D02*
X043428Y038815D01*
X043595Y038815D02*
X043261Y038815D01*
X043595Y039149D02*
X043428Y039316D01*
X043777Y038815D02*
X044110Y038815D01*
X044110Y039316D01*
X044292Y039149D02*
X044292Y038815D01*
X044292Y039065D02*
X044626Y039065D01*
X044626Y039149D02*
X044459Y039316D01*
X044292Y039149D01*
X044626Y039149D02*
X044626Y038815D01*
X044975Y038815D02*
X044975Y039316D01*
X045141Y039316D02*
X044808Y039316D01*
X045318Y039316D02*
X045485Y039316D01*
X045402Y039316D02*
X045402Y038815D01*
X045485Y038815D02*
X045318Y038815D01*
X045667Y038899D02*
X045667Y039065D01*
X045834Y039065D01*
X045667Y038899D02*
X045751Y038815D01*
X045917Y038815D01*
X046001Y038899D01*
X046001Y039232D01*
X045917Y039316D01*
X045751Y039316D01*
X045667Y039232D01*
X046178Y039316D02*
X046345Y039316D01*
X046261Y039316D02*
X046261Y038815D01*
X046178Y038815D02*
X046345Y038815D01*
X046527Y038899D02*
X046527Y039232D01*
X046610Y039316D01*
X046860Y039316D01*
X046860Y038815D01*
X046610Y038815D01*
X046527Y038899D01*
X045257Y040155D02*
X045257Y040656D01*
X045007Y040656D01*
X044924Y040572D01*
X044924Y040405D01*
X045007Y040322D01*
X045257Y040322D01*
X045090Y040322D02*
X044924Y040155D01*
X044741Y040239D02*
X044658Y040155D01*
X044491Y040155D01*
X044408Y040239D01*
X044408Y040322D01*
X044491Y040405D01*
X044741Y040405D01*
X044741Y040239D01*
X044741Y040405D02*
X044575Y040572D01*
X044408Y040656D01*
X044491Y040805D02*
X044408Y040889D01*
X044408Y040972D01*
X044491Y041055D01*
X044741Y041055D01*
X044741Y040889D01*
X044658Y040805D01*
X044491Y040805D01*
X044226Y040656D02*
X043892Y040656D01*
X043892Y040572D01*
X044226Y040239D01*
X044226Y040155D01*
X043976Y040805D02*
X043976Y041306D01*
X044226Y041055D01*
X043892Y041055D01*
X044408Y041306D02*
X044575Y041222D01*
X044741Y041055D01*
X044924Y041055D02*
X045007Y040972D01*
X045257Y040972D01*
X045090Y040972D02*
X044924Y040805D01*
X044924Y041055D02*
X044924Y041222D01*
X045007Y041306D01*
X045257Y041306D01*
X045257Y040805D01*
X044924Y042155D02*
X045007Y042239D01*
X044924Y042155D02*
X044757Y042155D01*
X044674Y042239D01*
X044674Y042322D01*
X044757Y042405D01*
X044924Y042405D01*
X045007Y042489D01*
X045007Y042572D01*
X044924Y042656D01*
X044757Y042656D01*
X044674Y042572D01*
X044491Y042656D02*
X044491Y042322D01*
X044325Y042155D01*
X044158Y042322D01*
X044158Y042656D01*
X043976Y042405D02*
X043726Y042656D01*
X043726Y042155D01*
X043642Y042405D02*
X043976Y042405D01*
X043490Y042435D02*
X043490Y041935D01*
X043240Y041685D01*
X042740Y041685D01*
X042490Y041935D01*
X042240Y041685D01*
X041740Y041685D01*
X041490Y041935D01*
X041240Y041685D01*
X040740Y041685D01*
X040490Y041935D01*
X040240Y041685D01*
X039740Y041685D01*
X039490Y041935D01*
X039240Y041685D01*
X038740Y041685D01*
X038490Y041935D01*
X038240Y041685D01*
X037740Y041685D01*
X037490Y041935D01*
X037490Y042435D01*
X037740Y042685D01*
X038240Y042685D01*
X038490Y042435D01*
X038740Y042685D01*
X039240Y042685D01*
X039490Y042435D01*
X039740Y042685D01*
X040240Y042685D01*
X040490Y042435D01*
X040740Y042685D01*
X041240Y042685D01*
X041490Y042435D01*
X041740Y042685D01*
X042240Y042685D01*
X042490Y042435D01*
X042740Y042685D01*
X043240Y042685D01*
X043490Y042435D01*
X039110Y041466D02*
X039110Y040965D01*
X039110Y041132D02*
X038860Y041132D01*
X038777Y041215D01*
X038777Y041382D01*
X038860Y041466D01*
X039110Y041466D01*
X038943Y041132D02*
X038777Y040965D01*
X038595Y040965D02*
X038595Y041466D01*
X038261Y040965D01*
X038261Y041466D01*
X038079Y041215D02*
X037745Y041215D01*
X037829Y040965D02*
X037829Y041466D01*
X038079Y041215D01*
X037324Y039306D02*
X037157Y039306D01*
X037074Y039222D01*
X036891Y039306D02*
X036891Y039055D01*
X036725Y039139D01*
X036641Y039139D01*
X036558Y039055D01*
X036558Y038889D01*
X036641Y038805D01*
X036808Y038805D01*
X036891Y038889D01*
X037074Y038889D02*
X037157Y038805D01*
X037324Y038805D01*
X037407Y038889D01*
X037407Y039222D01*
X037324Y039306D01*
X036891Y039306D02*
X036558Y039306D01*
X036376Y039222D02*
X036292Y039306D01*
X036126Y039306D01*
X036042Y039222D01*
X036042Y039139D01*
X036126Y039055D01*
X036042Y038972D01*
X036042Y038889D01*
X036126Y038805D01*
X036292Y038805D01*
X036376Y038889D01*
X036209Y039055D02*
X036126Y039055D01*
X036209Y038656D02*
X036209Y038155D01*
X036376Y038155D02*
X036042Y038155D01*
X036126Y038006D02*
X036292Y038006D01*
X036376Y037922D01*
X036376Y037839D01*
X036292Y037755D01*
X036042Y037755D01*
X036042Y037589D02*
X036042Y037922D01*
X036126Y038006D01*
X036042Y037589D02*
X036126Y037505D01*
X036292Y037505D01*
X036376Y037589D01*
X036376Y037356D02*
X036042Y037356D01*
X036042Y037272D01*
X036376Y036939D01*
X036376Y036855D01*
X036641Y036855D02*
X036641Y037356D01*
X036891Y037105D01*
X036558Y037105D01*
X036641Y037505D02*
X036641Y038006D01*
X036891Y037755D01*
X036558Y037755D01*
X036641Y038155D02*
X036558Y038239D01*
X036558Y038405D01*
X036641Y038489D01*
X036725Y038489D01*
X036891Y038405D01*
X036891Y038656D01*
X036558Y038656D01*
X036376Y038489D02*
X036209Y038656D01*
X036641Y038155D02*
X036808Y038155D01*
X036891Y038239D01*
X037074Y038239D02*
X037157Y038155D01*
X037324Y038155D01*
X037407Y038239D01*
X037407Y038572D01*
X037324Y038656D01*
X037157Y038656D01*
X037074Y038572D01*
X037157Y038006D02*
X037324Y038006D01*
X037407Y037922D01*
X037407Y037589D01*
X037324Y037505D01*
X037157Y037505D01*
X037074Y037589D01*
X037157Y037356D02*
X037324Y037356D01*
X037407Y037272D01*
X037407Y036939D01*
X037324Y036855D01*
X037157Y036855D01*
X037074Y036939D01*
X037074Y037272D02*
X037157Y037356D01*
X037074Y037922D02*
X037157Y038006D01*
X034971Y037997D02*
X034971Y037830D01*
X034887Y037746D01*
X034971Y037564D02*
X034637Y037564D01*
X034470Y037398D01*
X034637Y037231D01*
X034971Y037231D01*
X034887Y037049D02*
X034971Y036965D01*
X034971Y036799D01*
X034887Y036715D01*
X034804Y036715D01*
X034720Y036799D01*
X034720Y036965D01*
X034637Y037049D01*
X034554Y037049D01*
X034470Y036965D01*
X034470Y036799D01*
X034554Y036715D01*
X033990Y036735D02*
X033990Y038635D01*
X033988Y038665D01*
X033983Y038695D01*
X033974Y038724D01*
X033961Y038751D01*
X033946Y038777D01*
X033927Y038801D01*
X033906Y038822D01*
X033882Y038841D01*
X033856Y038856D01*
X033829Y038869D01*
X033800Y038878D01*
X033770Y038883D01*
X033740Y038885D01*
X028240Y038885D01*
X028210Y038883D01*
X028180Y038878D01*
X028151Y038869D01*
X028124Y038856D01*
X028098Y038841D01*
X028074Y038822D01*
X028053Y038801D01*
X028034Y038777D01*
X028019Y038751D01*
X028006Y038724D01*
X027997Y038695D01*
X027992Y038665D01*
X027990Y038635D01*
X027990Y036735D01*
X027992Y036705D01*
X027997Y036675D01*
X028006Y036646D01*
X028019Y036619D01*
X028034Y036593D01*
X028053Y036569D01*
X028074Y036548D01*
X028098Y036529D01*
X028124Y036514D01*
X028151Y036501D01*
X028180Y036492D01*
X028210Y036487D01*
X028240Y036485D01*
X033740Y036485D01*
X033770Y036487D01*
X033800Y036492D01*
X033829Y036501D01*
X033856Y036514D01*
X033882Y036529D01*
X033906Y036548D01*
X033927Y036569D01*
X033946Y036593D01*
X033961Y036619D01*
X033974Y036646D01*
X033983Y036675D01*
X033988Y036705D01*
X033990Y036735D01*
X034554Y037746D02*
X034470Y037830D01*
X034470Y037997D01*
X034554Y038080D01*
X034637Y038080D01*
X034720Y037997D01*
X034720Y037913D01*
X034720Y037997D02*
X034804Y038080D01*
X034887Y038080D01*
X034971Y037997D01*
X031123Y039655D02*
X031123Y040156D01*
X030873Y040156D01*
X030789Y040072D01*
X030789Y039905D01*
X030873Y039822D01*
X031123Y039822D01*
X030956Y039822D02*
X030789Y039655D01*
X030607Y039655D02*
X030607Y040156D01*
X030274Y039655D01*
X030274Y040156D01*
X030092Y039989D02*
X029925Y040156D01*
X029925Y039655D01*
X030092Y039655D02*
X029758Y039655D01*
X029576Y039739D02*
X029242Y040072D01*
X029242Y039739D01*
X029326Y039655D01*
X029493Y039655D01*
X029576Y039739D01*
X029576Y040072D01*
X029493Y040156D01*
X029326Y040156D01*
X029242Y040072D01*
X027757Y039506D02*
X027757Y039005D01*
X027757Y039172D02*
X027507Y039172D01*
X027424Y039255D01*
X027424Y039422D01*
X027507Y039506D01*
X027757Y039506D01*
X027590Y039172D02*
X027424Y039005D01*
X027241Y039005D02*
X027241Y039506D01*
X026908Y039005D01*
X026908Y039506D01*
X026726Y039422D02*
X026726Y039339D01*
X026642Y039255D01*
X026392Y039255D01*
X026392Y039089D02*
X026392Y039422D01*
X026476Y039506D01*
X026642Y039506D01*
X026726Y039422D01*
X026726Y039089D02*
X026642Y039005D01*
X026476Y039005D01*
X026392Y039089D01*
X025887Y038080D02*
X025971Y037997D01*
X025971Y037830D01*
X025887Y037746D01*
X025971Y037564D02*
X025637Y037564D01*
X025470Y037398D01*
X025637Y037231D01*
X025971Y037231D01*
X025887Y037049D02*
X025971Y036965D01*
X025971Y036799D01*
X025887Y036715D01*
X025804Y036715D01*
X025720Y036799D01*
X025720Y036965D01*
X025637Y037049D01*
X025554Y037049D01*
X025470Y036965D01*
X025470Y036799D01*
X025554Y036715D01*
X024990Y036735D02*
X024990Y038635D01*
X024988Y038665D01*
X024983Y038695D01*
X024974Y038724D01*
X024961Y038751D01*
X024946Y038777D01*
X024927Y038801D01*
X024906Y038822D01*
X024882Y038841D01*
X024856Y038856D01*
X024829Y038869D01*
X024800Y038878D01*
X024770Y038883D01*
X024740Y038885D01*
X019240Y038885D01*
X019210Y038883D01*
X019180Y038878D01*
X019151Y038869D01*
X019124Y038856D01*
X019098Y038841D01*
X019074Y038822D01*
X019053Y038801D01*
X019034Y038777D01*
X019019Y038751D01*
X019006Y038724D01*
X018997Y038695D01*
X018992Y038665D01*
X018990Y038635D01*
X018990Y036735D01*
X018992Y036705D01*
X018997Y036675D01*
X019006Y036646D01*
X019019Y036619D01*
X019034Y036593D01*
X019053Y036569D01*
X019074Y036548D01*
X019098Y036529D01*
X019124Y036514D01*
X019151Y036501D01*
X019180Y036492D01*
X019210Y036487D01*
X019240Y036485D01*
X024740Y036485D01*
X024770Y036487D01*
X024800Y036492D01*
X024829Y036501D01*
X024856Y036514D01*
X024882Y036529D01*
X024906Y036548D01*
X024927Y036569D01*
X024946Y036593D01*
X024961Y036619D01*
X024974Y036646D01*
X024983Y036675D01*
X024988Y036705D01*
X024990Y036735D01*
X025470Y037746D02*
X025804Y038080D01*
X025887Y038080D01*
X025470Y038080D02*
X025470Y037746D01*
X023807Y039055D02*
X023807Y039556D01*
X023557Y039556D01*
X023474Y039472D01*
X023474Y039305D01*
X023557Y039222D01*
X023807Y039222D01*
X023640Y039222D02*
X023474Y039055D01*
X023291Y039055D02*
X023291Y039556D01*
X022958Y039055D01*
X022958Y039556D01*
X022776Y039472D02*
X022692Y039556D01*
X022526Y039556D01*
X022442Y039472D01*
X022442Y039389D01*
X022526Y039305D01*
X022692Y039305D01*
X022776Y039389D01*
X022776Y039472D01*
X022692Y039305D02*
X022776Y039222D01*
X022776Y039139D01*
X022692Y039055D01*
X022526Y039055D01*
X022442Y039139D01*
X022442Y039222D01*
X022526Y039305D01*
X021807Y039222D02*
X021557Y039222D01*
X021474Y039305D01*
X021474Y039472D01*
X021557Y039556D01*
X021807Y039556D01*
X021807Y039055D01*
X021640Y039222D02*
X021474Y039055D01*
X021291Y039055D02*
X021291Y039556D01*
X020958Y039055D01*
X020958Y039556D01*
X020776Y039556D02*
X020442Y039556D01*
X020442Y039472D01*
X020776Y039139D01*
X020776Y039055D01*
X019506Y039914D02*
X019506Y040247D01*
X019422Y040331D01*
X019255Y040331D01*
X019172Y040247D01*
X019172Y040080D02*
X019339Y040080D01*
X019172Y040080D02*
X019172Y039914D01*
X019255Y039830D01*
X019422Y039830D01*
X019506Y039914D01*
X018990Y039997D02*
X018740Y039997D01*
X018656Y040080D01*
X018656Y040247D01*
X018740Y040331D01*
X018990Y040331D01*
X018990Y039830D01*
X018474Y039830D02*
X018307Y039830D01*
X018391Y039830D02*
X018391Y040331D01*
X018474Y040331D02*
X018307Y040331D01*
X018131Y040247D02*
X018131Y039914D01*
X018047Y039830D01*
X017880Y039830D01*
X017797Y039914D01*
X017797Y040247D01*
X017880Y040331D01*
X018047Y040331D01*
X018131Y040247D01*
X017615Y040164D02*
X017448Y040331D01*
X017448Y039830D01*
X017615Y039830D02*
X017281Y039830D01*
X015807Y039556D02*
X015807Y039055D01*
X015807Y039222D02*
X015557Y039222D01*
X015474Y039305D01*
X015474Y039472D01*
X015557Y039556D01*
X015807Y039556D01*
X015640Y039222D02*
X015474Y039055D01*
X015291Y039055D02*
X015291Y039556D01*
X014958Y039055D01*
X014958Y039556D01*
X014776Y039305D02*
X014526Y039305D01*
X014442Y039222D01*
X014442Y039139D01*
X014526Y039055D01*
X014692Y039055D01*
X014776Y039139D01*
X014776Y039305D01*
X014609Y039472D01*
X014442Y039556D01*
X013807Y039556D02*
X013807Y039055D01*
X013807Y039222D02*
X013557Y039222D01*
X013474Y039305D01*
X013474Y039472D01*
X013557Y039556D01*
X013807Y039556D01*
X013640Y039222D02*
X013474Y039055D01*
X013291Y039055D02*
X013291Y039556D01*
X012958Y039055D01*
X012958Y039556D01*
X012776Y039556D02*
X012776Y039305D01*
X012609Y039389D01*
X012526Y039389D01*
X012442Y039305D01*
X012442Y039139D01*
X012526Y039055D01*
X012692Y039055D01*
X012776Y039139D01*
X012776Y039556D02*
X012442Y039556D01*
X010240Y038885D02*
X015740Y038885D01*
X015770Y038883D01*
X015800Y038878D01*
X015829Y038869D01*
X015856Y038856D01*
X015882Y038841D01*
X015906Y038822D01*
X015927Y038801D01*
X015946Y038777D01*
X015961Y038751D01*
X015974Y038724D01*
X015983Y038695D01*
X015988Y038665D01*
X015990Y038635D01*
X015990Y036735D01*
X015988Y036705D01*
X015983Y036675D01*
X015974Y036646D01*
X015961Y036619D01*
X015946Y036593D01*
X015927Y036569D01*
X015906Y036548D01*
X015882Y036529D01*
X015856Y036514D01*
X015829Y036501D01*
X015800Y036492D01*
X015770Y036487D01*
X015740Y036485D01*
X010240Y036485D01*
X010210Y036487D01*
X010180Y036492D01*
X010151Y036501D01*
X010124Y036514D01*
X010098Y036529D01*
X010074Y036548D01*
X010053Y036569D01*
X010034Y036593D01*
X010019Y036619D01*
X010006Y036646D01*
X009997Y036675D01*
X009992Y036705D01*
X009990Y036735D01*
X009990Y038635D01*
X009992Y038665D01*
X009997Y038695D01*
X010006Y038724D01*
X010019Y038751D01*
X010034Y038777D01*
X010053Y038801D01*
X010074Y038822D01*
X010098Y038841D01*
X010124Y038856D01*
X010151Y038869D01*
X010180Y038878D01*
X010210Y038883D01*
X010240Y038885D01*
X014160Y041269D02*
X014661Y041269D01*
X014661Y041103D02*
X014661Y041436D01*
X014661Y041618D02*
X014661Y041868D01*
X014577Y041952D01*
X014410Y041952D01*
X014327Y041868D01*
X014327Y041618D01*
X014160Y041618D02*
X014661Y041618D01*
X014661Y042134D02*
X014410Y042134D01*
X014494Y042301D01*
X014494Y042384D01*
X014410Y042467D01*
X014244Y042467D01*
X014160Y042384D01*
X014160Y042217D01*
X014244Y042134D01*
X013990Y042285D02*
X013990Y043085D01*
X013890Y043185D01*
X013090Y043185D01*
X012990Y043085D01*
X012890Y043185D01*
X012090Y043185D01*
X011990Y043085D01*
X011990Y042285D01*
X012090Y042185D01*
X012890Y042185D01*
X012990Y042285D01*
X013090Y042185D01*
X013890Y042185D01*
X013990Y042285D01*
X014327Y042650D02*
X014160Y042816D01*
X014327Y042983D01*
X014661Y042983D01*
X014661Y042650D02*
X014327Y042650D01*
X014661Y042467D02*
X014661Y042134D01*
X016470Y038080D02*
X016470Y037746D01*
X016470Y037913D02*
X016971Y037913D01*
X016804Y037746D01*
X016637Y037564D02*
X016971Y037564D01*
X016971Y037231D02*
X016637Y037231D01*
X016470Y037398D01*
X016637Y037564D01*
X016637Y037049D02*
X016554Y037049D01*
X016470Y036965D01*
X016470Y036799D01*
X016554Y036715D01*
X016720Y036799D02*
X016720Y036965D01*
X016637Y037049D01*
X016887Y037049D02*
X016971Y036965D01*
X016971Y036799D01*
X016887Y036715D01*
X016804Y036715D01*
X016720Y036799D01*
X049020Y033946D02*
X049020Y033713D01*
X049137Y033596D01*
X049020Y033363D02*
X049020Y032896D01*
X049020Y033130D02*
X049721Y033130D01*
X049487Y032896D01*
X049604Y032664D02*
X049137Y032664D01*
X049020Y032547D01*
X049020Y032313D01*
X049137Y032197D01*
X049604Y032664D01*
X049721Y032547D01*
X049721Y032313D01*
X049604Y032197D01*
X049137Y032197D01*
X049020Y031964D02*
X049020Y031497D01*
X049487Y031964D01*
X049604Y031964D01*
X049721Y031847D01*
X049721Y031614D01*
X049604Y031497D01*
X049487Y031264D02*
X049254Y031264D01*
X049020Y031030D01*
X049137Y030798D02*
X049020Y030681D01*
X049020Y030447D01*
X049137Y030331D01*
X049604Y030331D01*
X049721Y030447D01*
X049721Y030681D01*
X049604Y030798D01*
X049721Y031030D02*
X049487Y031264D01*
X050120Y031424D02*
X050204Y031340D01*
X050287Y031424D01*
X050287Y031674D01*
X050370Y031674D02*
X050120Y031674D01*
X050120Y031424D01*
X050204Y031158D02*
X050120Y031075D01*
X050120Y030908D01*
X050204Y030825D01*
X050537Y030825D01*
X050621Y030908D01*
X050621Y031075D01*
X050537Y031158D01*
X050454Y031424D02*
X050454Y031590D01*
X050370Y031674D01*
X050287Y031856D02*
X050454Y032023D01*
X050454Y032106D01*
X050370Y032286D02*
X050454Y032369D01*
X050454Y032619D01*
X050621Y032619D02*
X050120Y032619D01*
X050120Y032369D01*
X050204Y032286D01*
X050370Y032286D01*
X050454Y031856D02*
X050120Y031856D01*
X050120Y030643D02*
X050370Y030643D01*
X050454Y030559D01*
X050454Y030309D01*
X050120Y030309D01*
X050204Y030127D02*
X050370Y030127D01*
X050454Y030044D01*
X050454Y029877D01*
X050370Y029793D01*
X050204Y029793D01*
X050120Y029877D01*
X050120Y030044D01*
X050204Y030127D01*
X049721Y030098D02*
X049487Y029864D01*
X049254Y029864D01*
X049020Y030098D01*
X049137Y028932D02*
X049371Y028932D01*
X049371Y028698D01*
X049604Y028465D02*
X049137Y028465D01*
X049020Y028581D01*
X049020Y028815D01*
X049137Y028932D01*
X049604Y028932D02*
X049721Y028815D01*
X049721Y028581D01*
X049604Y028465D01*
X049721Y028232D02*
X049020Y028232D01*
X049721Y027765D01*
X049020Y027765D01*
X049020Y027532D02*
X049020Y027415D01*
X049137Y027415D01*
X049137Y027532D01*
X049020Y027532D01*
X049020Y026949D02*
X049721Y026949D01*
X049721Y027182D02*
X049721Y026715D01*
X050120Y026689D02*
X050120Y026356D01*
X050621Y026356D01*
X050621Y026689D01*
X050454Y026871D02*
X050120Y027205D01*
X050120Y027387D02*
X050120Y027637D01*
X050204Y027721D01*
X050370Y027721D01*
X050454Y027637D01*
X050454Y027387D01*
X049953Y027387D01*
X050454Y027205D02*
X050120Y026871D01*
X050370Y026523D02*
X050370Y026356D01*
X050037Y026174D02*
X050037Y025840D01*
X050204Y025658D02*
X050120Y025575D01*
X050120Y025408D01*
X050204Y025325D01*
X050537Y025658D01*
X050204Y025658D01*
X050537Y025658D02*
X050621Y025575D01*
X050621Y025408D01*
X050537Y025325D01*
X050204Y025325D01*
X050120Y025143D02*
X050120Y024809D01*
X050621Y024809D01*
X050621Y025143D01*
X050370Y024976D02*
X050370Y024809D01*
X050204Y024627D02*
X050537Y024627D01*
X050621Y024544D01*
X050621Y024293D01*
X050120Y024293D01*
X050120Y024544D01*
X050204Y024627D01*
X050621Y024111D02*
X050120Y023778D01*
X050287Y023596D02*
X050287Y023262D01*
X050204Y023262D02*
X050370Y023262D01*
X050454Y023345D01*
X050454Y023512D01*
X050370Y023596D01*
X050287Y023596D01*
X050120Y023512D02*
X050120Y023345D01*
X050204Y023262D01*
X050120Y023085D02*
X050204Y023002D01*
X050537Y023002D01*
X050454Y023085D02*
X050454Y022918D01*
X050370Y022736D02*
X050120Y022736D01*
X050120Y022486D01*
X050204Y022403D01*
X050287Y022486D01*
X050287Y022736D01*
X050370Y022736D02*
X050454Y022653D01*
X050454Y022486D01*
X050454Y022221D02*
X050454Y021970D01*
X050370Y021887D01*
X050204Y021887D01*
X050120Y021970D01*
X050120Y022221D01*
X050037Y022221D02*
X050454Y022221D01*
X050037Y022221D02*
X049953Y022137D01*
X049953Y022054D01*
X050120Y021710D02*
X050120Y021543D01*
X050120Y021627D02*
X050621Y021627D01*
X050621Y021543D01*
X050370Y021361D02*
X050287Y021361D01*
X050287Y021028D01*
X050204Y021028D02*
X050370Y021028D01*
X050454Y021111D01*
X050454Y021278D01*
X050370Y021361D01*
X050120Y021278D02*
X050120Y021111D01*
X050204Y021028D01*
X050120Y020846D02*
X050370Y020846D01*
X050454Y020762D01*
X050370Y020679D01*
X050120Y020679D01*
X050120Y020512D02*
X050454Y020512D01*
X050454Y020595D01*
X050370Y020679D01*
X050370Y020330D02*
X050120Y020330D01*
X050120Y020080D01*
X050204Y019996D01*
X050287Y020080D01*
X050287Y020330D01*
X050370Y020330D02*
X050454Y020247D01*
X050454Y020080D01*
X050454Y019817D02*
X050454Y019734D01*
X050287Y019567D01*
X050120Y019567D02*
X050454Y019567D01*
X050370Y019385D02*
X050120Y019385D01*
X050120Y019135D01*
X050204Y019051D01*
X050287Y019135D01*
X050287Y019385D01*
X050370Y019385D02*
X050454Y019301D01*
X050454Y019135D01*
X050454Y018869D02*
X050454Y018619D01*
X050370Y018536D01*
X050204Y018536D01*
X050120Y018619D01*
X050120Y018869D01*
X050621Y018353D02*
X050120Y018020D01*
X050120Y017838D02*
X050370Y017838D01*
X050454Y017754D01*
X050370Y017671D01*
X050120Y017671D01*
X050120Y017504D02*
X050454Y017504D01*
X050454Y017588D01*
X050370Y017671D01*
X050370Y017322D02*
X050454Y017239D01*
X050454Y017072D01*
X050370Y016989D01*
X050204Y016989D01*
X050120Y017072D01*
X050120Y017239D01*
X050204Y017322D01*
X050370Y017322D01*
X050454Y016807D02*
X050454Y016556D01*
X050370Y016473D01*
X050204Y016473D01*
X050120Y016556D01*
X050120Y016807D01*
X050120Y016299D02*
X050120Y016215D01*
X050204Y016215D01*
X050204Y016299D01*
X050120Y016299D01*
X050204Y016033D02*
X050370Y016033D01*
X050454Y015950D01*
X050454Y015700D01*
X050621Y015700D02*
X050120Y015700D01*
X050120Y015950D01*
X050204Y016033D01*
X050120Y015518D02*
X050454Y015518D01*
X050120Y015518D02*
X050120Y015267D01*
X050204Y015184D01*
X050454Y015184D01*
X050370Y015002D02*
X050120Y015002D01*
X050370Y015002D02*
X050454Y014919D01*
X050454Y014752D01*
X050370Y014668D01*
X050454Y014491D02*
X050454Y014325D01*
X050537Y014408D02*
X050204Y014408D01*
X050120Y014491D01*
X050120Y014668D02*
X050621Y014668D01*
X050621Y014064D02*
X050704Y014064D01*
X050454Y014064D02*
X050120Y014064D01*
X050120Y013981D02*
X050120Y014148D01*
X050454Y014064D02*
X050454Y013981D01*
X050454Y013799D02*
X050454Y013549D01*
X050370Y013465D01*
X050204Y013465D01*
X050120Y013549D01*
X050120Y013799D01*
X050037Y013799D02*
X050454Y013799D01*
X050037Y013799D02*
X049953Y013715D01*
X049953Y013632D01*
X050204Y027903D02*
X050287Y027986D01*
X050287Y028236D01*
X050370Y028236D02*
X050120Y028236D01*
X050120Y027986D01*
X050204Y027903D01*
X050454Y027986D02*
X050454Y028153D01*
X050370Y028236D01*
X050454Y028418D02*
X050454Y028669D01*
X050370Y028752D01*
X050120Y028752D01*
X050120Y028934D02*
X050120Y029184D01*
X050204Y029268D01*
X050287Y029184D01*
X050287Y029017D01*
X050370Y028934D01*
X050454Y029017D01*
X050454Y029268D01*
X050454Y029450D02*
X050454Y029533D01*
X050120Y029533D01*
X050120Y029450D02*
X050120Y029616D01*
X050621Y029533D02*
X050704Y029533D01*
X050454Y028418D02*
X050120Y028418D01*
X049604Y033596D02*
X049721Y033713D01*
X049721Y033946D01*
X049604Y034063D01*
X049487Y034063D01*
X049371Y033946D01*
X049254Y034063D01*
X049137Y034063D01*
X049020Y033946D01*
X049371Y033946D02*
X049371Y033830D01*
D11*
X048840Y015660D03*
X048790Y015660D03*
X048740Y015660D03*
X048690Y015660D03*
X048640Y015660D03*
X048590Y015660D03*
X047940Y013660D03*
X047890Y013660D03*
X049490Y013660D03*
X049540Y013660D03*
D12*
X049540Y015060D03*
X049490Y015060D03*
X047940Y015060D03*
X047890Y015060D03*
D13*
X048290Y015060D03*
X048340Y015060D03*
X047940Y016360D03*
X047890Y016360D03*
X048090Y016460D03*
X048140Y016460D03*
X048290Y016560D03*
X048340Y016560D03*
X048640Y016660D03*
X048690Y016660D03*
X048740Y016660D03*
X048790Y016660D03*
X049090Y016560D03*
X049140Y016560D03*
X049290Y016460D03*
X049340Y016460D03*
X049240Y013560D03*
X049190Y013560D03*
X049140Y013560D03*
X049090Y013560D03*
X048240Y013560D03*
X048190Y013560D03*
X048140Y013560D03*
X048090Y013560D03*
X048290Y022760D03*
X048340Y022760D03*
X048690Y022760D03*
X048740Y022760D03*
X049090Y022860D03*
X049140Y022860D03*
D14*
X048340Y021310D03*
X048290Y021310D03*
X048290Y017710D03*
X048340Y017710D03*
X048690Y017710D03*
X048740Y017710D03*
X049090Y017710D03*
X049140Y017710D03*
X049040Y016610D03*
X048990Y016610D03*
X048940Y016610D03*
X048890Y016610D03*
X048840Y016610D03*
X048590Y016610D03*
X048540Y016610D03*
X048490Y016610D03*
X048440Y016610D03*
X048390Y016610D03*
X048240Y016510D03*
X048190Y016510D03*
X048040Y016410D03*
X047990Y016410D03*
X049190Y016510D03*
X049240Y016510D03*
X049390Y016410D03*
X049440Y016410D03*
X049490Y016310D03*
X049540Y016310D03*
X049440Y013610D03*
X049390Y013610D03*
X049340Y013610D03*
X049290Y013610D03*
X048040Y013610D03*
X047990Y013610D03*
D15*
X047990Y015010D03*
X048040Y015010D03*
X049390Y015010D03*
X049440Y015010D03*
D16*
X049340Y015010D03*
X049290Y015010D03*
X048140Y015010D03*
X048090Y015010D03*
D17*
X048190Y015010D03*
X048240Y015010D03*
D18*
X048590Y014810D03*
X048640Y014810D03*
X048690Y014810D03*
X048740Y014810D03*
X048790Y014810D03*
X048840Y014810D03*
X048340Y014310D03*
X048290Y014310D03*
X048390Y014210D03*
X048440Y014210D03*
X048440Y013510D03*
X048390Y013510D03*
X048340Y013510D03*
X048290Y013510D03*
X048490Y013510D03*
X048540Y013510D03*
X048590Y013510D03*
X048640Y013510D03*
X048690Y013510D03*
X048740Y013510D03*
X048790Y013510D03*
X048840Y013510D03*
X048890Y013510D03*
X048940Y013510D03*
X048990Y013510D03*
X049040Y013510D03*
X049090Y015710D03*
X049140Y015710D03*
X048340Y015710D03*
X048290Y015710D03*
X048790Y018710D03*
X048840Y018710D03*
X048890Y019910D03*
X048940Y019910D03*
X049090Y021310D03*
X049140Y021310D03*
X048640Y022010D03*
X048590Y022010D03*
X048990Y023810D03*
X049040Y023810D03*
D19*
X048840Y024010D03*
X048790Y024010D03*
X048640Y024110D03*
X048590Y024110D03*
X048340Y024210D03*
X048290Y024210D03*
X048690Y023610D03*
X048740Y023610D03*
X048440Y023510D03*
X048390Y023510D03*
X048390Y023010D03*
X048440Y023010D03*
X048590Y023010D03*
X048640Y023010D03*
X048790Y022610D03*
X048840Y022610D03*
X048440Y021010D03*
X048390Y021010D03*
X048490Y020910D03*
X048540Y020910D03*
X048590Y020910D03*
X048640Y020910D03*
X048690Y020910D03*
X048740Y020910D03*
X048790Y020910D03*
X048840Y020910D03*
X048340Y020410D03*
X048290Y020410D03*
X048290Y019810D03*
X048340Y019810D03*
X048390Y019810D03*
X048440Y019810D03*
X048490Y019810D03*
X048540Y019810D03*
X048590Y019810D03*
X048640Y019810D03*
X048690Y019810D03*
X048740Y019810D03*
X049090Y019810D03*
X049140Y019810D03*
X049140Y019010D03*
X049090Y019010D03*
X049040Y018910D03*
X048990Y018910D03*
X048940Y018910D03*
X048890Y018910D03*
X048890Y018510D03*
X048940Y018510D03*
X048990Y018410D03*
X049040Y018410D03*
X049090Y018310D03*
X049140Y018310D03*
X049040Y018010D03*
X048990Y018010D03*
X048940Y018010D03*
X048890Y018010D03*
X048440Y018010D03*
X048390Y018010D03*
X048390Y017510D03*
X048440Y017510D03*
X048490Y017510D03*
X048540Y017510D03*
X048590Y017510D03*
X048640Y017510D03*
X048790Y017510D03*
X048840Y017510D03*
X048890Y017510D03*
X048940Y017510D03*
X048990Y017510D03*
X049040Y017510D03*
X048340Y018710D03*
X048290Y018710D03*
X048490Y015910D03*
X048540Y015910D03*
X048890Y015910D03*
X048940Y015910D03*
X048790Y014110D03*
X048740Y014110D03*
X048690Y014110D03*
X048640Y014110D03*
D20*
X048440Y015060D03*
X048390Y015060D03*
X048990Y015060D03*
X049040Y015060D03*
X048840Y017960D03*
X048790Y017960D03*
X048640Y018060D03*
X048590Y018060D03*
X048540Y018060D03*
X048490Y018060D03*
X048490Y018660D03*
X048440Y018660D03*
X048390Y018660D03*
X048540Y018660D03*
X048590Y018660D03*
X048640Y018660D03*
X048790Y019760D03*
X048840Y019760D03*
X048840Y020060D03*
X048790Y020060D03*
X048740Y020160D03*
X048690Y020160D03*
X048640Y020160D03*
X048590Y020160D03*
X048590Y020460D03*
X048640Y020460D03*
X048690Y020460D03*
X048740Y020460D03*
X048790Y020460D03*
X048840Y020460D03*
X048890Y020460D03*
X048940Y020460D03*
X048990Y020460D03*
X049040Y020460D03*
X049090Y020460D03*
X049140Y020460D03*
X048940Y020960D03*
X048890Y020960D03*
X048990Y021560D03*
X049040Y021560D03*
X048440Y021560D03*
X048390Y021560D03*
X048390Y022460D03*
X048440Y022460D03*
X048890Y022560D03*
X048940Y022560D03*
X048990Y022560D03*
X049040Y022560D03*
X049040Y023060D03*
X048990Y023060D03*
X048540Y023060D03*
X048490Y023060D03*
X048340Y023460D03*
X048290Y023460D03*
X048590Y023560D03*
X048640Y023560D03*
X048790Y023660D03*
X048840Y023660D03*
X048890Y023660D03*
X048940Y023660D03*
X048940Y023960D03*
X048890Y023960D03*
X048740Y024060D03*
X048690Y024060D03*
X048440Y024160D03*
X048390Y024160D03*
D21*
X049090Y023860D03*
X049140Y023860D03*
X049040Y021060D03*
X048990Y021060D03*
X048540Y020360D03*
X048490Y020360D03*
X048440Y020360D03*
X048390Y020360D03*
X048990Y019860D03*
X049040Y019860D03*
X048640Y019260D03*
X048590Y019260D03*
X048690Y018660D03*
X048740Y018660D03*
X048990Y015860D03*
X049040Y015860D03*
X048440Y015860D03*
X048390Y015860D03*
X048490Y014160D03*
X048540Y014160D03*
X048590Y014160D03*
X048840Y014160D03*
X048890Y014160D03*
X048940Y014160D03*
X048990Y014260D03*
X049040Y014260D03*
D22*
X048540Y023810D03*
X048490Y023810D03*
D23*
X049090Y014335D03*
X049140Y014335D03*
D24*
X049140Y015035D03*
X049090Y015035D03*
D25*
X049190Y015060D03*
X049240Y015060D03*
D26*
X049690Y013185D02*
X047740Y013185D01*
X047740Y026185D01*
X049690Y026185D01*
X049690Y013185D01*
X047750Y032311D02*
X047291Y032311D01*
X046235Y032311D02*
X045276Y032311D01*
X043240Y032685D02*
X042990Y032685D01*
X043240Y032685D02*
X043240Y032935D01*
X040490Y032685D02*
X040240Y032685D01*
X040240Y032935D01*
X040190Y035435D02*
X040190Y035735D01*
X040490Y035735D01*
X040490Y035435D01*
X040190Y035435D01*
X042990Y035685D02*
X043240Y035685D01*
X043240Y035435D01*
X045287Y038099D02*
X046235Y038099D01*
X047331Y038099D02*
X047750Y038099D01*
X043176Y041135D02*
X043101Y041060D01*
X042950Y041060D01*
X042875Y041135D01*
X042875Y041210D01*
X042950Y041285D01*
X043176Y041285D01*
X043176Y041135D01*
X043176Y041285D02*
X043025Y041436D01*
X042875Y041511D01*
X040687Y041105D02*
X040293Y041105D01*
X040293Y040265D02*
X040687Y040265D01*
X038176Y042860D02*
X037875Y042860D01*
X038025Y042860D02*
X038025Y043311D01*
X038176Y043160D01*
X028910Y040382D02*
X028910Y039988D01*
X028515Y039511D02*
X028515Y039060D01*
X028665Y039060D02*
X028365Y039060D01*
X028665Y039360D02*
X028515Y039511D01*
X028070Y039988D02*
X028070Y040382D01*
X027410Y040382D02*
X027410Y039988D01*
X026570Y039988D02*
X026570Y040382D01*
X023410Y040382D02*
X023410Y039988D01*
X022570Y039988D02*
X022570Y040382D01*
X021410Y040382D02*
X021410Y039988D01*
X020570Y039988D02*
X020570Y040382D01*
X019665Y039360D02*
X019515Y039511D01*
X019515Y039060D01*
X019665Y039060D02*
X019365Y039060D01*
X015410Y039988D02*
X015410Y040382D01*
X014570Y040382D02*
X014570Y039988D01*
X013410Y039988D02*
X013410Y040382D01*
X012570Y040382D02*
X012570Y039988D01*
X010665Y039360D02*
X010515Y039511D01*
X010515Y039060D01*
X010665Y039060D02*
X010365Y039060D01*
X009194Y033168D02*
X008894Y032868D01*
X008819Y032943D01*
X008819Y033093D01*
X008894Y033168D01*
X009194Y033168D01*
X009269Y033093D01*
X009269Y032943D01*
X009194Y032868D01*
X008894Y032868D01*
X009044Y032708D02*
X009044Y032407D01*
X009269Y032633D01*
X008819Y032633D01*
X019835Y032481D02*
X019896Y032481D01*
X019912Y032479D01*
X019927Y032475D01*
X019942Y032467D01*
X019954Y032457D01*
X019964Y032445D01*
X019972Y032430D01*
X019976Y032415D01*
X019978Y032399D01*
X019978Y033308D01*
X020325Y033401D02*
X020407Y033401D01*
X020509Y034341D01*
X020714Y034341D01*
X020816Y033401D01*
X020898Y033401D01*
X020795Y034484D01*
X020796Y034484D02*
X020792Y034503D01*
X020786Y034522D01*
X020776Y034539D01*
X020764Y034555D01*
X020749Y034568D01*
X020732Y034579D01*
X020714Y034586D01*
X020489Y034586D02*
X020471Y034579D01*
X020454Y034568D01*
X020439Y034555D01*
X020427Y034539D01*
X020417Y034522D01*
X020411Y034503D01*
X020407Y034484D01*
X020325Y033401D01*
X020489Y034585D02*
X020525Y034594D01*
X020563Y034600D01*
X020601Y034602D01*
X020639Y034600D01*
X020676Y034594D01*
X020713Y034585D01*
X021000Y034484D02*
X021081Y032890D01*
X021081Y032889D02*
X021084Y032871D01*
X021091Y032854D01*
X021100Y032839D01*
X021113Y032826D01*
X021128Y032817D01*
X021145Y032810D01*
X021163Y032807D01*
X021163Y032808D02*
X021817Y032808D01*
X021817Y032807D02*
X021835Y032810D01*
X021852Y032817D01*
X021867Y032826D01*
X021880Y032839D01*
X021889Y032854D01*
X021896Y032871D01*
X021899Y032889D01*
X021899Y032890D02*
X021981Y034484D01*
X021979Y034500D01*
X021975Y034515D01*
X021967Y034530D01*
X021957Y034542D01*
X021945Y034552D01*
X021930Y034560D01*
X021915Y034564D01*
X021899Y034566D01*
X021883Y034564D01*
X021868Y034560D01*
X021853Y034552D01*
X021841Y034542D01*
X021831Y034530D01*
X021823Y034515D01*
X021819Y034500D01*
X021817Y034484D01*
X021735Y033135D01*
X021245Y033135D01*
X021163Y034484D01*
X021161Y034500D01*
X021157Y034515D01*
X021149Y034530D01*
X021139Y034542D01*
X021127Y034552D01*
X021112Y034560D01*
X021097Y034564D01*
X021081Y034566D01*
X021065Y034564D01*
X021050Y034560D01*
X021035Y034552D01*
X021023Y034542D01*
X021013Y034530D01*
X021005Y034515D01*
X021001Y034500D01*
X020999Y034484D01*
X019978Y034423D02*
X019978Y035015D01*
X023003Y035015D01*
X023003Y034423D01*
X022573Y034484D02*
X022655Y033401D01*
X022573Y033401D01*
X022471Y034341D01*
X022267Y034341D01*
X022165Y033401D01*
X022083Y033401D01*
X022185Y034484D01*
X022189Y034503D01*
X022195Y034522D01*
X022205Y034539D01*
X022217Y034555D01*
X022232Y034568D01*
X022249Y034579D01*
X022267Y034586D01*
X022492Y034586D02*
X022510Y034579D01*
X022527Y034568D01*
X022542Y034555D01*
X022554Y034539D01*
X022564Y034522D01*
X022570Y034503D01*
X022574Y034484D01*
X022491Y034585D02*
X022454Y034594D01*
X022417Y034600D01*
X022379Y034602D01*
X022341Y034600D01*
X022303Y034594D01*
X022267Y034585D01*
X023003Y033308D02*
X023003Y032399D01*
X023002Y032399D02*
X023004Y032415D01*
X023008Y032430D01*
X023016Y032445D01*
X023026Y032457D01*
X023038Y032467D01*
X023053Y032475D01*
X023068Y032479D01*
X023084Y032481D01*
X023146Y032481D01*
X022288Y032358D02*
X022286Y032342D01*
X022282Y032327D01*
X022274Y032312D01*
X022264Y032300D01*
X022252Y032290D01*
X022237Y032282D01*
X022222Y032278D01*
X022206Y032276D01*
X020775Y032276D01*
X020759Y032278D01*
X020744Y032282D01*
X020729Y032290D01*
X020717Y032300D01*
X020707Y032312D01*
X020699Y032327D01*
X020695Y032342D01*
X020693Y032358D01*
X020695Y032378D01*
X020701Y032397D01*
X020710Y032415D01*
X020723Y032430D01*
X020738Y032443D01*
X020756Y032452D01*
X020775Y032458D01*
X020795Y032460D01*
X022185Y032460D01*
X022205Y032458D01*
X022224Y032452D01*
X022242Y032443D01*
X022257Y032430D01*
X022270Y032415D01*
X022279Y032397D01*
X022285Y032378D01*
X022287Y032358D01*
X022287Y032072D02*
X022287Y031336D01*
X022287Y031316D02*
X022676Y031316D01*
X022676Y031336D02*
X022676Y031479D01*
X020693Y031336D02*
X020693Y032072D01*
X020305Y031479D02*
X020305Y031336D01*
X020305Y031316D02*
X020693Y031316D01*
X013187Y022105D02*
X012793Y022105D01*
X012793Y021265D02*
X013187Y021265D01*
X013187Y018605D02*
X012793Y018605D01*
X012793Y017765D02*
X013187Y017765D01*
X012019Y013908D02*
X012019Y013607D01*
X012019Y013758D02*
X012469Y013758D01*
X012319Y013607D01*
D27*
X037390Y030785D02*
X037990Y030785D01*
X037990Y030535D01*
X037990Y030785D02*
X040490Y030785D01*
X040490Y032235D01*
X040790Y032235D01*
X040790Y032485D01*
X040790Y032235D02*
X043240Y032235D01*
X039390Y032685D02*
X037990Y032685D01*
X037990Y036735D01*
X035890Y036735D01*
X035890Y039435D01*
D28*
X040490Y040291D02*
X040490Y041079D01*
X028884Y040185D02*
X028097Y040185D01*
X027384Y040185D02*
X026597Y040185D01*
X023384Y040185D02*
X022597Y040185D01*
X021384Y040185D02*
X020597Y040185D01*
X015384Y040185D02*
X014597Y040185D01*
X013384Y040185D02*
X012597Y040185D01*
X015217Y029925D02*
X016760Y029925D01*
X016760Y027675D01*
X015217Y027675D01*
X015217Y029925D01*
X015217Y027675D02*
X015217Y027445D01*
X015217Y027425D02*
X016760Y027425D01*
X016760Y027445D02*
X016760Y027675D01*
X012990Y022079D02*
X012990Y021291D01*
X015652Y019984D02*
X015691Y020023D01*
X012990Y018579D02*
X012990Y017791D01*
X046530Y018338D02*
X046530Y018799D01*
X046684Y018952D01*
X047298Y018952D01*
X047451Y018799D01*
X047451Y018338D01*
X046530Y018338D01*
X046530Y019259D02*
X046530Y019873D01*
X046684Y020180D02*
X047298Y020793D01*
X046684Y020793D01*
X046530Y020640D01*
X046530Y020333D01*
X046684Y020180D01*
X047298Y020180D01*
X047451Y020333D01*
X047451Y020640D01*
X047298Y020793D01*
X047451Y021100D02*
X046530Y021100D01*
X046530Y021714D01*
X046684Y022021D02*
X046530Y022175D01*
X046530Y022481D01*
X046684Y022635D01*
X046684Y022942D02*
X046837Y022942D01*
X046991Y023095D01*
X046991Y023402D01*
X046837Y023556D01*
X046684Y023556D01*
X046530Y023402D01*
X046530Y023095D01*
X046684Y022942D01*
X046991Y023095D02*
X047144Y022942D01*
X047298Y022942D01*
X047451Y023095D01*
X047451Y023402D01*
X047298Y023556D01*
X047144Y023556D01*
X046991Y023402D01*
X046991Y023863D02*
X046991Y024476D01*
X047144Y024476D02*
X046530Y024476D01*
X046991Y024783D02*
X046991Y025397D01*
X047144Y025704D02*
X047451Y026011D01*
X046530Y026011D01*
X046530Y025704D02*
X046530Y026318D01*
X047144Y024476D02*
X047451Y024170D01*
X047144Y023863D01*
X046530Y023863D01*
X047298Y022635D02*
X047451Y022481D01*
X047451Y022175D01*
X047298Y022021D01*
X046684Y022021D01*
X046991Y021407D02*
X046991Y021100D01*
X047451Y021100D02*
X047451Y021714D01*
X047451Y019873D02*
X047451Y019259D01*
X046530Y019259D01*
X046991Y019259D02*
X046991Y019566D01*
D29*
X015990Y019685D03*
D30*
X020693Y032358D02*
X020693Y032358D01*
X021081Y034566D02*
X021081Y034566D01*
X023003Y035015D02*
X023003Y035015D01*
X033987Y019102D02*
X033910Y019025D01*
X033910Y018871D01*
X033987Y018795D01*
X034294Y019102D01*
X033987Y019102D01*
X034294Y019102D02*
X034371Y019025D01*
X034371Y018871D01*
X034294Y018795D01*
X033987Y018795D01*
X034294Y018641D02*
X033987Y018334D01*
X033910Y018334D01*
X033910Y018181D02*
X034064Y018027D01*
X034064Y018104D02*
X034064Y017874D01*
X033910Y017874D02*
X034371Y017874D01*
X034371Y018104D01*
X034294Y018181D01*
X034140Y018181D01*
X034064Y018104D01*
X034371Y018334D02*
X034371Y018641D01*
X034294Y018641D01*
D31*
X040340Y035585D03*
M02*
