G75*
G70*
%OFA0B0*%
%FSLAX24Y24*%
%IPPOS*%
%LPD*%
%AMOC8*
5,1,8,0,0,1.08239X$1,22.5*
%
%ADD10C,0.0060*%
%ADD11C,0.0100*%
%ADD12C,0.0080*%
%ADD13C,0.0050*%
%ADD14C,0.0040*%
%ADD15C,0.0004*%
%ADD16C,0.0030*%
%ADD17C,0.0200*%
%ADD18R,0.0128X0.0167*%
%ADD19R,0.0138X0.0138*%
D10*
X013320Y013065D02*
X013320Y013566D01*
X013570Y013566D01*
X013654Y013482D01*
X013654Y013315D01*
X013570Y013232D01*
X013320Y013232D01*
X013487Y013232D02*
X013654Y013065D01*
X013836Y013149D02*
X013919Y013065D01*
X014086Y013065D01*
X014169Y013149D01*
X014169Y013232D01*
X014086Y013315D01*
X014003Y013315D01*
X014086Y013315D02*
X014169Y013399D01*
X014169Y013482D01*
X014086Y013566D01*
X013919Y013566D01*
X013836Y013482D01*
X013836Y013765D02*
X014169Y014099D01*
X014169Y014182D01*
X014086Y014266D01*
X013919Y014266D01*
X013836Y014182D01*
X013654Y014182D02*
X013654Y014015D01*
X013570Y013932D01*
X013320Y013932D01*
X013320Y013765D02*
X013320Y014266D01*
X013570Y014266D01*
X013654Y014182D01*
X013654Y014465D02*
X013487Y014632D01*
X013570Y014632D02*
X013320Y014632D01*
X013320Y014465D02*
X013320Y014966D01*
X013570Y014966D01*
X013654Y014882D01*
X013654Y014715D01*
X013570Y014632D01*
X013836Y014465D02*
X014169Y014799D01*
X014169Y014882D01*
X014086Y014966D01*
X013919Y014966D01*
X013836Y014882D01*
X013919Y015165D02*
X013836Y015249D01*
X013919Y015165D02*
X014086Y015165D01*
X014169Y015249D01*
X014169Y015332D01*
X014086Y015415D01*
X014003Y015415D01*
X014086Y015415D02*
X014169Y015499D01*
X014169Y015582D01*
X014086Y015666D01*
X013919Y015666D01*
X013836Y015582D01*
X013654Y015582D02*
X013654Y015415D01*
X013570Y015332D01*
X013320Y015332D01*
X013320Y015165D02*
X013320Y015666D01*
X013570Y015666D01*
X013654Y015582D01*
X013487Y015332D02*
X013654Y015165D01*
X014351Y015165D02*
X014685Y015165D01*
X014518Y015165D02*
X014518Y015666D01*
X014351Y015499D01*
X014518Y014966D02*
X014518Y014465D01*
X014351Y014465D02*
X014685Y014465D01*
X014602Y014266D02*
X014435Y014266D01*
X014351Y014182D01*
X014351Y014099D01*
X014435Y014015D01*
X014685Y014015D01*
X014685Y013849D02*
X014685Y014182D01*
X014602Y014266D01*
X014685Y013849D02*
X014602Y013765D01*
X014435Y013765D01*
X014351Y013849D01*
X014169Y013765D02*
X013836Y013765D01*
X013654Y013765D02*
X013487Y013932D01*
X013836Y014465D02*
X014169Y014465D01*
X014351Y014799D02*
X014518Y014966D01*
X015210Y014980D02*
X015293Y014813D01*
X015460Y014646D01*
X015460Y014897D01*
X015543Y014980D01*
X015627Y014980D01*
X015710Y014897D01*
X015710Y014730D01*
X015627Y014646D01*
X015460Y014646D01*
X015460Y014464D02*
X015627Y014464D01*
X015710Y014381D01*
X015710Y014214D01*
X015627Y014131D01*
X015460Y014131D02*
X015377Y014298D01*
X015377Y014381D01*
X015460Y014464D01*
X015210Y014464D02*
X015210Y014131D01*
X015460Y014131D01*
X015460Y013949D02*
X015543Y013865D01*
X015543Y013615D01*
X015543Y013782D02*
X015710Y013949D01*
X015460Y013949D02*
X015293Y013949D01*
X015210Y013865D01*
X015210Y013615D01*
X015710Y013615D01*
X015960Y013531D02*
X016210Y013531D01*
X016127Y013698D01*
X016127Y013781D01*
X016210Y013864D01*
X016377Y013864D01*
X016460Y013781D01*
X016460Y013614D01*
X016377Y013531D01*
X016460Y013349D02*
X016293Y013182D01*
X016293Y013265D02*
X016293Y013015D01*
X016460Y013015D02*
X015960Y013015D01*
X015960Y013265D01*
X016043Y013349D01*
X016210Y013349D01*
X016293Y013265D01*
X015960Y013531D02*
X015960Y013864D01*
X016043Y014046D02*
X015960Y014130D01*
X015960Y014297D01*
X016043Y014380D01*
X016127Y014380D01*
X016210Y014297D01*
X016293Y014380D01*
X016377Y014380D01*
X016460Y014297D01*
X016460Y014130D01*
X016377Y014046D01*
X016210Y014213D02*
X016210Y014297D01*
X016953Y015268D02*
X016870Y015352D01*
X016870Y015519D01*
X016953Y015602D01*
X016953Y015784D02*
X016870Y015867D01*
X016870Y016034D01*
X016953Y016118D01*
X017037Y016118D01*
X017370Y015784D01*
X017370Y016118D01*
X017287Y016300D02*
X016953Y016633D01*
X017287Y016633D01*
X017370Y016550D01*
X017370Y016383D01*
X017287Y016300D01*
X016953Y016300D01*
X016870Y016383D01*
X016870Y016550D01*
X016953Y016633D01*
X017620Y016633D02*
X017703Y016466D01*
X017870Y016300D01*
X017870Y016550D01*
X017953Y016633D01*
X018037Y016633D01*
X018120Y016550D01*
X018120Y016383D01*
X018037Y016300D01*
X017870Y016300D01*
X018120Y016118D02*
X018120Y015784D01*
X018120Y015951D02*
X017620Y015951D01*
X017787Y015784D01*
X017703Y015602D02*
X017620Y015519D01*
X017620Y015352D01*
X017703Y015268D01*
X018037Y015268D01*
X018120Y015352D01*
X018120Y015519D01*
X018037Y015602D01*
X017370Y015519D02*
X017370Y015352D01*
X017287Y015268D01*
X016953Y015268D01*
X017287Y015602D02*
X017370Y015519D01*
X019270Y015650D02*
X019270Y015900D01*
X019353Y015983D01*
X019687Y015983D01*
X019770Y015900D01*
X019770Y015650D01*
X019270Y015650D01*
X019353Y015468D02*
X019520Y015468D01*
X019603Y015384D01*
X019603Y015134D01*
X019770Y015134D02*
X019270Y015134D01*
X019270Y015384D01*
X019353Y015468D01*
X019353Y014952D02*
X019270Y014869D01*
X019270Y014702D01*
X019353Y014618D01*
X019437Y014618D01*
X019520Y014702D01*
X019520Y014869D01*
X019603Y014952D01*
X019687Y014952D01*
X019770Y014869D01*
X019770Y014702D01*
X019687Y014618D01*
X019122Y014159D02*
X019087Y014129D01*
X019054Y014098D01*
X019024Y014063D01*
X018997Y014027D01*
X018973Y013989D01*
X018951Y013949D01*
X018933Y013907D01*
X018917Y013864D01*
X018905Y013820D01*
X018897Y013776D01*
X018892Y013730D01*
X018890Y013685D01*
X018892Y013640D01*
X018897Y013594D01*
X018905Y013550D01*
X018917Y013506D01*
X018933Y013463D01*
X018951Y013421D01*
X018973Y013381D01*
X018997Y013343D01*
X019024Y013307D01*
X019054Y013272D01*
X019087Y013241D01*
X019122Y013211D01*
X020090Y013685D02*
X020088Y013731D01*
X020083Y013777D01*
X020074Y013823D01*
X020062Y013868D01*
X020046Y013911D01*
X020027Y013953D01*
X020004Y013994D01*
X019979Y014033D01*
X019951Y014069D01*
X019920Y014104D01*
X019886Y014136D01*
X019850Y014165D01*
X020090Y013685D02*
X020088Y013638D01*
X020082Y013590D01*
X020073Y013544D01*
X020060Y013498D01*
X020044Y013454D01*
X020024Y013410D01*
X020000Y013369D01*
X019974Y013330D01*
X019944Y013293D01*
X019911Y013258D01*
X019876Y013226D01*
X019839Y013197D01*
X014920Y016952D02*
X014837Y016868D01*
X014503Y016868D01*
X014420Y016952D01*
X014420Y017119D01*
X014503Y017202D01*
X014587Y017384D02*
X014420Y017551D01*
X014920Y017551D01*
X014920Y017384D02*
X014920Y017718D01*
X014837Y017900D02*
X014920Y017983D01*
X014920Y018150D01*
X014837Y018233D01*
X014670Y018233D01*
X014587Y018150D01*
X014587Y018066D01*
X014670Y017900D01*
X014420Y017900D01*
X014420Y018233D01*
X014493Y018965D02*
X014827Y018965D01*
X014910Y019049D01*
X014910Y019215D01*
X014827Y019299D01*
X014910Y019481D02*
X014577Y019814D01*
X014493Y019814D01*
X014410Y019731D01*
X014410Y019564D01*
X014493Y019481D01*
X014493Y019299D02*
X014410Y019215D01*
X014410Y019049D01*
X014493Y018965D01*
X014910Y019481D02*
X014910Y019814D01*
X014910Y019996D02*
X014827Y019996D01*
X014493Y020330D01*
X014410Y020330D01*
X014410Y019996D01*
X013670Y019952D02*
X013170Y019952D01*
X013170Y020134D02*
X013420Y020134D01*
X013337Y020301D01*
X013337Y020384D01*
X013420Y020467D01*
X013587Y020467D01*
X013670Y020384D01*
X013670Y020217D01*
X013587Y020134D01*
X013670Y019952D02*
X013503Y019785D01*
X013670Y019618D01*
X013170Y019618D01*
X012990Y019585D02*
X012990Y018785D01*
X012890Y018685D01*
X012090Y018685D01*
X011990Y018785D01*
X011990Y019585D01*
X012090Y019685D01*
X011990Y019785D01*
X011990Y020585D01*
X012090Y020685D01*
X012890Y020685D01*
X012990Y020585D01*
X012990Y019785D01*
X012890Y019685D01*
X012990Y019585D01*
X013170Y019353D02*
X013253Y019436D01*
X013587Y019436D01*
X013670Y019353D01*
X013670Y019186D01*
X013587Y019103D01*
X013253Y019103D01*
X013170Y019186D01*
X013170Y019353D01*
X013253Y018921D02*
X013420Y018921D01*
X013503Y018837D01*
X013503Y018587D01*
X013670Y018587D02*
X013170Y018587D01*
X013170Y018837D01*
X013253Y018921D01*
X013170Y020134D02*
X013170Y020467D01*
X013170Y020650D02*
X013503Y020650D01*
X013670Y020816D01*
X013503Y020983D01*
X013170Y020983D01*
X012414Y021196D02*
X012414Y021363D01*
X012330Y021446D01*
X012164Y021446D01*
X012164Y021279D01*
X012330Y021112D02*
X012414Y021196D01*
X012330Y021112D02*
X011997Y021112D01*
X011913Y021196D01*
X011913Y021363D01*
X011997Y021446D01*
X011913Y021628D02*
X011913Y021878D01*
X011997Y021962D01*
X012164Y021962D01*
X012247Y021878D01*
X012247Y021628D01*
X012414Y021628D02*
X011913Y021628D01*
X011913Y022144D02*
X011913Y022310D01*
X011913Y022227D02*
X012414Y022227D01*
X012414Y022144D02*
X012414Y022310D01*
X012330Y022487D02*
X012414Y022571D01*
X012414Y022738D01*
X012330Y022821D01*
X011997Y022821D01*
X011913Y022738D01*
X011913Y022571D01*
X011997Y022487D01*
X012330Y022487D01*
X012330Y023003D02*
X011997Y023337D01*
X012330Y023337D01*
X012414Y023253D01*
X012414Y023086D01*
X012330Y023003D01*
X011997Y023003D01*
X011913Y023086D01*
X011913Y023253D01*
X011997Y023337D01*
X012940Y024035D02*
X012940Y024335D01*
X012790Y024185D02*
X013090Y024185D01*
X012570Y024118D02*
X012070Y024118D01*
X012070Y024369D01*
X012153Y024452D01*
X012320Y024452D01*
X012403Y024369D01*
X012403Y024118D01*
X012403Y024285D02*
X012570Y024452D01*
X012487Y024634D02*
X012570Y024717D01*
X012570Y024884D01*
X012487Y024968D01*
X012403Y024968D01*
X012320Y024884D01*
X012320Y024801D01*
X012320Y024884D02*
X012237Y024968D01*
X012153Y024968D01*
X012070Y024884D01*
X012070Y024717D01*
X012153Y024634D01*
X012153Y025150D02*
X012237Y025150D01*
X012320Y025233D01*
X012320Y025483D01*
X012153Y025483D02*
X012070Y025400D01*
X012070Y025233D01*
X012153Y025150D01*
X012153Y025483D02*
X012487Y025483D01*
X012570Y025400D01*
X012570Y025233D01*
X012487Y025150D01*
X013170Y025721D02*
X013170Y025972D01*
X013253Y026055D01*
X013420Y026055D01*
X013503Y025972D01*
X013503Y025721D01*
X013670Y025721D02*
X013170Y025721D01*
X013253Y026237D02*
X013587Y026237D01*
X013670Y026320D01*
X013670Y026487D01*
X013587Y026571D01*
X013253Y026571D01*
X013170Y026487D01*
X013170Y026320D01*
X013253Y026237D01*
X013170Y026753D02*
X013670Y026753D01*
X013503Y026919D01*
X013670Y027086D01*
X013170Y027086D01*
X013253Y027268D02*
X013170Y027352D01*
X013170Y027518D01*
X013253Y027602D01*
X013337Y027602D01*
X013420Y027518D01*
X013503Y027602D01*
X013587Y027602D01*
X013670Y027518D01*
X013670Y027352D01*
X013587Y027268D01*
X013420Y027435D02*
X013420Y027518D01*
X013503Y027784D02*
X013170Y027784D01*
X012990Y027785D02*
X012990Y028585D01*
X012890Y028685D01*
X012090Y028685D01*
X011990Y028585D01*
X011990Y027785D01*
X012090Y027685D01*
X011990Y027585D01*
X011990Y026785D01*
X012090Y026685D01*
X012890Y026685D01*
X012990Y026785D01*
X012990Y027585D01*
X012890Y027685D01*
X012990Y027785D01*
X013170Y028117D02*
X013503Y028117D01*
X013670Y027951D01*
X013503Y027784D01*
X013587Y028300D02*
X013670Y028383D01*
X013670Y028550D01*
X013587Y028633D01*
X013503Y028633D01*
X013420Y028550D01*
X013420Y028466D01*
X013420Y028550D02*
X013337Y028633D01*
X013253Y028633D01*
X013170Y028550D01*
X013170Y028383D01*
X013253Y028300D01*
X012905Y029155D02*
X012905Y029656D01*
X012655Y029405D01*
X012988Y029405D01*
X012955Y029905D02*
X013038Y029989D01*
X013038Y030072D01*
X012955Y030155D01*
X012705Y030155D01*
X012705Y029989D01*
X012788Y029905D01*
X012955Y029905D01*
X012705Y030155D02*
X012871Y030322D01*
X013038Y030406D01*
X013038Y030705D02*
X012705Y030705D01*
X012871Y030705D02*
X012871Y031206D01*
X012705Y031039D01*
X012523Y030705D02*
X012189Y030705D01*
X012356Y030705D02*
X012356Y031206D01*
X012189Y031039D01*
X012007Y031122D02*
X012007Y030955D01*
X011924Y030872D01*
X011673Y030872D01*
X011673Y030705D02*
X011673Y031206D01*
X011924Y031206D01*
X012007Y031122D01*
X011840Y030872D02*
X012007Y030705D01*
X011924Y030406D02*
X012007Y030322D01*
X012007Y030155D01*
X011924Y030072D01*
X011673Y030072D01*
X011673Y029905D02*
X011673Y030406D01*
X011924Y030406D01*
X012189Y030322D02*
X012272Y030406D01*
X012439Y030406D01*
X012523Y030322D01*
X012523Y030239D01*
X012189Y029905D01*
X012523Y029905D01*
X012306Y029656D02*
X012306Y029155D01*
X012139Y029155D02*
X012473Y029155D01*
X012139Y029489D02*
X012306Y029656D01*
X011957Y029572D02*
X011874Y029656D01*
X011707Y029656D01*
X011623Y029572D01*
X011623Y029239D01*
X011707Y029155D01*
X011874Y029155D01*
X011957Y029239D01*
X012007Y029905D02*
X011840Y030072D01*
X012007Y031455D02*
X011840Y031622D01*
X011924Y031622D02*
X011673Y031622D01*
X011673Y031455D02*
X011673Y031956D01*
X011924Y031956D01*
X012007Y031872D01*
X012007Y031705D01*
X011924Y031622D01*
X012189Y031789D02*
X012356Y031956D01*
X012356Y031455D01*
X012189Y031455D02*
X012523Y031455D01*
X012705Y031455D02*
X013038Y031789D01*
X013038Y031872D01*
X012955Y031956D01*
X012788Y031956D01*
X012705Y031872D01*
X012705Y031455D02*
X013038Y031455D01*
X011555Y033305D02*
X011638Y033389D01*
X011638Y033722D01*
X011555Y033806D01*
X011388Y033806D01*
X011305Y033722D01*
X011305Y033639D01*
X011388Y033555D01*
X011638Y033555D01*
X011555Y033305D02*
X011388Y033305D01*
X011305Y033389D01*
X011123Y033555D02*
X010789Y033555D01*
X011039Y033806D01*
X011039Y033305D01*
X010607Y033305D02*
X010440Y033472D01*
X010524Y033472D02*
X010273Y033472D01*
X010273Y033305D02*
X010273Y033806D01*
X010524Y033806D01*
X010607Y033722D01*
X010607Y033555D01*
X010524Y033472D01*
X010607Y034055D02*
X010440Y034222D01*
X010524Y034222D02*
X010273Y034222D01*
X010273Y034055D02*
X010273Y034556D01*
X010524Y034556D01*
X010607Y034472D01*
X010607Y034305D01*
X010524Y034222D01*
X010789Y034389D02*
X010956Y034556D01*
X010956Y034055D01*
X010789Y034055D02*
X011123Y034055D01*
X011305Y034139D02*
X011388Y034055D01*
X011555Y034055D01*
X011638Y034139D01*
X011638Y034472D01*
X011555Y034556D01*
X011388Y034556D01*
X011305Y034472D01*
X011305Y034389D01*
X011388Y034305D01*
X011638Y034305D01*
X017820Y034016D02*
X018320Y034016D01*
X018320Y033850D02*
X018320Y034183D01*
X017987Y033850D02*
X017820Y034016D01*
X017820Y033667D02*
X017820Y033334D01*
X017820Y033501D02*
X018320Y033501D01*
X018320Y033152D02*
X018153Y032985D01*
X018153Y033068D02*
X018153Y032818D01*
X018320Y032818D02*
X017820Y032818D01*
X017820Y033068D01*
X017903Y033152D01*
X018070Y033152D01*
X018153Y033068D01*
X018070Y032636D02*
X018070Y032303D01*
X017987Y032303D02*
X017820Y032469D01*
X017987Y032636D01*
X018320Y032636D01*
X018320Y032303D02*
X017987Y032303D01*
X017820Y032121D02*
X018237Y032121D01*
X018320Y032037D01*
X018320Y031870D01*
X018237Y031787D01*
X017820Y031787D01*
X017277Y028530D02*
X017360Y028447D01*
X017360Y028280D01*
X017277Y028196D01*
X017193Y028196D01*
X017110Y028280D01*
X017110Y028447D01*
X017193Y028530D01*
X017277Y028530D01*
X017110Y028447D02*
X017027Y028530D01*
X016943Y028530D01*
X016860Y028447D01*
X016860Y028280D01*
X016943Y028196D01*
X017027Y028196D01*
X017110Y028280D01*
X017027Y028014D02*
X016943Y028014D01*
X016860Y027931D01*
X016860Y027764D01*
X016943Y027681D01*
X016943Y027499D02*
X017110Y027499D01*
X017193Y027415D01*
X017193Y027165D01*
X017193Y027332D02*
X017360Y027499D01*
X017360Y027681D02*
X017027Y028014D01*
X017360Y028014D02*
X017360Y027681D01*
X016943Y027499D02*
X016860Y027415D01*
X016860Y027165D01*
X017360Y027165D01*
X017720Y026832D02*
X017720Y026499D01*
X017804Y026415D01*
X017970Y026415D01*
X018054Y026499D01*
X018236Y026415D02*
X018569Y026415D01*
X018403Y026415D02*
X018403Y026916D01*
X018236Y026749D01*
X018054Y026832D02*
X017970Y026916D01*
X017804Y026916D01*
X017720Y026832D01*
X018751Y026832D02*
X018751Y026749D01*
X018835Y026665D01*
X019002Y026665D01*
X019085Y026582D01*
X019085Y026499D01*
X019002Y026415D01*
X018835Y026415D01*
X018751Y026499D01*
X018751Y026582D01*
X018835Y026665D01*
X019002Y026665D02*
X019085Y026749D01*
X019085Y026832D01*
X019002Y026916D01*
X018835Y026916D01*
X018751Y026832D01*
X016038Y026522D02*
X015705Y026189D01*
X015788Y026105D01*
X015955Y026105D01*
X016038Y026189D01*
X016038Y026522D01*
X015955Y026606D01*
X015788Y026606D01*
X015705Y026522D01*
X015705Y026189D01*
X015523Y026105D02*
X015189Y026105D01*
X015356Y026105D02*
X015356Y026606D01*
X015189Y026439D01*
X015007Y026522D02*
X015007Y026355D01*
X014924Y026272D01*
X014673Y026272D01*
X014673Y026105D02*
X014673Y026606D01*
X014924Y026606D01*
X015007Y026522D01*
X014840Y026272D02*
X015007Y026105D01*
X014974Y025906D02*
X015057Y025822D01*
X015057Y025655D01*
X014974Y025572D01*
X014723Y025572D01*
X014723Y025405D02*
X014723Y025906D01*
X014974Y025906D01*
X015239Y025822D02*
X015322Y025906D01*
X015489Y025906D01*
X015573Y025822D01*
X015573Y025739D01*
X015239Y025405D01*
X015573Y025405D01*
X015755Y025405D02*
X015755Y025489D01*
X016088Y025822D01*
X016088Y025906D01*
X015755Y025906D01*
X015057Y025405D02*
X014890Y025572D01*
X012640Y024185D02*
X012642Y024258D01*
X012648Y024331D01*
X012658Y024403D01*
X012672Y024475D01*
X012689Y024546D01*
X012711Y024616D01*
X012736Y024685D01*
X012765Y024752D01*
X012797Y024817D01*
X012833Y024881D01*
X012873Y024943D01*
X012915Y025002D01*
X012961Y025059D01*
X013010Y025113D01*
X013062Y025165D01*
X013116Y025214D01*
X013173Y025260D01*
X013232Y025302D01*
X013294Y025342D01*
X013358Y025378D01*
X013423Y025410D01*
X013490Y025439D01*
X013559Y025464D01*
X013629Y025486D01*
X013700Y025503D01*
X013772Y025517D01*
X013844Y025527D01*
X013917Y025533D01*
X013990Y025535D01*
X014063Y025533D01*
X014136Y025527D01*
X014208Y025517D01*
X014280Y025503D01*
X014351Y025486D01*
X014421Y025464D01*
X014490Y025439D01*
X014557Y025410D01*
X014622Y025378D01*
X014686Y025342D01*
X014748Y025302D01*
X014807Y025260D01*
X014864Y025214D01*
X014918Y025165D01*
X014970Y025113D01*
X015019Y025059D01*
X015065Y025002D01*
X015107Y024943D01*
X015147Y024881D01*
X015183Y024817D01*
X015215Y024752D01*
X015244Y024685D01*
X015269Y024616D01*
X015291Y024546D01*
X015308Y024475D01*
X015322Y024403D01*
X015332Y024331D01*
X015338Y024258D01*
X015340Y024185D01*
X015338Y024112D01*
X015332Y024039D01*
X015322Y023967D01*
X015308Y023895D01*
X015291Y023824D01*
X015269Y023754D01*
X015244Y023685D01*
X015215Y023618D01*
X015183Y023553D01*
X015147Y023489D01*
X015107Y023427D01*
X015065Y023368D01*
X015019Y023311D01*
X014970Y023257D01*
X014918Y023205D01*
X014864Y023156D01*
X014807Y023110D01*
X014748Y023068D01*
X014686Y023028D01*
X014622Y022992D01*
X014557Y022960D01*
X014490Y022931D01*
X014421Y022906D01*
X014351Y022884D01*
X014280Y022867D01*
X014208Y022853D01*
X014136Y022843D01*
X014063Y022837D01*
X013990Y022835D01*
X013917Y022837D01*
X013844Y022843D01*
X013772Y022853D01*
X013700Y022867D01*
X013629Y022884D01*
X013559Y022906D01*
X013490Y022931D01*
X013423Y022960D01*
X013358Y022992D01*
X013294Y023028D01*
X013232Y023068D01*
X013173Y023110D01*
X013116Y023156D01*
X013062Y023205D01*
X013010Y023257D01*
X012961Y023311D01*
X012915Y023368D01*
X012873Y023427D01*
X012833Y023489D01*
X012797Y023553D01*
X012765Y023618D01*
X012736Y023685D01*
X012711Y023754D01*
X012689Y023824D01*
X012672Y023895D01*
X012658Y023967D01*
X012648Y024039D01*
X012642Y024112D01*
X012640Y024185D01*
X013104Y022566D02*
X013020Y022482D01*
X013020Y022149D01*
X013104Y022065D01*
X013270Y022065D01*
X013354Y022149D01*
X013536Y022149D02*
X013619Y022065D01*
X013786Y022065D01*
X013869Y022149D01*
X013869Y022232D01*
X013786Y022315D01*
X013703Y022315D01*
X013786Y022315D02*
X013869Y022399D01*
X013869Y022482D01*
X013786Y022566D01*
X013619Y022566D01*
X013536Y022482D01*
X013354Y022482D02*
X013270Y022566D01*
X013104Y022566D01*
X014051Y022482D02*
X014135Y022566D01*
X014302Y022566D01*
X014385Y022482D01*
X014051Y022149D01*
X014135Y022065D01*
X014302Y022065D01*
X014385Y022149D01*
X014385Y022482D01*
X014051Y022482D02*
X014051Y022149D01*
X014923Y022639D02*
X015007Y022555D01*
X015174Y022555D01*
X015257Y022639D01*
X015439Y022639D02*
X015522Y022555D01*
X015689Y022555D01*
X015773Y022639D01*
X015773Y022805D01*
X015689Y022889D01*
X015606Y022889D01*
X015439Y022805D01*
X015439Y023056D01*
X015773Y023056D01*
X015955Y023056D02*
X016288Y023056D01*
X016288Y022972D01*
X015955Y022639D01*
X015955Y022555D01*
X016293Y021980D02*
X016210Y021897D01*
X016210Y021730D01*
X016293Y021646D01*
X016377Y021646D01*
X016460Y021730D01*
X016460Y021980D01*
X016627Y021980D02*
X016293Y021980D01*
X016627Y021980D02*
X016710Y021897D01*
X016710Y021730D01*
X016627Y021646D01*
X016710Y021464D02*
X016710Y021131D01*
X016377Y021464D01*
X016293Y021464D01*
X016210Y021381D01*
X016210Y021214D01*
X016293Y021131D01*
X016293Y020949D02*
X016210Y020865D01*
X016210Y020699D01*
X016293Y020615D01*
X016627Y020615D01*
X016710Y020699D01*
X016710Y020865D01*
X016627Y020949D01*
X017160Y020865D02*
X017160Y020699D01*
X017243Y020615D01*
X017577Y020615D01*
X017660Y020699D01*
X017660Y020865D01*
X017577Y020949D01*
X017660Y021131D02*
X017660Y021464D01*
X017660Y021298D02*
X017160Y021298D01*
X017327Y021131D01*
X017243Y020949D02*
X017160Y020865D01*
X018060Y020865D02*
X018060Y020699D01*
X018143Y020615D01*
X018477Y020615D01*
X018560Y020699D01*
X018560Y020865D01*
X018477Y020949D01*
X018560Y021131D02*
X018227Y021464D01*
X018143Y021464D01*
X018060Y021381D01*
X018060Y021214D01*
X018143Y021131D01*
X018143Y020949D02*
X018060Y020865D01*
X018560Y021131D02*
X018560Y021464D01*
X018477Y021646D02*
X018393Y021646D01*
X018310Y021730D01*
X018310Y021897D01*
X018393Y021980D01*
X018477Y021980D01*
X018560Y021897D01*
X018560Y021730D01*
X018477Y021646D01*
X018310Y021730D02*
X018227Y021646D01*
X018143Y021646D01*
X018060Y021730D01*
X018060Y021897D01*
X018143Y021980D01*
X018227Y021980D01*
X018310Y021897D01*
X017660Y021980D02*
X017660Y021646D01*
X017327Y021980D01*
X017243Y021980D01*
X017160Y021897D01*
X017160Y021730D01*
X017243Y021646D01*
X015257Y022972D02*
X015174Y023056D01*
X015007Y023056D01*
X014923Y022972D01*
X014923Y022639D01*
X019220Y023015D02*
X019220Y023516D01*
X019470Y023516D01*
X019554Y023432D01*
X019554Y023265D01*
X019470Y023182D01*
X019220Y023182D01*
X019387Y023182D02*
X019554Y023015D01*
X019736Y023265D02*
X020069Y023265D01*
X020251Y023265D02*
X020502Y023265D01*
X020585Y023182D01*
X020585Y023099D01*
X020502Y023015D01*
X020335Y023015D01*
X020251Y023099D01*
X020251Y023265D01*
X020418Y023432D01*
X020585Y023516D01*
X020585Y023615D02*
X020251Y023615D01*
X020585Y023949D01*
X020585Y024032D01*
X020502Y024116D01*
X020335Y024116D01*
X020251Y024032D01*
X020069Y024116D02*
X019903Y024032D01*
X019736Y023865D01*
X019986Y023865D01*
X020069Y023782D01*
X020069Y023699D01*
X019986Y023615D01*
X019819Y023615D01*
X019736Y023699D01*
X019736Y023865D01*
X019554Y023865D02*
X019470Y023782D01*
X019220Y023782D01*
X019220Y023615D02*
X019220Y024116D01*
X019470Y024116D01*
X019554Y024032D01*
X019554Y023865D01*
X019387Y023782D02*
X019554Y023615D01*
X019736Y023265D02*
X019986Y023516D01*
X019986Y023015D01*
X020820Y023665D02*
X020987Y023665D01*
X020904Y023665D02*
X020904Y024166D01*
X020987Y024166D02*
X020820Y024166D01*
X021164Y024082D02*
X021164Y023749D01*
X021247Y023665D01*
X021414Y023665D01*
X021498Y023749D01*
X021680Y023915D02*
X022013Y023915D01*
X021930Y023665D02*
X021930Y024166D01*
X021680Y023915D01*
X021498Y024082D02*
X021414Y024166D01*
X021247Y024166D01*
X021164Y024082D01*
X022620Y024166D02*
X022787Y024166D01*
X022704Y024166D02*
X022704Y023665D01*
X022787Y023665D02*
X022620Y023665D01*
X022964Y023749D02*
X023047Y023665D01*
X023214Y023665D01*
X023298Y023749D01*
X023480Y023749D02*
X023563Y023665D01*
X023730Y023665D01*
X023813Y023749D01*
X023813Y023832D01*
X023730Y023915D01*
X023646Y023915D01*
X023730Y023915D02*
X023813Y023999D01*
X023813Y024082D01*
X023730Y024166D01*
X023563Y024166D01*
X023480Y024082D01*
X023298Y024082D02*
X023214Y024166D01*
X023047Y024166D01*
X022964Y024082D01*
X022964Y023749D01*
X023870Y024449D02*
X023954Y024365D01*
X024120Y024365D01*
X024204Y024449D01*
X024386Y024365D02*
X024719Y024365D01*
X024553Y024365D02*
X024553Y024866D01*
X024386Y024699D01*
X024204Y024782D02*
X024120Y024866D01*
X023954Y024866D01*
X023870Y024782D01*
X023870Y024449D01*
X024901Y024449D02*
X024985Y024365D01*
X025152Y024365D01*
X025235Y024449D01*
X025235Y024782D01*
X025152Y024866D01*
X024985Y024866D01*
X024901Y024782D01*
X024901Y024699D01*
X024985Y024615D01*
X025235Y024615D01*
X025274Y025105D02*
X025357Y025189D01*
X025274Y025105D02*
X025107Y025105D01*
X025023Y025189D01*
X025023Y025522D01*
X025107Y025606D01*
X025274Y025606D01*
X025357Y025522D01*
X025539Y025606D02*
X025539Y025355D01*
X025706Y025439D01*
X025789Y025439D01*
X025873Y025355D01*
X025873Y025189D01*
X025789Y025105D01*
X025622Y025105D01*
X025539Y025189D01*
X025539Y025606D02*
X025873Y025606D01*
X026055Y025522D02*
X026055Y025439D01*
X026138Y025355D01*
X026305Y025355D01*
X026388Y025272D01*
X026388Y025189D01*
X026305Y025105D01*
X026138Y025105D01*
X026055Y025189D01*
X026055Y025272D01*
X026138Y025355D01*
X026305Y025355D02*
X026388Y025439D01*
X026388Y025522D01*
X026305Y025606D01*
X026138Y025606D01*
X026055Y025522D01*
X027020Y025399D02*
X027020Y025732D01*
X027104Y025816D01*
X027270Y025816D01*
X027354Y025732D01*
X027536Y025649D02*
X027703Y025816D01*
X027703Y025315D01*
X027869Y025315D02*
X027536Y025315D01*
X027354Y025399D02*
X027270Y025315D01*
X027104Y025315D01*
X027020Y025399D01*
X028120Y026515D02*
X028120Y027016D01*
X028370Y027016D01*
X028454Y026932D01*
X028454Y026765D01*
X028370Y026682D01*
X028120Y026682D01*
X028287Y026682D02*
X028454Y026515D01*
X028636Y026515D02*
X028636Y027016D01*
X028969Y026515D01*
X028969Y027016D01*
X029151Y026932D02*
X029235Y027016D01*
X029402Y027016D01*
X029485Y026932D01*
X029485Y026849D01*
X029402Y026765D01*
X029485Y026682D01*
X029485Y026599D01*
X029402Y026515D01*
X029235Y026515D01*
X029151Y026599D01*
X029318Y026765D02*
X029402Y026765D01*
X031089Y025972D02*
X031089Y025639D01*
X031172Y025555D01*
X031339Y025555D01*
X031423Y025639D01*
X031605Y025639D02*
X031688Y025555D01*
X031855Y025555D01*
X031938Y025639D01*
X031938Y025722D01*
X031855Y025805D01*
X031771Y025805D01*
X031855Y025805D02*
X031938Y025889D01*
X031938Y025972D01*
X031855Y026056D01*
X031688Y026056D01*
X031605Y025972D01*
X031423Y025972D02*
X031339Y026056D01*
X031172Y026056D01*
X031089Y025972D01*
X031027Y024658D02*
X030860Y024658D01*
X030777Y024575D01*
X030777Y024491D01*
X030860Y024325D01*
X030610Y024325D01*
X030610Y024658D01*
X031027Y024658D02*
X031110Y024575D01*
X031110Y024408D01*
X031027Y024325D01*
X031027Y024143D02*
X031110Y024059D01*
X031110Y023892D01*
X031027Y023809D01*
X030693Y023809D01*
X030610Y023892D01*
X030610Y024059D01*
X030693Y024143D01*
X030610Y023632D02*
X030610Y023465D01*
X030610Y023549D02*
X031110Y023549D01*
X031110Y023632D02*
X031110Y023465D01*
X033020Y023634D02*
X033020Y023884D01*
X033103Y023968D01*
X033270Y023968D01*
X033353Y023884D01*
X033353Y023634D01*
X033353Y023801D02*
X033520Y023968D01*
X033437Y024150D02*
X033520Y024233D01*
X033520Y024400D01*
X033437Y024483D01*
X033270Y024483D01*
X033187Y024400D01*
X033187Y024316D01*
X033270Y024150D01*
X033020Y024150D01*
X033020Y024483D01*
X033020Y023634D02*
X033520Y023634D01*
X035470Y024865D02*
X035470Y025366D01*
X035720Y025366D01*
X035804Y025282D01*
X035804Y025115D01*
X035720Y025032D01*
X035470Y025032D01*
X035637Y025032D02*
X035804Y024865D01*
X035986Y025115D02*
X036236Y025366D01*
X036236Y024865D01*
X036319Y025115D02*
X035986Y025115D01*
X036501Y024949D02*
X036501Y024865D01*
X036501Y024949D02*
X036835Y025282D01*
X036835Y025366D01*
X036501Y025366D01*
X035520Y025717D02*
X035520Y025884D01*
X035437Y025968D01*
X035520Y026150D02*
X035187Y026483D01*
X035103Y026483D01*
X035020Y026400D01*
X035020Y026233D01*
X035103Y026150D01*
X035103Y025968D02*
X035020Y025884D01*
X035020Y025717D01*
X035103Y025634D01*
X035437Y025634D01*
X035520Y025717D01*
X035520Y026150D02*
X035520Y026483D01*
X034888Y027089D02*
X034888Y027172D01*
X034805Y027255D01*
X034555Y027255D01*
X034555Y027089D01*
X034638Y027005D01*
X034805Y027005D01*
X034888Y027089D01*
X034721Y027422D02*
X034555Y027255D01*
X034721Y027422D02*
X034888Y027506D01*
X034373Y027422D02*
X034289Y027506D01*
X034122Y027506D01*
X034039Y027422D01*
X034039Y027089D01*
X034122Y027005D01*
X034289Y027005D01*
X034373Y027089D01*
X033862Y027005D02*
X033695Y027005D01*
X033779Y027005D02*
X033779Y027506D01*
X033862Y027506D02*
X033695Y027506D01*
X035370Y028015D02*
X035370Y028516D01*
X035620Y028516D01*
X035704Y028432D01*
X035704Y028265D01*
X035620Y028182D01*
X035370Y028182D01*
X035537Y028182D02*
X035704Y028015D01*
X035886Y028265D02*
X036219Y028265D01*
X036401Y028182D02*
X036485Y028265D01*
X036652Y028265D01*
X036735Y028182D01*
X036735Y028099D01*
X036652Y028015D01*
X036485Y028015D01*
X036401Y028099D01*
X036401Y028182D01*
X036485Y028265D02*
X036401Y028349D01*
X036401Y028432D01*
X036485Y028516D01*
X036652Y028516D01*
X036735Y028432D01*
X036735Y028349D01*
X036652Y028265D01*
X036136Y028015D02*
X036136Y028516D01*
X035886Y028265D01*
X039089Y025106D02*
X039339Y025106D01*
X039423Y025022D01*
X039423Y024855D01*
X039339Y024772D01*
X039089Y024772D01*
X039256Y024772D02*
X039423Y024605D01*
X039605Y024605D02*
X039938Y024939D01*
X039938Y025022D01*
X039855Y025106D01*
X039688Y025106D01*
X039605Y025022D01*
X039605Y024605D02*
X039938Y024605D01*
X039938Y024256D02*
X039605Y024256D01*
X039605Y024005D01*
X039771Y024089D01*
X039855Y024089D01*
X039938Y024005D01*
X039938Y023839D01*
X039855Y023755D01*
X039688Y023755D01*
X039605Y023839D01*
X039423Y023839D02*
X039339Y023755D01*
X039172Y023755D01*
X039089Y023839D01*
X039089Y024172D01*
X039172Y024256D01*
X039339Y024256D01*
X039423Y024172D01*
X039089Y024605D02*
X039089Y025106D01*
X039172Y023456D02*
X039339Y023456D01*
X039423Y023372D01*
X039423Y023289D01*
X039339Y023205D01*
X039423Y023122D01*
X039423Y023039D01*
X039339Y022955D01*
X039172Y022955D01*
X039089Y023039D01*
X038907Y022955D02*
X038740Y023122D01*
X038824Y023122D02*
X038573Y023122D01*
X038573Y022955D02*
X038573Y023456D01*
X038824Y023456D01*
X038907Y023372D01*
X038907Y023205D01*
X038824Y023122D01*
X038824Y022806D02*
X038657Y022806D01*
X038573Y022722D01*
X038573Y022389D01*
X038657Y022305D01*
X038824Y022305D01*
X038907Y022389D01*
X039089Y022305D02*
X039423Y022639D01*
X039423Y022722D01*
X039339Y022806D01*
X039172Y022806D01*
X039089Y022722D01*
X038907Y022722D02*
X038824Y022806D01*
X039089Y022305D02*
X039423Y022305D01*
X039605Y022555D02*
X039938Y022555D01*
X039855Y022305D02*
X039855Y022806D01*
X039605Y022555D01*
X039688Y022955D02*
X039855Y022955D01*
X039938Y023039D01*
X039938Y023122D01*
X039855Y023205D01*
X039605Y023205D01*
X039605Y023039D01*
X039688Y022955D01*
X039605Y023205D02*
X039771Y023372D01*
X039938Y023456D01*
X039339Y023205D02*
X039256Y023205D01*
X039089Y023372D02*
X039172Y023456D01*
X041289Y021606D02*
X041539Y021606D01*
X041623Y021522D01*
X041623Y021355D01*
X041539Y021272D01*
X041289Y021272D01*
X041456Y021272D02*
X041623Y021105D01*
X041805Y021355D02*
X042138Y021355D01*
X042055Y021105D02*
X042055Y021606D01*
X041805Y021355D01*
X041289Y021105D02*
X041289Y021606D01*
X041027Y020530D02*
X041110Y020447D01*
X041110Y020280D01*
X041027Y020196D01*
X041110Y020014D02*
X041110Y019681D01*
X041110Y019848D02*
X040610Y019848D01*
X040777Y019681D01*
X040693Y019499D02*
X040860Y019499D01*
X040943Y019415D01*
X040943Y019165D01*
X040943Y019332D02*
X041110Y019499D01*
X041360Y019415D02*
X041443Y019499D01*
X041360Y019415D02*
X041360Y019249D01*
X041443Y019165D01*
X041777Y019165D01*
X041860Y019249D01*
X041860Y019415D01*
X041777Y019499D01*
X041860Y019681D02*
X041527Y020014D01*
X041443Y020014D01*
X041360Y019931D01*
X041360Y019764D01*
X041443Y019681D01*
X041860Y019681D02*
X041860Y020014D01*
X041860Y020196D02*
X041860Y020530D01*
X041860Y020363D02*
X041360Y020363D01*
X041527Y020196D01*
X041027Y020530D02*
X040943Y020530D01*
X040860Y020447D01*
X040860Y020363D01*
X040860Y020447D02*
X040777Y020530D01*
X040693Y020530D01*
X040610Y020447D01*
X040610Y020280D01*
X040693Y020196D01*
X040310Y019931D02*
X040227Y020014D01*
X040143Y020014D01*
X040060Y019931D01*
X040060Y019681D01*
X040227Y019681D01*
X040310Y019764D01*
X040310Y019931D01*
X040060Y019681D02*
X039893Y019848D01*
X039810Y020014D01*
X039893Y019499D02*
X039810Y019415D01*
X039810Y019249D01*
X039893Y019165D01*
X040227Y019165D01*
X040310Y019249D01*
X040310Y019415D01*
X040227Y019499D01*
X040610Y019415D02*
X040693Y019499D01*
X040610Y019415D02*
X040610Y019165D01*
X041110Y019165D01*
X041690Y017985D02*
X041690Y016685D01*
X040990Y016435D02*
X040990Y015935D01*
X040740Y015685D01*
X040990Y015435D01*
X040990Y014935D01*
X040740Y014685D01*
X040990Y014435D01*
X040990Y013935D01*
X040740Y013685D01*
X040240Y013685D01*
X039990Y013935D01*
X039990Y014435D01*
X040240Y014685D01*
X039990Y014935D01*
X039990Y015435D01*
X040240Y015685D01*
X039990Y015935D01*
X039990Y016435D01*
X040240Y016685D01*
X039990Y016935D01*
X039990Y017435D01*
X040240Y017685D01*
X040740Y017685D01*
X040990Y017435D01*
X040990Y016935D01*
X040740Y016685D01*
X040990Y016435D01*
X041690Y015935D02*
X041690Y012385D01*
X042790Y012385D01*
X045190Y012385D01*
X046290Y012385D01*
X046290Y014085D01*
X046510Y014108D02*
X047010Y014108D01*
X046510Y013775D01*
X047010Y013775D01*
X047010Y013598D02*
X047010Y013431D01*
X047010Y013514D02*
X046510Y013514D01*
X046510Y013431D02*
X046510Y013598D01*
X047010Y013249D02*
X047010Y012915D01*
X046510Y012915D01*
X046510Y014290D02*
X047010Y014290D01*
X047010Y014624D01*
X047010Y014806D02*
X047010Y015139D01*
X047010Y014973D02*
X046510Y014973D01*
X046677Y014806D01*
X046510Y014624D02*
X046510Y014290D01*
X046760Y014290D02*
X046760Y014457D01*
X046290Y014935D02*
X046290Y017985D01*
X041690Y017985D01*
X039685Y018032D02*
X039685Y017699D01*
X039602Y017615D01*
X039435Y017615D01*
X039351Y017699D01*
X039169Y017699D02*
X039086Y017615D01*
X038919Y017615D01*
X038836Y017699D01*
X038836Y017865D02*
X039003Y017949D01*
X039086Y017949D01*
X039169Y017865D01*
X039169Y017699D01*
X039351Y017949D02*
X039435Y017865D01*
X039685Y017865D01*
X039685Y018032D02*
X039602Y018116D01*
X039435Y018116D01*
X039351Y018032D01*
X039351Y017949D01*
X039169Y018116D02*
X038836Y018116D01*
X038836Y017865D01*
X038654Y017699D02*
X038570Y017615D01*
X038404Y017615D01*
X038320Y017699D01*
X038320Y018032D01*
X038404Y018116D01*
X038570Y018116D01*
X038654Y018032D01*
X038490Y019485D02*
X038490Y019785D01*
X038640Y019635D02*
X038340Y019635D01*
X037140Y020685D02*
X037142Y020758D01*
X037148Y020831D01*
X037158Y020903D01*
X037172Y020975D01*
X037189Y021046D01*
X037211Y021116D01*
X037236Y021185D01*
X037265Y021252D01*
X037297Y021317D01*
X037333Y021381D01*
X037373Y021443D01*
X037415Y021502D01*
X037461Y021559D01*
X037510Y021613D01*
X037562Y021665D01*
X037616Y021714D01*
X037673Y021760D01*
X037732Y021802D01*
X037794Y021842D01*
X037858Y021878D01*
X037923Y021910D01*
X037990Y021939D01*
X038059Y021964D01*
X038129Y021986D01*
X038200Y022003D01*
X038272Y022017D01*
X038344Y022027D01*
X038417Y022033D01*
X038490Y022035D01*
X038563Y022033D01*
X038636Y022027D01*
X038708Y022017D01*
X038780Y022003D01*
X038851Y021986D01*
X038921Y021964D01*
X038990Y021939D01*
X039057Y021910D01*
X039122Y021878D01*
X039186Y021842D01*
X039248Y021802D01*
X039307Y021760D01*
X039364Y021714D01*
X039418Y021665D01*
X039470Y021613D01*
X039519Y021559D01*
X039565Y021502D01*
X039607Y021443D01*
X039647Y021381D01*
X039683Y021317D01*
X039715Y021252D01*
X039744Y021185D01*
X039769Y021116D01*
X039791Y021046D01*
X039808Y020975D01*
X039822Y020903D01*
X039832Y020831D01*
X039838Y020758D01*
X039840Y020685D01*
X039838Y020612D01*
X039832Y020539D01*
X039822Y020467D01*
X039808Y020395D01*
X039791Y020324D01*
X039769Y020254D01*
X039744Y020185D01*
X039715Y020118D01*
X039683Y020053D01*
X039647Y019989D01*
X039607Y019927D01*
X039565Y019868D01*
X039519Y019811D01*
X039470Y019757D01*
X039418Y019705D01*
X039364Y019656D01*
X039307Y019610D01*
X039248Y019568D01*
X039186Y019528D01*
X039122Y019492D01*
X039057Y019460D01*
X038990Y019431D01*
X038921Y019406D01*
X038851Y019384D01*
X038780Y019367D01*
X038708Y019353D01*
X038636Y019343D01*
X038563Y019337D01*
X038490Y019335D01*
X038417Y019337D01*
X038344Y019343D01*
X038272Y019353D01*
X038200Y019367D01*
X038129Y019384D01*
X038059Y019406D01*
X037990Y019431D01*
X037923Y019460D01*
X037858Y019492D01*
X037794Y019528D01*
X037732Y019568D01*
X037673Y019610D01*
X037616Y019656D01*
X037562Y019705D01*
X037510Y019757D01*
X037461Y019811D01*
X037415Y019868D01*
X037373Y019927D01*
X037333Y019989D01*
X037297Y020053D01*
X037265Y020118D01*
X037236Y020185D01*
X037211Y020254D01*
X037189Y020324D01*
X037172Y020395D01*
X037158Y020467D01*
X037148Y020539D01*
X037142Y020612D01*
X037140Y020685D01*
X035268Y018366D02*
X035101Y018199D01*
X035268Y018366D02*
X035268Y017865D01*
X035101Y017865D02*
X035435Y017865D01*
X034919Y017865D02*
X034586Y018366D01*
X034404Y018366D02*
X034070Y018366D01*
X034237Y018366D02*
X034237Y017865D01*
X034586Y017865D02*
X034919Y018366D01*
X030435Y017865D02*
X030101Y017865D01*
X030268Y017865D02*
X030268Y018366D01*
X030101Y018199D01*
X029919Y018366D02*
X029586Y017865D01*
X029404Y017865D02*
X029237Y018032D01*
X029320Y018032D02*
X029070Y018032D01*
X029070Y017865D02*
X029070Y018366D01*
X029320Y018366D01*
X029404Y018282D01*
X029404Y018115D01*
X029320Y018032D01*
X029586Y018366D02*
X029919Y017865D01*
X028501Y021115D02*
X028167Y021115D01*
X028334Y021115D02*
X028334Y021616D01*
X028167Y021449D01*
X027985Y021365D02*
X027651Y021365D01*
X027651Y021115D02*
X027651Y021616D01*
X027469Y021616D02*
X027136Y021616D01*
X027303Y021616D02*
X027303Y021115D01*
X026954Y021115D02*
X026620Y021115D01*
X026620Y021616D01*
X026954Y021616D01*
X026787Y021365D02*
X026620Y021365D01*
X026540Y022535D02*
X026540Y022835D01*
X026690Y022685D02*
X026390Y022685D01*
X024140Y022685D02*
X024142Y022758D01*
X024148Y022831D01*
X024158Y022903D01*
X024172Y022975D01*
X024189Y023046D01*
X024211Y023116D01*
X024236Y023185D01*
X024265Y023252D01*
X024297Y023317D01*
X024333Y023381D01*
X024373Y023443D01*
X024415Y023502D01*
X024461Y023559D01*
X024510Y023613D01*
X024562Y023665D01*
X024616Y023714D01*
X024673Y023760D01*
X024732Y023802D01*
X024794Y023842D01*
X024858Y023878D01*
X024923Y023910D01*
X024990Y023939D01*
X025059Y023964D01*
X025129Y023986D01*
X025200Y024003D01*
X025272Y024017D01*
X025344Y024027D01*
X025417Y024033D01*
X025490Y024035D01*
X025563Y024033D01*
X025636Y024027D01*
X025708Y024017D01*
X025780Y024003D01*
X025851Y023986D01*
X025921Y023964D01*
X025990Y023939D01*
X026057Y023910D01*
X026122Y023878D01*
X026186Y023842D01*
X026248Y023802D01*
X026307Y023760D01*
X026364Y023714D01*
X026418Y023665D01*
X026470Y023613D01*
X026519Y023559D01*
X026565Y023502D01*
X026607Y023443D01*
X026647Y023381D01*
X026683Y023317D01*
X026715Y023252D01*
X026744Y023185D01*
X026769Y023116D01*
X026791Y023046D01*
X026808Y022975D01*
X026822Y022903D01*
X026832Y022831D01*
X026838Y022758D01*
X026840Y022685D01*
X026838Y022612D01*
X026832Y022539D01*
X026822Y022467D01*
X026808Y022395D01*
X026791Y022324D01*
X026769Y022254D01*
X026744Y022185D01*
X026715Y022118D01*
X026683Y022053D01*
X026647Y021989D01*
X026607Y021927D01*
X026565Y021868D01*
X026519Y021811D01*
X026470Y021757D01*
X026418Y021705D01*
X026364Y021656D01*
X026307Y021610D01*
X026248Y021568D01*
X026186Y021528D01*
X026122Y021492D01*
X026057Y021460D01*
X025990Y021431D01*
X025921Y021406D01*
X025851Y021384D01*
X025780Y021367D01*
X025708Y021353D01*
X025636Y021343D01*
X025563Y021337D01*
X025490Y021335D01*
X025417Y021337D01*
X025344Y021343D01*
X025272Y021353D01*
X025200Y021367D01*
X025129Y021384D01*
X025059Y021406D01*
X024990Y021431D01*
X024923Y021460D01*
X024858Y021492D01*
X024794Y021528D01*
X024732Y021568D01*
X024673Y021610D01*
X024616Y021656D01*
X024562Y021705D01*
X024510Y021757D01*
X024461Y021811D01*
X024415Y021868D01*
X024373Y021927D01*
X024333Y021989D01*
X024297Y022053D01*
X024265Y022118D01*
X024236Y022185D01*
X024211Y022254D01*
X024189Y022324D01*
X024172Y022395D01*
X024158Y022467D01*
X024148Y022539D01*
X024142Y022612D01*
X024140Y022685D01*
X024055Y021856D02*
X023888Y021856D01*
X023805Y021772D01*
X023971Y021605D02*
X024055Y021605D01*
X024138Y021522D01*
X024138Y021439D01*
X024055Y021355D01*
X023888Y021355D01*
X023805Y021439D01*
X023623Y021355D02*
X023289Y021355D01*
X023456Y021355D02*
X023456Y021856D01*
X023289Y021689D01*
X023107Y021772D02*
X023024Y021856D01*
X022857Y021856D01*
X022773Y021772D01*
X022773Y021439D01*
X022857Y021355D01*
X023024Y021355D01*
X023107Y021439D01*
X024055Y021605D02*
X024138Y021689D01*
X024138Y021772D01*
X024055Y021856D01*
X027985Y021616D02*
X027985Y021115D01*
X026751Y027915D02*
X026751Y027999D01*
X027085Y028332D01*
X027085Y028416D01*
X026751Y028416D01*
X026835Y028615D02*
X026751Y028699D01*
X026835Y028615D02*
X027002Y028615D01*
X027085Y028699D01*
X027085Y028865D01*
X027002Y028949D01*
X026918Y028949D01*
X026751Y028865D01*
X026751Y029116D01*
X027085Y029116D01*
X026403Y029116D02*
X026403Y028615D01*
X026569Y028615D02*
X026236Y028615D01*
X026054Y028615D02*
X025887Y028782D01*
X025970Y028782D02*
X025720Y028782D01*
X025720Y028615D02*
X025720Y029116D01*
X025970Y029116D01*
X026054Y029032D01*
X026054Y028865D01*
X025970Y028782D01*
X026236Y028949D02*
X026403Y029116D01*
X026236Y029315D02*
X026236Y029399D01*
X026569Y029732D01*
X026569Y029816D01*
X026236Y029816D01*
X026054Y029732D02*
X026054Y029565D01*
X025970Y029482D01*
X025720Y029482D01*
X025720Y029315D02*
X025720Y029816D01*
X025970Y029816D01*
X026054Y029732D01*
X026054Y030015D02*
X025887Y030182D01*
X025970Y030182D02*
X025720Y030182D01*
X025720Y030015D02*
X025720Y030516D01*
X025970Y030516D01*
X026054Y030432D01*
X026054Y030265D01*
X025970Y030182D01*
X026236Y030182D02*
X026319Y030265D01*
X026486Y030265D01*
X026569Y030182D01*
X026569Y030099D01*
X026486Y030015D01*
X026319Y030015D01*
X026236Y030099D01*
X026236Y030182D01*
X026319Y030265D02*
X026236Y030349D01*
X026236Y030432D01*
X026319Y030516D01*
X026486Y030516D01*
X026569Y030432D01*
X026569Y030349D01*
X026486Y030265D01*
X026569Y030715D02*
X026236Y030715D01*
X026569Y031049D01*
X026569Y031132D01*
X026486Y031216D01*
X026319Y031216D01*
X026236Y031132D01*
X026054Y031132D02*
X026054Y030965D01*
X025970Y030882D01*
X025720Y030882D01*
X025720Y030715D02*
X025720Y031216D01*
X025970Y031216D01*
X026054Y031132D01*
X026054Y031415D02*
X025887Y031582D01*
X025970Y031582D02*
X025720Y031582D01*
X025720Y031415D02*
X025720Y031916D01*
X025970Y031916D01*
X026054Y031832D01*
X026054Y031665D01*
X025970Y031582D01*
X026236Y031749D02*
X026403Y031916D01*
X026403Y031415D01*
X026569Y031415D02*
X026236Y031415D01*
X026751Y031499D02*
X026751Y031582D01*
X026835Y031665D01*
X027002Y031665D01*
X027085Y031582D01*
X027085Y031499D01*
X027002Y031415D01*
X026835Y031415D01*
X026751Y031499D01*
X026835Y031665D02*
X026751Y031749D01*
X026751Y031832D01*
X026835Y031916D01*
X027002Y031916D01*
X027085Y031832D01*
X027085Y031749D01*
X027002Y031665D01*
X027002Y031216D02*
X027085Y031132D01*
X026751Y030799D01*
X026835Y030715D01*
X027002Y030715D01*
X027085Y030799D01*
X027085Y031132D01*
X027002Y031216D02*
X026835Y031216D01*
X026751Y031132D01*
X026751Y030799D01*
X026054Y030715D02*
X025887Y030882D01*
X026054Y032115D02*
X025887Y032282D01*
X025970Y032282D02*
X025720Y032282D01*
X025720Y032115D02*
X025720Y032616D01*
X025970Y032616D01*
X026054Y032532D01*
X026054Y032365D01*
X025970Y032282D01*
X026236Y032199D02*
X026319Y032115D01*
X026486Y032115D01*
X026569Y032199D01*
X026569Y032282D01*
X026486Y032365D01*
X026403Y032365D01*
X026486Y032365D02*
X026569Y032449D01*
X026569Y032532D01*
X026486Y032616D01*
X026319Y032616D01*
X026236Y032532D01*
X026236Y032815D02*
X026569Y032815D01*
X026403Y032815D02*
X026403Y033316D01*
X026236Y033149D01*
X026054Y033232D02*
X026054Y033065D01*
X025970Y032982D01*
X025720Y032982D01*
X025720Y032815D02*
X025720Y033316D01*
X025970Y033316D01*
X026054Y033232D01*
X025887Y032982D02*
X026054Y032815D01*
X026751Y032899D02*
X026835Y032815D01*
X027002Y032815D01*
X027085Y032899D01*
X027085Y032982D01*
X027002Y033065D01*
X026751Y033065D01*
X026751Y032899D01*
X026751Y033065D02*
X026918Y033232D01*
X027085Y033316D01*
X027002Y032616D02*
X027085Y032532D01*
X027085Y032449D01*
X027002Y032365D01*
X027085Y032282D01*
X027085Y032199D01*
X027002Y032115D01*
X026835Y032115D01*
X026751Y032199D01*
X026918Y032365D02*
X027002Y032365D01*
X027002Y032616D02*
X026835Y032616D01*
X026751Y032532D01*
X024879Y032545D02*
X024879Y032712D01*
X024796Y032795D01*
X024462Y032795D01*
X024379Y032712D01*
X024379Y032545D01*
X024462Y032462D01*
X024796Y032462D01*
X024879Y032545D01*
X024879Y032280D02*
X024379Y032280D01*
X024629Y032280D02*
X024629Y031946D01*
X024879Y031946D02*
X024379Y031946D01*
X024462Y032977D02*
X024545Y032977D01*
X024629Y033061D01*
X024629Y033228D01*
X024712Y033311D01*
X024796Y033311D01*
X024879Y033228D01*
X024879Y033061D01*
X024796Y032977D01*
X024462Y032977D02*
X024379Y033061D01*
X024379Y033228D01*
X024462Y033311D01*
X024379Y033493D02*
X024379Y033827D01*
X024379Y033660D02*
X024879Y033660D01*
X024879Y034009D02*
X024879Y034342D01*
X024879Y034175D02*
X024379Y034175D01*
X024545Y034009D01*
X027143Y036965D02*
X027477Y036965D01*
X027560Y037049D01*
X027560Y037215D01*
X027477Y037299D01*
X027310Y037481D02*
X027310Y037814D01*
X027310Y037996D02*
X027310Y038330D01*
X027060Y038247D02*
X027310Y037996D01*
X027560Y038247D02*
X027060Y038247D01*
X027060Y037731D02*
X027310Y037481D01*
X027143Y037299D02*
X027060Y037215D01*
X027060Y037049D01*
X027143Y036965D01*
X027060Y037731D02*
X027560Y037731D01*
X026835Y038715D02*
X026501Y038715D01*
X026835Y039049D01*
X026835Y039132D01*
X026752Y039216D01*
X026585Y039216D01*
X026501Y039132D01*
X026319Y038965D02*
X025986Y038965D01*
X026236Y039216D01*
X026236Y038715D01*
X025804Y038799D02*
X025720Y038715D01*
X025554Y038715D01*
X025470Y038799D01*
X025470Y039132D01*
X025554Y039216D01*
X025720Y039216D01*
X025804Y039132D01*
X018510Y038347D02*
X018427Y038430D01*
X018343Y038430D01*
X018260Y038347D01*
X018260Y038096D01*
X018427Y038096D01*
X018510Y038180D01*
X018510Y038347D01*
X018260Y038096D02*
X018093Y038263D01*
X018010Y038430D01*
X017785Y038815D02*
X017451Y038815D01*
X017618Y038815D02*
X017618Y039316D01*
X017451Y039149D01*
X017269Y039065D02*
X016936Y039065D01*
X017186Y039316D01*
X017186Y038815D01*
X016754Y038899D02*
X016670Y038815D01*
X016504Y038815D01*
X016420Y038899D01*
X016420Y039232D01*
X016504Y039316D01*
X016670Y039316D01*
X016754Y039232D01*
X016436Y039615D02*
X016436Y040082D01*
X016202Y040316D01*
X015969Y040082D01*
X015969Y039615D01*
X015736Y039732D02*
X015619Y039615D01*
X015386Y039615D01*
X015269Y039732D01*
X015269Y039849D01*
X015386Y039965D01*
X015619Y039965D01*
X015736Y039849D01*
X015736Y039732D01*
X015619Y039965D02*
X015736Y040082D01*
X015736Y040199D01*
X015619Y040316D01*
X015386Y040316D01*
X015269Y040199D01*
X015269Y040082D01*
X015386Y039965D01*
X015036Y039732D02*
X014920Y039615D01*
X014686Y039615D01*
X014569Y039732D01*
X014569Y040199D01*
X014686Y040316D01*
X014920Y040316D01*
X015036Y040199D01*
X015445Y040735D02*
X034945Y040735D01*
X034975Y040737D01*
X035005Y040742D01*
X035034Y040751D01*
X035061Y040764D01*
X035087Y040779D01*
X035111Y040798D01*
X035132Y040819D01*
X035151Y040843D01*
X035166Y040869D01*
X035179Y040896D01*
X035188Y040925D01*
X035193Y040955D01*
X035195Y040985D01*
X035195Y042885D01*
X035193Y042915D01*
X035188Y042945D01*
X035179Y042974D01*
X035166Y043001D01*
X035151Y043027D01*
X035132Y043051D01*
X035111Y043072D01*
X035087Y043091D01*
X035061Y043106D01*
X035034Y043119D01*
X035005Y043128D01*
X034975Y043133D01*
X034945Y043135D01*
X015445Y043135D01*
X015415Y043133D01*
X015385Y043128D01*
X015356Y043119D01*
X015329Y043106D01*
X015303Y043091D01*
X015279Y043072D01*
X015258Y043051D01*
X015239Y043027D01*
X015224Y043001D01*
X015211Y042974D01*
X015202Y042945D01*
X015197Y042915D01*
X015195Y042885D01*
X015195Y040985D01*
X015197Y040955D01*
X015202Y040925D01*
X015211Y040896D01*
X015224Y040869D01*
X015239Y040843D01*
X015258Y040819D01*
X015279Y040798D01*
X015303Y040779D01*
X015329Y040764D01*
X015356Y040751D01*
X015385Y040742D01*
X015415Y040737D01*
X015445Y040735D01*
X014337Y040316D02*
X013870Y040316D01*
X013870Y039615D01*
X014337Y039615D01*
X014103Y039965D02*
X013870Y039965D01*
X013637Y039732D02*
X013520Y039615D01*
X013286Y039615D01*
X013170Y039732D01*
X013637Y040199D01*
X013637Y039732D01*
X013637Y040199D02*
X013520Y040316D01*
X013286Y040316D01*
X013170Y040199D01*
X013170Y039732D01*
X012937Y039615D02*
X012470Y039615D01*
X012470Y040316D01*
X012937Y040316D01*
X012704Y039965D02*
X012470Y039965D01*
X012237Y039732D02*
X012237Y040199D01*
X012121Y040316D01*
X011770Y040316D01*
X011770Y039615D01*
X012121Y039615D01*
X012237Y039732D01*
X015969Y039965D02*
X016436Y039965D01*
X016669Y039965D02*
X017136Y039965D01*
X017368Y040199D02*
X017485Y040316D01*
X017719Y040316D01*
X017835Y040199D01*
X017835Y040082D01*
X017368Y039615D01*
X017835Y039615D01*
X018260Y037914D02*
X018260Y037581D01*
X018010Y037831D01*
X018510Y037831D01*
X018427Y037399D02*
X018510Y037315D01*
X018510Y037149D01*
X018427Y037065D01*
X018093Y037065D01*
X018010Y037149D01*
X018010Y037315D01*
X018093Y037399D01*
X025887Y029482D02*
X026054Y029315D01*
X025970Y028416D02*
X026054Y028332D01*
X026054Y028165D01*
X025970Y028082D01*
X025720Y028082D01*
X025720Y027915D02*
X025720Y028416D01*
X025970Y028416D01*
X026236Y028249D02*
X026403Y028416D01*
X026403Y027915D01*
X026569Y027915D02*
X026236Y027915D01*
X026054Y027915D02*
X025887Y028082D01*
X014910Y028146D02*
X014827Y028146D01*
X014493Y028480D01*
X014410Y028480D01*
X014410Y028146D01*
X014410Y027798D02*
X014910Y027798D01*
X014910Y027964D02*
X014910Y027631D01*
X014827Y027449D02*
X014910Y027365D01*
X014910Y027199D01*
X014827Y027115D01*
X014493Y027115D01*
X014410Y027199D01*
X014410Y027365D01*
X014493Y027449D01*
X014577Y027631D02*
X014410Y027798D01*
X014837Y017202D02*
X014920Y017119D01*
X014920Y016952D01*
X014602Y013566D02*
X014685Y013482D01*
X014351Y013149D01*
X014435Y013065D01*
X014602Y013065D01*
X014685Y013149D01*
X014685Y013482D01*
X014602Y013566D02*
X014435Y013566D01*
X014351Y013482D01*
X014351Y013149D01*
X039260Y013799D02*
X039343Y013715D01*
X039427Y013715D01*
X039510Y013799D01*
X039510Y013965D01*
X039593Y014049D01*
X039677Y014049D01*
X039760Y013965D01*
X039760Y013799D01*
X039677Y013715D01*
X039260Y013799D02*
X039260Y013965D01*
X039343Y014049D01*
X039260Y014231D02*
X039260Y014481D01*
X039343Y014564D01*
X039510Y014564D01*
X039593Y014481D01*
X039593Y014231D01*
X039760Y014231D02*
X039260Y014231D01*
X039427Y014746D02*
X039260Y014913D01*
X039760Y014913D01*
X039760Y014746D02*
X039760Y015080D01*
X043710Y018365D02*
X043710Y018532D01*
X043710Y018449D02*
X044210Y018449D01*
X044210Y018532D02*
X044210Y018365D01*
X044127Y018709D02*
X044210Y018792D01*
X044210Y018959D01*
X044127Y019043D01*
X044127Y019225D02*
X044043Y019225D01*
X043960Y019308D01*
X043960Y019475D01*
X044043Y019558D01*
X044127Y019558D01*
X044210Y019475D01*
X044210Y019308D01*
X044127Y019225D01*
X043960Y019308D02*
X043877Y019225D01*
X043793Y019225D01*
X043710Y019308D01*
X043710Y019475D01*
X043793Y019558D01*
X043877Y019558D01*
X043960Y019475D01*
X043793Y019043D02*
X043710Y018959D01*
X043710Y018792D01*
X043793Y018709D01*
X044127Y018709D01*
X045810Y019249D02*
X045893Y019165D01*
X046227Y019165D01*
X046310Y019249D01*
X046310Y019415D01*
X046227Y019499D01*
X046227Y019681D02*
X046310Y019764D01*
X046310Y019931D01*
X046227Y020014D01*
X045893Y020014D01*
X045810Y019931D01*
X045810Y019764D01*
X045893Y019681D01*
X045977Y019681D01*
X046060Y019764D01*
X046060Y020014D01*
X045893Y019499D02*
X045810Y019415D01*
X045810Y019249D01*
X046610Y019165D02*
X046610Y019415D01*
X046693Y019499D01*
X046860Y019499D01*
X046943Y019415D01*
X046943Y019165D01*
X046943Y019332D02*
X047110Y019499D01*
X047027Y019681D02*
X047110Y019764D01*
X047110Y019931D01*
X047027Y020014D01*
X046943Y020014D01*
X046860Y019931D01*
X046860Y019681D01*
X047027Y019681D01*
X046860Y019681D02*
X046693Y019848D01*
X046610Y020014D01*
X046610Y019165D02*
X047110Y019165D01*
X046636Y021115D02*
X046469Y021115D01*
X046386Y021199D01*
X046204Y021115D02*
X046037Y021282D01*
X046120Y021282D02*
X045870Y021282D01*
X045870Y021115D02*
X045870Y021616D01*
X046120Y021616D01*
X046204Y021532D01*
X046204Y021365D01*
X046120Y021282D01*
X046386Y021532D02*
X046469Y021616D01*
X046636Y021616D01*
X046719Y021532D01*
X046719Y021449D01*
X046636Y021365D01*
X046719Y021282D01*
X046719Y021199D01*
X046636Y021115D01*
X046636Y021365D02*
X046553Y021365D01*
X047920Y022149D02*
X048004Y022065D01*
X048170Y022065D01*
X048254Y022149D01*
X048436Y022065D02*
X048769Y022399D01*
X048769Y022482D01*
X048686Y022566D01*
X048519Y022566D01*
X048436Y022482D01*
X048254Y022482D02*
X048170Y022566D01*
X048004Y022566D01*
X047920Y022482D01*
X047920Y022149D01*
X048436Y022065D02*
X048769Y022065D01*
X048951Y022149D02*
X049035Y022065D01*
X049202Y022065D01*
X049285Y022149D01*
X049285Y022232D01*
X049202Y022315D01*
X049118Y022315D01*
X049202Y022315D02*
X049285Y022399D01*
X049285Y022482D01*
X049202Y022566D01*
X049035Y022566D01*
X048951Y022482D01*
X049035Y022915D02*
X048951Y022999D01*
X049035Y022915D02*
X049202Y022915D01*
X049285Y022999D01*
X049285Y023165D01*
X049202Y023249D01*
X049118Y023249D01*
X048951Y023165D01*
X048951Y023416D01*
X049285Y023416D01*
X048769Y023332D02*
X048769Y023249D01*
X048686Y023165D01*
X048769Y023082D01*
X048769Y022999D01*
X048686Y022915D01*
X048519Y022915D01*
X048436Y022999D01*
X048254Y022915D02*
X048087Y023082D01*
X048170Y023082D02*
X047920Y023082D01*
X047920Y022915D02*
X047920Y023416D01*
X048170Y023416D01*
X048254Y023332D01*
X048254Y023165D01*
X048170Y023082D01*
X048436Y023332D02*
X048519Y023416D01*
X048686Y023416D01*
X048769Y023332D01*
X048686Y023165D02*
X048603Y023165D01*
X048686Y023765D02*
X048686Y024266D01*
X048436Y024015D01*
X048769Y024015D01*
X048254Y023849D02*
X048170Y023765D01*
X048004Y023765D01*
X047920Y023849D01*
X047920Y024182D01*
X048004Y024266D01*
X048170Y024266D01*
X048254Y024182D01*
X048254Y024565D02*
X048087Y024732D01*
X048170Y024732D02*
X047920Y024732D01*
X047920Y024565D02*
X047920Y025066D01*
X048170Y025066D01*
X048254Y024982D01*
X048254Y024815D01*
X048170Y024732D01*
X048436Y024899D02*
X048603Y025066D01*
X048603Y024565D01*
X048769Y024565D02*
X048436Y024565D01*
X046335Y023965D02*
X046001Y023965D01*
X046252Y024216D01*
X046252Y023715D01*
X045819Y023715D02*
X045486Y023715D01*
X045653Y023715D02*
X045653Y024216D01*
X045486Y024049D01*
X045304Y024132D02*
X045304Y023965D01*
X045220Y023882D01*
X044970Y023882D01*
X044970Y023715D02*
X044970Y024216D01*
X045220Y024216D01*
X045304Y024132D01*
X045235Y024415D02*
X045402Y024415D01*
X045485Y024499D01*
X045485Y024582D01*
X045402Y024665D01*
X045151Y024665D01*
X045151Y024499D01*
X045235Y024415D01*
X045151Y024665D02*
X045318Y024832D01*
X045485Y024916D01*
X044969Y024832D02*
X044886Y024916D01*
X044719Y024916D01*
X044636Y024832D01*
X044454Y024832D02*
X044370Y024916D01*
X044204Y024916D01*
X044120Y024832D01*
X044120Y024499D01*
X044204Y024415D01*
X044370Y024415D01*
X044454Y024499D01*
X044636Y024415D02*
X044969Y024749D01*
X044969Y024832D01*
X044969Y024415D02*
X044636Y024415D01*
X045137Y023882D02*
X045304Y023715D01*
X043535Y024415D02*
X043201Y024415D01*
X043535Y024749D01*
X043535Y024832D01*
X043452Y024916D01*
X043285Y024916D01*
X043201Y024832D01*
X043019Y024832D02*
X042936Y024916D01*
X042769Y024916D01*
X042686Y024832D01*
X042504Y024832D02*
X042420Y024916D01*
X042254Y024916D01*
X042170Y024832D01*
X042170Y024499D01*
X042254Y024415D01*
X042420Y024415D01*
X042504Y024499D01*
X042686Y024415D02*
X043019Y024749D01*
X043019Y024832D01*
X043019Y024415D02*
X042686Y024415D01*
X042486Y024216D02*
X042569Y024132D01*
X042569Y024049D01*
X042486Y023965D01*
X042569Y023882D01*
X042569Y023799D01*
X042486Y023715D01*
X042319Y023715D01*
X042236Y023799D01*
X042054Y023715D02*
X041887Y023882D01*
X041970Y023882D02*
X041720Y023882D01*
X041720Y023715D02*
X041720Y024216D01*
X041970Y024216D01*
X042054Y024132D01*
X042054Y023965D01*
X041970Y023882D01*
X042236Y024132D02*
X042319Y024216D01*
X042486Y024216D01*
X042486Y023965D02*
X042403Y023965D01*
X042751Y023965D02*
X043085Y023965D01*
X043002Y023715D02*
X043002Y024216D01*
X042751Y023965D01*
X042360Y026265D02*
X042360Y026432D01*
X042360Y026349D02*
X041860Y026349D01*
X041860Y026432D02*
X041860Y026265D01*
X041943Y026609D02*
X042277Y026609D01*
X042360Y026692D01*
X042360Y026859D01*
X042277Y026943D01*
X042277Y027125D02*
X042360Y027125D01*
X042277Y027125D02*
X041943Y027458D01*
X041860Y027458D01*
X041860Y027125D01*
X041943Y026943D02*
X041860Y026859D01*
X041860Y026692D01*
X041943Y026609D01*
X047420Y026682D02*
X047420Y026349D01*
X047504Y026265D01*
X047670Y026265D01*
X047754Y026349D01*
X047936Y026265D02*
X048269Y026599D01*
X048269Y026682D01*
X048186Y026766D01*
X048019Y026766D01*
X047936Y026682D01*
X047754Y026682D02*
X047670Y026766D01*
X047504Y026766D01*
X047420Y026682D01*
X047504Y027265D02*
X047670Y027265D01*
X047754Y027349D01*
X047936Y027349D02*
X048019Y027265D01*
X048186Y027265D01*
X048269Y027349D01*
X048269Y027432D01*
X048186Y027515D01*
X047936Y027515D01*
X047936Y027349D01*
X047936Y027515D02*
X048103Y027682D01*
X048269Y027766D01*
X048451Y027682D02*
X048535Y027766D01*
X048702Y027766D01*
X048785Y027682D01*
X048451Y027349D01*
X048535Y027265D01*
X048702Y027265D01*
X048785Y027349D01*
X048785Y027682D01*
X048451Y027682D02*
X048451Y027349D01*
X048451Y026766D02*
X048451Y026515D01*
X048618Y026599D01*
X048702Y026599D01*
X048785Y026515D01*
X048785Y026349D01*
X048702Y026265D01*
X048535Y026265D01*
X048451Y026349D01*
X048269Y026265D02*
X047936Y026265D01*
X048451Y026766D02*
X048785Y026766D01*
X047504Y027265D02*
X047420Y027349D01*
X047420Y027682D01*
X047504Y027766D01*
X047670Y027766D01*
X047754Y027682D01*
X040610Y032349D02*
X040610Y032515D01*
X040527Y032599D01*
X040527Y032781D02*
X040610Y032864D01*
X040610Y033031D01*
X040527Y033114D01*
X040443Y033114D01*
X040360Y033031D01*
X040360Y032948D01*
X040360Y033031D02*
X040277Y033114D01*
X040193Y033114D01*
X040110Y033031D01*
X040110Y032864D01*
X040193Y032781D01*
X040193Y032599D02*
X040110Y032515D01*
X040110Y032349D01*
X040193Y032265D01*
X040527Y032265D01*
X040610Y032349D01*
X039910Y032349D02*
X039827Y032265D01*
X039493Y032265D01*
X039410Y032349D01*
X039410Y032515D01*
X039493Y032599D01*
X039493Y032781D02*
X039410Y032864D01*
X039410Y033031D01*
X039493Y033114D01*
X039577Y033114D01*
X039660Y033031D01*
X039743Y033114D01*
X039827Y033114D01*
X039910Y033031D01*
X039910Y032864D01*
X039827Y032781D01*
X039827Y032599D02*
X039910Y032515D01*
X039910Y032349D01*
X039660Y032948D02*
X039660Y033031D01*
X039577Y033296D02*
X039410Y033463D01*
X039910Y033463D01*
X039910Y033296D02*
X039910Y033630D01*
X040110Y033547D02*
X040360Y033296D01*
X040360Y033630D01*
X040610Y033547D02*
X040110Y033547D01*
X039752Y033965D02*
X039585Y033965D01*
X039501Y034049D01*
X039501Y034132D01*
X039585Y034215D01*
X039752Y034215D01*
X039835Y034132D01*
X039835Y034049D01*
X039752Y033965D01*
X039752Y034215D02*
X039835Y034299D01*
X039835Y034382D01*
X039752Y034466D01*
X039585Y034466D01*
X039501Y034382D01*
X039501Y034299D01*
X039585Y034215D01*
X039319Y034215D02*
X038986Y034215D01*
X039236Y034466D01*
X039236Y033965D01*
X039177Y033580D02*
X039260Y033497D01*
X039260Y033330D01*
X039177Y033246D01*
X039177Y033064D02*
X039260Y032981D01*
X039260Y032814D01*
X039177Y032731D01*
X039177Y032549D02*
X039260Y032465D01*
X039260Y032299D01*
X039177Y032215D01*
X038843Y032215D01*
X038760Y032299D01*
X038760Y032465D01*
X038843Y032549D01*
X038843Y032731D02*
X038760Y032814D01*
X038760Y032981D01*
X038843Y033064D01*
X038927Y033064D01*
X039010Y032981D01*
X039093Y033064D01*
X039177Y033064D01*
X039010Y032981D02*
X039010Y032898D01*
X038843Y033246D02*
X038760Y033330D01*
X038760Y033497D01*
X038843Y033580D01*
X038927Y033580D01*
X039010Y033497D01*
X039093Y033580D01*
X039177Y033580D01*
X039010Y033497D02*
X039010Y033413D01*
X038720Y033965D02*
X038554Y033965D01*
X038470Y034049D01*
X038470Y034382D01*
X038554Y034466D01*
X038720Y034466D01*
X038804Y034382D01*
X038720Y034615D02*
X038804Y034699D01*
X038720Y034615D02*
X038554Y034615D01*
X038470Y034699D01*
X038470Y035032D01*
X038554Y035116D01*
X038720Y035116D01*
X038804Y035032D01*
X038986Y035116D02*
X038986Y034865D01*
X039153Y034949D01*
X039236Y034949D01*
X039319Y034865D01*
X039319Y034699D01*
X039236Y034615D01*
X039069Y034615D01*
X038986Y034699D01*
X038986Y035116D02*
X039319Y035116D01*
X039236Y035265D02*
X039069Y035265D01*
X038986Y035349D01*
X038986Y035515D02*
X039153Y035599D01*
X039236Y035599D01*
X039319Y035515D01*
X039319Y035349D01*
X039236Y035265D01*
X039501Y035265D02*
X039835Y035599D01*
X039835Y035682D01*
X039752Y035766D01*
X039585Y035766D01*
X039501Y035682D01*
X039319Y035766D02*
X038986Y035766D01*
X038986Y035515D01*
X038804Y035349D02*
X038720Y035265D01*
X038554Y035265D01*
X038470Y035349D01*
X038470Y035682D01*
X038554Y035766D01*
X038720Y035766D01*
X038804Y035682D01*
X038720Y035915D02*
X038554Y035915D01*
X038470Y035999D01*
X038470Y036332D01*
X038554Y036416D01*
X038720Y036416D01*
X038804Y036332D01*
X038986Y036416D02*
X038986Y036165D01*
X039153Y036249D01*
X039236Y036249D01*
X039319Y036165D01*
X039319Y035999D01*
X039236Y035915D01*
X039069Y035915D01*
X038986Y035999D01*
X038804Y035999D02*
X038720Y035915D01*
X038986Y036416D02*
X039319Y036416D01*
X039501Y036165D02*
X039835Y036165D01*
X039752Y035915D02*
X039752Y036416D01*
X039501Y036165D01*
X039501Y035265D02*
X039835Y035265D01*
X039752Y035116D02*
X039835Y035032D01*
X039501Y034699D01*
X039585Y034615D01*
X039752Y034615D01*
X039835Y034699D01*
X039835Y035032D01*
X039752Y035116D02*
X039585Y035116D01*
X039501Y035032D01*
X039501Y034699D01*
X038804Y034049D02*
X038720Y033965D01*
X039820Y037340D02*
X039820Y037507D01*
X039820Y037424D02*
X040320Y037424D01*
X040320Y037507D02*
X040320Y037340D01*
X040237Y037684D02*
X039903Y037684D01*
X039820Y037767D01*
X039820Y037934D01*
X039903Y038017D01*
X039903Y038200D02*
X039987Y038200D01*
X040070Y038283D01*
X040070Y038533D01*
X039903Y038533D02*
X039820Y038450D01*
X039820Y038283D01*
X039903Y038200D01*
X039903Y038533D02*
X040237Y038533D01*
X040320Y038450D01*
X040320Y038283D01*
X040237Y038200D01*
X040237Y038017D02*
X040320Y037934D01*
X040320Y037767D01*
X040237Y037684D01*
X041023Y038089D02*
X041107Y038005D01*
X041274Y038005D01*
X041357Y038089D01*
X041357Y038422D01*
X041274Y038506D01*
X041107Y038506D01*
X041023Y038422D01*
X041023Y038089D01*
X041190Y038172D02*
X041357Y038005D01*
X041539Y038089D02*
X041622Y038005D01*
X041789Y038005D01*
X041873Y038089D01*
X041873Y038255D01*
X041706Y038255D01*
X041539Y038089D02*
X041539Y038422D01*
X041622Y038506D01*
X041789Y038506D01*
X041873Y038422D01*
X042055Y038339D02*
X042221Y038506D01*
X042221Y038005D01*
X042055Y038005D02*
X042388Y038005D01*
X043823Y037406D02*
X044074Y037406D01*
X044157Y037322D01*
X044157Y037155D01*
X044074Y037072D01*
X043823Y037072D01*
X043823Y036905D02*
X043823Y037406D01*
X043990Y037072D02*
X044157Y036905D01*
X044339Y036989D02*
X044422Y036905D01*
X044589Y036905D01*
X044673Y036989D01*
X044673Y037072D01*
X044589Y037155D01*
X044339Y037155D01*
X044339Y036989D01*
X044339Y037155D02*
X044506Y037322D01*
X044673Y037406D01*
X044855Y037322D02*
X044855Y037239D01*
X044938Y037155D01*
X045105Y037155D01*
X045188Y037072D01*
X045188Y036989D01*
X045105Y036905D01*
X044938Y036905D01*
X044855Y036989D01*
X044855Y037072D01*
X044938Y037155D01*
X045105Y037155D02*
X045188Y037239D01*
X045188Y037322D01*
X045105Y037406D01*
X044938Y037406D01*
X044855Y037322D01*
X044855Y036556D02*
X044855Y036305D01*
X045021Y036389D01*
X045105Y036389D01*
X045188Y036305D01*
X045188Y036139D01*
X045105Y036055D01*
X044938Y036055D01*
X044855Y036139D01*
X044673Y036139D02*
X044673Y036222D01*
X044589Y036305D01*
X044339Y036305D01*
X044339Y036139D01*
X044422Y036055D01*
X044589Y036055D01*
X044673Y036139D01*
X044506Y036472D02*
X044339Y036305D01*
X044157Y036305D02*
X044074Y036222D01*
X043823Y036222D01*
X043823Y036055D02*
X043823Y036556D01*
X044074Y036556D01*
X044157Y036472D01*
X044157Y036305D01*
X043990Y036222D02*
X044157Y036055D01*
X044074Y035656D02*
X044157Y035572D01*
X044157Y035405D01*
X044074Y035322D01*
X043823Y035322D01*
X043823Y035155D02*
X043823Y035656D01*
X044074Y035656D01*
X043990Y035322D02*
X044157Y035155D01*
X044339Y035239D02*
X044422Y035155D01*
X044589Y035155D01*
X044673Y035239D01*
X044673Y035322D01*
X044589Y035405D01*
X044339Y035405D01*
X044339Y035239D01*
X044339Y035405D02*
X044506Y035572D01*
X044673Y035656D01*
X044855Y035405D02*
X045105Y035405D01*
X045188Y035322D01*
X045188Y035239D01*
X045105Y035155D01*
X044938Y035155D01*
X044855Y035239D01*
X044855Y035405D01*
X045021Y035572D01*
X045188Y035656D01*
X045188Y036556D02*
X044855Y036556D01*
X044673Y036556D02*
X044506Y036472D01*
X045054Y038715D02*
X044970Y038799D01*
X044970Y039132D01*
X045054Y039216D01*
X045220Y039216D01*
X045304Y039132D01*
X045486Y039216D02*
X045486Y038965D01*
X045653Y039049D01*
X045736Y039049D01*
X045819Y038965D01*
X045819Y038799D01*
X045736Y038715D01*
X045569Y038715D01*
X045486Y038799D01*
X045304Y038799D02*
X045220Y038715D01*
X045054Y038715D01*
X045486Y039216D02*
X045819Y039216D01*
X046001Y038965D02*
X046252Y038965D01*
X046335Y038882D01*
X046335Y038799D01*
X046252Y038715D01*
X046085Y038715D01*
X046001Y038799D01*
X046001Y038965D01*
X046168Y039132D01*
X046335Y039216D01*
X045377Y041415D02*
X045043Y041415D01*
X044960Y041499D01*
X044960Y041665D01*
X045043Y041749D01*
X044960Y041931D02*
X045210Y041931D01*
X045127Y042098D01*
X045127Y042181D01*
X045210Y042264D01*
X045377Y042264D01*
X045460Y042181D01*
X045460Y042014D01*
X045377Y041931D01*
X045377Y041749D02*
X045460Y041665D01*
X045460Y041499D01*
X045377Y041415D01*
X044960Y041931D02*
X044960Y042264D01*
X044960Y042446D02*
X045210Y042446D01*
X045127Y042613D01*
X045127Y042697D01*
X045210Y042780D01*
X045377Y042780D01*
X045460Y042697D01*
X045460Y042530D01*
X045377Y042446D01*
X044960Y042446D02*
X044960Y042780D01*
X039451Y041015D02*
X039117Y041015D01*
X039284Y041015D02*
X039284Y041516D01*
X039117Y041349D01*
X038935Y041015D02*
X038601Y041015D01*
X038768Y041015D02*
X038768Y041516D01*
X038601Y041349D01*
X038419Y041516D02*
X038419Y041015D01*
X038086Y041516D01*
X038086Y041015D01*
X037904Y041015D02*
X037737Y041182D01*
X037820Y041182D02*
X037570Y041182D01*
X037570Y041015D02*
X037570Y041516D01*
X037820Y041516D01*
X037904Y041432D01*
X037904Y041265D01*
X037820Y041182D01*
X035785Y039232D02*
X035785Y039149D01*
X035702Y039065D01*
X035785Y038982D01*
X035785Y038899D01*
X035702Y038815D01*
X035535Y038815D01*
X035451Y038899D01*
X035618Y039065D02*
X035702Y039065D01*
X035785Y039232D02*
X035702Y039316D01*
X035535Y039316D01*
X035451Y039232D01*
X035269Y039065D02*
X034936Y039065D01*
X035186Y039316D01*
X035186Y038815D01*
X034754Y038899D02*
X034670Y038815D01*
X034504Y038815D01*
X034420Y038899D01*
X034420Y039232D01*
X034504Y039316D01*
X034670Y039316D01*
X034754Y039232D01*
X035910Y038330D02*
X035910Y037996D01*
X036160Y037996D01*
X036077Y038163D01*
X036077Y038247D01*
X036160Y038330D01*
X036327Y038330D01*
X036410Y038247D01*
X036410Y038080D01*
X036327Y037996D01*
X036160Y037814D02*
X036160Y037481D01*
X035910Y037731D01*
X036410Y037731D01*
X036327Y037299D02*
X036410Y037215D01*
X036410Y037049D01*
X036327Y036965D01*
X035993Y036965D01*
X035910Y037049D01*
X035910Y037215D01*
X035993Y037299D01*
D11*
X027190Y033435D02*
X025540Y033435D01*
X025540Y033385D02*
X025540Y033135D01*
X025340Y033135D01*
X025540Y033135D02*
X025540Y027385D01*
X017990Y027385D01*
X017990Y027085D01*
X017990Y027385D02*
X017840Y027385D01*
X017490Y028635D02*
X017490Y028885D01*
X013240Y028885D01*
X013240Y029435D01*
X013440Y029435D01*
X013240Y029435D02*
X013240Y032035D01*
X017490Y028885D02*
X017740Y028885D01*
X019093Y014380D02*
X019045Y014350D01*
X019000Y014317D01*
X018957Y014281D01*
X018916Y014243D01*
X018879Y014201D01*
X018844Y014157D01*
X018813Y014111D01*
X018784Y014062D01*
X018760Y014012D01*
X018739Y013960D01*
X018721Y013906D01*
X018708Y013852D01*
X018698Y013797D01*
X018692Y013741D01*
X018690Y013685D01*
X018990Y013085D02*
X019990Y013085D01*
X020290Y013685D02*
X020288Y013739D01*
X020283Y013793D01*
X020274Y013846D01*
X020261Y013899D01*
X020245Y013950D01*
X020225Y014000D01*
X020202Y014049D01*
X020176Y014097D01*
X020147Y014142D01*
X020114Y014185D01*
X020079Y014226D01*
X020041Y014265D01*
X020001Y014301D01*
X019958Y014334D01*
X019913Y014364D01*
X019866Y014391D01*
X018690Y013685D02*
X018692Y013632D01*
X018697Y013578D01*
X018706Y013526D01*
X018718Y013474D01*
X018734Y013423D01*
X018753Y013373D01*
X018776Y013324D01*
X018802Y013277D01*
X018830Y013232D01*
X018862Y013189D01*
X018896Y013149D01*
X018934Y013110D01*
X018973Y013074D01*
X020002Y013070D02*
X020042Y013106D01*
X020080Y013145D01*
X020115Y013186D01*
X020147Y013229D01*
X020177Y013274D01*
X020203Y013321D01*
X020225Y013370D01*
X020245Y013421D01*
X020261Y013472D01*
X020274Y013524D01*
X020283Y013578D01*
X020288Y013631D01*
X020290Y013685D01*
D12*
X021024Y012512D02*
X021189Y012250D01*
X021181Y012223D02*
X021181Y016935D01*
X021181Y018435D02*
X021181Y020935D01*
X027799Y020935D01*
X027799Y018435D01*
X027799Y016935D02*
X027799Y012223D01*
X021181Y012223D01*
X021777Y012269D02*
X021901Y015450D01*
X021900Y015450D02*
X021902Y015469D01*
X021908Y015488D01*
X021916Y015505D01*
X021927Y015520D01*
X021941Y015534D01*
X021956Y015545D01*
X021973Y015553D01*
X021992Y015559D01*
X022011Y015561D01*
X022727Y015561D01*
X022746Y015559D01*
X022765Y015553D01*
X022782Y015545D01*
X022797Y015534D01*
X022811Y015520D01*
X022822Y015505D01*
X022830Y015488D01*
X022836Y015469D01*
X022838Y015450D01*
X022837Y015450D02*
X022961Y012269D01*
X022755Y012255D02*
X022658Y015051D01*
X022655Y015084D01*
X022648Y015118D01*
X022638Y015150D01*
X022624Y015180D01*
X022606Y015209D01*
X022586Y015236D01*
X022562Y015260D01*
X022536Y015282D01*
X022507Y015300D01*
X022477Y015315D01*
X022445Y015326D01*
X022412Y015334D01*
X022379Y015338D01*
X022345Y015338D01*
X022312Y015334D01*
X022279Y015326D01*
X022247Y015315D01*
X022217Y015300D01*
X022188Y015282D01*
X022162Y015260D01*
X022138Y015236D01*
X022118Y015209D01*
X022100Y015180D01*
X022086Y015150D01*
X022076Y015118D01*
X022069Y015084D01*
X022066Y015051D01*
X021983Y012269D01*
X021024Y012511D02*
X020933Y012663D01*
X020849Y012819D01*
X020773Y012979D01*
X020704Y013142D01*
X020642Y013308D01*
X020588Y013476D01*
X020542Y013647D01*
X020504Y013820D01*
X020474Y013994D01*
X020452Y014170D01*
X020439Y014347D01*
X020433Y014524D01*
X020436Y014701D01*
X020447Y014877D01*
X020405Y015276D02*
X020364Y015331D01*
X020356Y015335D01*
X020347Y015337D01*
X020337Y015336D01*
X020329Y015332D01*
X020322Y015325D01*
X020318Y015317D01*
X020317Y015307D01*
X020319Y015298D01*
X020323Y015290D01*
X020405Y015276D02*
X020428Y015241D01*
X020449Y015205D01*
X020467Y015166D01*
X020480Y015126D01*
X020491Y015085D01*
X020498Y015043D01*
X020501Y015001D01*
X020446Y014878D02*
X020448Y014922D01*
X020447Y014966D01*
X020442Y015010D01*
X020434Y015053D01*
X020423Y015096D01*
X020409Y015137D01*
X020392Y015178D01*
X020371Y015217D01*
X020348Y015255D01*
X020322Y015290D01*
X020502Y014713D02*
X020501Y014526D01*
X020508Y014339D01*
X020525Y014153D01*
X020551Y013968D01*
X020585Y013785D01*
X020628Y013603D01*
X020679Y013423D01*
X020740Y013247D01*
X020808Y013073D01*
X020885Y012902D01*
X020969Y012736D01*
X021062Y012574D01*
X021162Y012416D01*
X027818Y012416D02*
X027918Y012574D01*
X028011Y012736D01*
X028095Y012902D01*
X028172Y013073D01*
X028240Y013247D01*
X028301Y013423D01*
X028352Y013603D01*
X028395Y013785D01*
X028429Y013968D01*
X028455Y014153D01*
X028472Y014339D01*
X028479Y014526D01*
X028478Y014713D01*
X028479Y015001D02*
X028482Y015043D01*
X028489Y015085D01*
X028500Y015126D01*
X028513Y015166D01*
X028531Y015205D01*
X028552Y015241D01*
X028575Y015276D01*
X028576Y015276D02*
X028617Y015331D01*
X028625Y015335D01*
X028634Y015337D01*
X028644Y015336D01*
X028652Y015332D01*
X028659Y015325D01*
X028663Y015317D01*
X028664Y015307D01*
X028662Y015298D01*
X028658Y015290D01*
X028632Y015255D01*
X028609Y015217D01*
X028588Y015178D01*
X028571Y015137D01*
X028557Y015096D01*
X028546Y015053D01*
X028538Y015010D01*
X028533Y014966D01*
X028532Y014922D01*
X028534Y014878D01*
X027080Y015450D02*
X027204Y012269D01*
X026997Y012269D02*
X026914Y015051D01*
X026911Y015084D01*
X026904Y015118D01*
X026894Y015150D01*
X026880Y015180D01*
X026862Y015209D01*
X026842Y015236D01*
X026818Y015260D01*
X026792Y015282D01*
X026763Y015300D01*
X026733Y015315D01*
X026701Y015326D01*
X026668Y015334D01*
X026635Y015338D01*
X026601Y015338D01*
X026568Y015334D01*
X026535Y015326D01*
X026503Y015315D01*
X026473Y015300D01*
X026444Y015282D01*
X026418Y015260D01*
X026394Y015236D01*
X026374Y015209D01*
X026356Y015180D01*
X026342Y015150D01*
X026332Y015118D01*
X026325Y015084D01*
X026322Y015051D01*
X026226Y012255D01*
X026019Y012269D02*
X026143Y015450D01*
X026145Y015469D01*
X026151Y015488D01*
X026159Y015505D01*
X026170Y015520D01*
X026184Y015534D01*
X026199Y015545D01*
X026216Y015553D01*
X026235Y015559D01*
X026254Y015561D01*
X026253Y015561D02*
X026970Y015561D01*
X026969Y015561D02*
X026988Y015559D01*
X027007Y015553D01*
X027024Y015545D01*
X027039Y015534D01*
X027053Y015520D01*
X027064Y015505D01*
X027072Y015488D01*
X027078Y015469D01*
X027080Y015450D01*
X028534Y014877D02*
X028545Y014701D01*
X028548Y014524D01*
X028542Y014347D01*
X028529Y014170D01*
X028507Y013994D01*
X028477Y013820D01*
X028439Y013647D01*
X028393Y013476D01*
X028339Y013308D01*
X028277Y013142D01*
X028208Y012979D01*
X028132Y012819D01*
X028048Y012663D01*
X027957Y012511D01*
X027957Y012512D02*
X027791Y012250D01*
X028479Y014713D02*
X028477Y014857D01*
X028479Y015001D01*
X028614Y023339D02*
X028614Y025032D01*
X030366Y025032D01*
X030366Y023339D01*
X028614Y023339D01*
X028752Y023673D02*
X028754Y023695D01*
X028760Y023717D01*
X028769Y023737D01*
X028782Y023755D01*
X028798Y023771D01*
X028816Y023784D01*
X028836Y023793D01*
X028858Y023799D01*
X028880Y023801D01*
X028902Y023799D01*
X028924Y023793D01*
X028944Y023784D01*
X028962Y023771D01*
X028978Y023755D01*
X028991Y023737D01*
X029000Y023717D01*
X029006Y023695D01*
X029008Y023673D01*
X029006Y023651D01*
X029000Y023629D01*
X028991Y023609D01*
X028978Y023591D01*
X028962Y023575D01*
X028944Y023562D01*
X028924Y023553D01*
X028902Y023547D01*
X028880Y023545D01*
X028858Y023547D01*
X028836Y023553D01*
X028816Y023562D01*
X028798Y023575D01*
X028782Y023591D01*
X028769Y023609D01*
X028760Y023629D01*
X028754Y023651D01*
X028752Y023673D01*
X029597Y026685D02*
X030384Y026685D01*
X028286Y028169D02*
X027567Y028169D01*
X027567Y034469D01*
X028128Y034685D02*
X028915Y034685D01*
X028915Y034036D01*
X028915Y034035D02*
X029027Y033962D01*
X029142Y033893D01*
X029261Y033831D01*
X029383Y033774D01*
X029507Y033724D01*
X029633Y033679D01*
X029761Y033641D01*
X029892Y033609D01*
X030023Y033583D01*
X030156Y033563D01*
X030289Y033550D01*
X030423Y033544D01*
X030557Y033544D01*
X030691Y033550D01*
X030824Y033563D01*
X030957Y033583D01*
X031088Y033609D01*
X031219Y033641D01*
X031347Y033679D01*
X031473Y033724D01*
X031597Y033774D01*
X031719Y033831D01*
X031838Y033893D01*
X031953Y033962D01*
X032065Y034035D01*
X032065Y034036D02*
X032065Y034291D01*
X032459Y034291D01*
X032961Y034469D02*
X032961Y028189D01*
X024640Y030854D02*
X024640Y031445D01*
X024049Y031642D01*
X024049Y035067D01*
X023931Y035067D01*
X023911Y035069D01*
X023891Y035074D01*
X023872Y035083D01*
X023855Y035095D01*
X023841Y035109D01*
X023829Y035126D01*
X023820Y035145D01*
X023815Y035165D01*
X023813Y035185D01*
X019167Y035185D01*
X019165Y035165D01*
X019160Y035145D01*
X019151Y035126D01*
X019139Y035109D01*
X019125Y035095D01*
X019108Y035083D01*
X019089Y035074D01*
X019070Y035069D01*
X019049Y035067D01*
X018931Y035067D01*
X018931Y031642D01*
X018341Y031445D01*
X018341Y030854D01*
X018931Y030658D01*
X018931Y029713D01*
X024049Y029713D01*
X024049Y030658D01*
X024640Y030854D01*
X024049Y030658D02*
X024049Y031642D01*
X023459Y032036D02*
X023065Y034398D01*
X022671Y034398D01*
X022278Y032036D01*
X020703Y032036D02*
X020309Y034398D01*
X019915Y034398D01*
X019522Y032036D01*
X018931Y031642D02*
X018931Y030658D01*
X019114Y026532D02*
X019114Y024839D01*
X020866Y024839D01*
X020866Y026532D01*
X019114Y026532D01*
X019252Y025173D02*
X019254Y025195D01*
X019260Y025217D01*
X019269Y025237D01*
X019282Y025255D01*
X019298Y025271D01*
X019316Y025284D01*
X019336Y025293D01*
X019358Y025299D01*
X019380Y025301D01*
X019402Y025299D01*
X019424Y025293D01*
X019444Y025284D01*
X019462Y025271D01*
X019478Y025255D01*
X019491Y025237D01*
X019500Y025217D01*
X019506Y025195D01*
X019508Y025173D01*
X019506Y025151D01*
X019500Y025129D01*
X019491Y025109D01*
X019478Y025091D01*
X019462Y025075D01*
X019444Y025062D01*
X019424Y025053D01*
X019402Y025047D01*
X019380Y025045D01*
X019358Y025047D01*
X019336Y025053D01*
X019316Y025062D01*
X019298Y025075D01*
X019282Y025091D01*
X019269Y025109D01*
X019260Y025129D01*
X019254Y025151D01*
X019252Y025173D01*
X021614Y024839D02*
X021614Y026532D01*
X023366Y026532D01*
X023366Y024839D01*
X021614Y024839D01*
X022972Y026197D02*
X022974Y026219D01*
X022980Y026241D01*
X022989Y026261D01*
X023002Y026279D01*
X023018Y026295D01*
X023036Y026308D01*
X023056Y026317D01*
X023078Y026323D01*
X023100Y026325D01*
X023122Y026323D01*
X023144Y026317D01*
X023164Y026308D01*
X023182Y026295D01*
X023198Y026279D01*
X023211Y026261D01*
X023220Y026241D01*
X023226Y026219D01*
X023228Y026197D01*
X023226Y026175D01*
X023220Y026153D01*
X023211Y026133D01*
X023198Y026115D01*
X023182Y026099D01*
X023164Y026086D01*
X023144Y026077D01*
X023122Y026071D01*
X023100Y026069D01*
X023078Y026071D01*
X023056Y026077D01*
X023036Y026086D01*
X023018Y026099D01*
X023002Y026115D01*
X022989Y026133D01*
X022980Y026153D01*
X022974Y026175D01*
X022972Y026197D01*
X024049Y035067D02*
X024049Y035067D01*
X024051Y035087D01*
X024056Y035107D01*
X024065Y035126D01*
X024077Y035143D01*
X024091Y035157D01*
X024108Y035169D01*
X024127Y035178D01*
X024147Y035183D01*
X024167Y035185D01*
X024246Y035185D01*
X018813Y035185D02*
X018734Y035185D01*
X018813Y035185D02*
X018833Y035183D01*
X018853Y035178D01*
X018872Y035169D01*
X018889Y035157D01*
X018903Y035143D01*
X018915Y035126D01*
X018924Y035107D01*
X018929Y035087D01*
X018931Y035067D01*
X037526Y037339D02*
X037526Y039032D01*
X039455Y039032D01*
X039455Y037339D01*
X037526Y037339D01*
X039100Y038697D02*
X039102Y038719D01*
X039108Y038741D01*
X039117Y038761D01*
X039130Y038779D01*
X039146Y038795D01*
X039164Y038808D01*
X039184Y038817D01*
X039206Y038823D01*
X039228Y038825D01*
X039250Y038823D01*
X039272Y038817D01*
X039292Y038808D01*
X039310Y038795D01*
X039326Y038779D01*
X039339Y038761D01*
X039348Y038741D01*
X039354Y038719D01*
X039356Y038697D01*
X039354Y038675D01*
X039348Y038653D01*
X039339Y038633D01*
X039326Y038615D01*
X039310Y038599D01*
X039292Y038586D01*
X039272Y038577D01*
X039250Y038571D01*
X039228Y038569D01*
X039206Y038571D01*
X039184Y038577D01*
X039164Y038586D01*
X039146Y038599D01*
X039130Y038615D01*
X039117Y038633D01*
X039108Y038653D01*
X039102Y038675D01*
X039100Y038697D01*
X041152Y039340D02*
X041152Y040030D01*
X041952Y040630D02*
X043029Y040630D01*
X043829Y040030D02*
X043829Y039340D01*
X043029Y038740D02*
X041952Y038740D01*
X040384Y040985D02*
X039597Y040985D01*
X042730Y027532D02*
X045250Y027532D01*
X045250Y025839D01*
X042730Y025839D01*
X042730Y027532D01*
X044856Y027197D02*
X044858Y027219D01*
X044864Y027241D01*
X044873Y027261D01*
X044886Y027279D01*
X044902Y027295D01*
X044920Y027308D01*
X044940Y027317D01*
X044962Y027323D01*
X044984Y027325D01*
X045006Y027323D01*
X045028Y027317D01*
X045048Y027308D01*
X045066Y027295D01*
X045082Y027279D01*
X045095Y027261D01*
X045104Y027241D01*
X045110Y027219D01*
X045112Y027197D01*
X045110Y027175D01*
X045104Y027153D01*
X045095Y027133D01*
X045082Y027115D01*
X045066Y027099D01*
X045048Y027086D01*
X045028Y027077D01*
X045006Y027071D01*
X044984Y027069D01*
X044962Y027071D01*
X044940Y027077D01*
X044920Y027086D01*
X044902Y027099D01*
X044886Y027115D01*
X044873Y027133D01*
X044864Y027153D01*
X044858Y027175D01*
X044856Y027197D01*
X044738Y021630D02*
X043439Y021630D01*
X043439Y019740D01*
X043242Y019740D01*
X043242Y021630D01*
X043439Y021630D01*
X044738Y021630D02*
X044738Y019740D01*
X043439Y019740D01*
X020501Y015001D02*
X020503Y014857D01*
X020501Y014713D01*
D13*
X029061Y012276D02*
X029061Y017630D01*
X032919Y017630D01*
X032919Y012276D01*
X029061Y012276D01*
X034061Y012276D02*
X034061Y017630D01*
X037919Y017630D01*
X037919Y012276D01*
X034061Y012276D01*
X040265Y013375D02*
X040490Y013150D01*
X040490Y013450D01*
X040715Y013375D02*
X040265Y013375D01*
X042015Y013327D02*
X042240Y013327D01*
X042165Y013478D01*
X042165Y013553D01*
X042240Y013628D01*
X042390Y013628D01*
X042465Y013553D01*
X042465Y013402D01*
X042390Y013327D01*
X042390Y013171D02*
X042390Y013096D01*
X042465Y013096D01*
X042465Y013171D01*
X042390Y013171D01*
X042465Y013171D02*
X042615Y013021D01*
X042390Y012860D02*
X042465Y012785D01*
X042465Y012635D01*
X042390Y012560D01*
X042240Y012710D02*
X042240Y012785D01*
X042315Y012860D01*
X042390Y012860D01*
X042240Y012785D02*
X042165Y012860D01*
X042090Y012860D01*
X042015Y012785D01*
X042015Y012635D01*
X042090Y012560D01*
X042015Y013327D02*
X042015Y013628D01*
X042165Y013788D02*
X042165Y013863D01*
X042240Y013938D01*
X042165Y014013D01*
X042240Y014088D01*
X042465Y014088D01*
X042465Y013938D02*
X042240Y013938D01*
X042165Y013788D02*
X042465Y013788D01*
X042465Y014248D02*
X042165Y014248D01*
X042165Y014323D01*
X042240Y014398D01*
X042165Y014473D01*
X042240Y014548D01*
X042465Y014548D01*
X042465Y014398D02*
X042240Y014398D01*
X040715Y017700D02*
X040715Y018000D01*
X040715Y017850D02*
X040265Y017850D01*
X040415Y017700D01*
X033549Y025870D02*
X033549Y026500D01*
X032431Y026500D02*
X032431Y025870D01*
X030410Y026488D02*
X030410Y026882D01*
X029570Y026882D02*
X029570Y026488D01*
X033602Y031855D02*
X033677Y031855D01*
X033752Y031930D01*
X033752Y032080D01*
X033827Y032155D01*
X033902Y032155D01*
X033977Y032080D01*
X033977Y031930D01*
X033902Y031855D01*
X033602Y031855D02*
X033527Y031930D01*
X033527Y032080D01*
X033602Y032155D01*
X033527Y032315D02*
X033527Y032540D01*
X033602Y032615D01*
X033902Y032615D01*
X033977Y032540D01*
X033977Y032315D01*
X033527Y032315D01*
X033677Y032775D02*
X033527Y032925D01*
X033977Y032925D01*
X033977Y032775D02*
X033977Y033076D01*
X034410Y040110D02*
X034710Y040110D01*
X034560Y040110D02*
X034560Y040561D01*
X034410Y040410D01*
X039570Y040788D02*
X039570Y041182D01*
X040410Y041182D02*
X040410Y040788D01*
X017003Y035015D02*
X017003Y034423D01*
X016573Y034484D02*
X016655Y033401D01*
X016573Y033401D01*
X016471Y034341D01*
X016267Y034341D01*
X016165Y033401D01*
X016083Y033401D01*
X016185Y034484D01*
X016189Y034503D01*
X016195Y034522D01*
X016205Y034539D01*
X016217Y034555D01*
X016232Y034568D01*
X016249Y034579D01*
X016267Y034586D01*
X016492Y034586D02*
X016510Y034579D01*
X016527Y034568D01*
X016542Y034555D01*
X016554Y034539D01*
X016564Y034522D01*
X016570Y034503D01*
X016574Y034484D01*
X016491Y034585D02*
X016454Y034594D01*
X016417Y034600D01*
X016379Y034602D01*
X016341Y034600D01*
X016303Y034594D01*
X016267Y034585D01*
X015981Y034484D02*
X015899Y032890D01*
X015900Y032889D02*
X015897Y032871D01*
X015890Y032854D01*
X015881Y032839D01*
X015868Y032826D01*
X015853Y032817D01*
X015836Y032810D01*
X015818Y032807D01*
X015817Y032808D02*
X015163Y032808D01*
X015163Y032807D02*
X015145Y032810D01*
X015128Y032817D01*
X015113Y032826D01*
X015100Y032839D01*
X015091Y032854D01*
X015084Y032871D01*
X015081Y032889D01*
X015082Y032890D02*
X015000Y034484D01*
X015002Y034500D01*
X015006Y034515D01*
X015014Y034530D01*
X015024Y034542D01*
X015036Y034552D01*
X015051Y034560D01*
X015066Y034564D01*
X015082Y034566D01*
X015098Y034564D01*
X015113Y034560D01*
X015128Y034552D01*
X015140Y034542D01*
X015150Y034530D01*
X015158Y034515D01*
X015162Y034500D01*
X015164Y034484D01*
X015163Y034484D02*
X015245Y033135D01*
X015736Y033135D01*
X015817Y034484D01*
X015819Y034500D01*
X015823Y034515D01*
X015831Y034530D01*
X015841Y034542D01*
X015853Y034552D01*
X015868Y034560D01*
X015883Y034564D01*
X015899Y034566D01*
X015915Y034564D01*
X015930Y034560D01*
X015945Y034552D01*
X015957Y034542D01*
X015967Y034530D01*
X015975Y034515D01*
X015979Y034500D01*
X015981Y034484D01*
X014795Y034484D02*
X014898Y033401D01*
X014816Y033401D01*
X014714Y034341D01*
X014509Y034341D01*
X014407Y033401D01*
X014325Y033401D01*
X014407Y034484D01*
X014411Y034503D01*
X014417Y034522D01*
X014427Y034539D01*
X014439Y034555D01*
X014454Y034568D01*
X014471Y034579D01*
X014489Y034586D01*
X014714Y034586D02*
X014732Y034579D01*
X014749Y034568D01*
X014764Y034555D01*
X014776Y034539D01*
X014786Y034522D01*
X014792Y034503D01*
X014796Y034484D01*
X014713Y034585D02*
X014676Y034594D01*
X014639Y034600D01*
X014601Y034602D01*
X014563Y034600D01*
X014525Y034594D01*
X014489Y034585D01*
X013978Y034423D02*
X013978Y035015D01*
X017003Y035015D01*
X017003Y033308D02*
X017003Y032399D01*
X017002Y032399D02*
X017004Y032415D01*
X017008Y032430D01*
X017016Y032445D01*
X017026Y032457D01*
X017038Y032467D01*
X017053Y032475D01*
X017068Y032479D01*
X017084Y032481D01*
X017146Y032481D01*
X016288Y032358D02*
X016286Y032342D01*
X016282Y032327D01*
X016274Y032312D01*
X016264Y032300D01*
X016252Y032290D01*
X016237Y032282D01*
X016222Y032278D01*
X016206Y032276D01*
X014775Y032276D01*
X014759Y032278D01*
X014744Y032282D01*
X014729Y032290D01*
X014717Y032300D01*
X014707Y032312D01*
X014699Y032327D01*
X014695Y032342D01*
X014693Y032358D01*
X014694Y032358D02*
X014696Y032378D01*
X014702Y032397D01*
X014711Y032415D01*
X014724Y032430D01*
X014739Y032443D01*
X014757Y032452D01*
X014776Y032458D01*
X014796Y032460D01*
X014795Y032460D02*
X016185Y032460D01*
X016205Y032458D01*
X016224Y032452D01*
X016242Y032443D01*
X016257Y032430D01*
X016270Y032415D01*
X016279Y032397D01*
X016285Y032378D01*
X016287Y032358D01*
X016287Y032072D02*
X016287Y031336D01*
X016287Y031316D02*
X016676Y031316D01*
X016676Y031336D02*
X016676Y031479D01*
X014693Y031336D02*
X014693Y032072D01*
X014305Y031479D02*
X014305Y031336D01*
X014305Y031316D02*
X014693Y031316D01*
X013978Y032399D02*
X013978Y033308D01*
X013896Y032481D02*
X013835Y032481D01*
X013896Y032481D02*
X013912Y032479D01*
X013927Y032475D01*
X013942Y032467D01*
X013954Y032457D01*
X013964Y032445D01*
X013972Y032430D01*
X013976Y032415D01*
X013978Y032399D01*
X015374Y043310D02*
X015374Y043761D01*
X015149Y043535D01*
X015449Y043535D01*
X015610Y043385D02*
X015910Y043686D01*
X015910Y043385D01*
X015835Y043310D01*
X015685Y043310D01*
X015610Y043385D01*
X015610Y043686D01*
X015685Y043761D01*
X015835Y043761D01*
X015910Y043686D01*
D14*
X013978Y035015D02*
X013978Y035015D01*
X015899Y034566D02*
X015899Y034566D01*
X016287Y032358D02*
X016287Y032358D01*
X026929Y023116D02*
X027159Y023116D01*
X027236Y023039D01*
X027236Y022885D01*
X027159Y022809D01*
X026929Y022809D01*
X027083Y022809D02*
X027236Y022655D01*
X027389Y022732D02*
X027466Y022655D01*
X027620Y022655D01*
X027696Y022732D01*
X027696Y022809D01*
X027620Y022885D01*
X027389Y022885D01*
X027389Y022732D01*
X027389Y022885D02*
X027543Y023039D01*
X027696Y023116D01*
X027850Y023039D02*
X027926Y023116D01*
X028080Y023116D01*
X028157Y023039D01*
X028157Y022732D01*
X028080Y022655D01*
X027926Y022655D01*
X027850Y022732D01*
X027926Y022885D02*
X028157Y022885D01*
X027926Y022885D02*
X027850Y022962D01*
X027850Y023039D01*
X026929Y023116D02*
X026929Y022655D01*
X018870Y016052D02*
X018870Y015745D01*
X018870Y015898D02*
X018410Y015898D01*
X018563Y015745D01*
X018487Y015591D02*
X018410Y015515D01*
X018410Y015284D01*
X018870Y015284D01*
X018870Y015515D01*
X018794Y015591D01*
X018487Y015591D01*
X018410Y015131D02*
X018410Y014824D01*
X018870Y014824D01*
X018870Y015131D01*
X018640Y014977D02*
X018640Y014824D01*
X018870Y014671D02*
X018870Y014364D01*
X018410Y014364D01*
D15*
X032990Y026693D02*
X032990Y026697D01*
D16*
X033490Y026445D02*
X032486Y026445D01*
X032486Y025929D01*
X033490Y025929D01*
X033490Y026445D01*
D17*
X041390Y039385D03*
D18*
X018340Y013464D03*
X017641Y013464D03*
D19*
X017990Y013616D03*
M02*
