%
M48
M72
T01C0.0118
T02C0.0315
T03C0.0320
T04C0.0354
T05C0.0360
T06C0.0394
T07C0.0400
T08C0.0433
T09C0.0512
T10C0.0590
T11C0.0630
T12C0.0906
T13C0.1260
T14C0.1299
T15C0.1378
%
T01
X14990Y13185
X14990Y14685
X14990Y15785
X14740Y16535
X13790Y16335
X13490Y15885
X15490Y16935
X16690Y16185
X16540Y15685
X17490Y15435
X18390Y16685
X18090Y17685
X18090Y18785
X17490Y18735
X16490Y18685
X15490Y20185
X15390Y20635
X14840Y20585
X17640Y23185
X15990Y23935
X15890Y24285
X15740Y24635
X15640Y24985
X16490Y25735
X16240Y26285
X16240Y26685
X17490Y27385
X18990Y27435
X19490Y27435
X19990Y27435
X20990Y27435
X21090Y27085
X21440Y26685
X21690Y25935
X22490Y25385
X22490Y25035
X21990Y24985
X21090Y24735
X19990Y24985
X19490Y24985
X18890Y24735
X18490Y24935
X19490Y25735
X20240Y26085
X22540Y26285
X23040Y26335
X23140Y25985
X24490Y26185
X24490Y25185
X26990Y26185
X27990Y25685
X29240Y24785
X29740Y24835
X29840Y24535
X29490Y24285
X28990Y24185
X29840Y23835
X30690Y23185
X31090Y25085
X29490Y26035
X30740Y26685
X30490Y27685
X30040Y27685
X29690Y27685
X29240Y27685
X30990Y27685
X31840Y27685
X32290Y27685
X32690Y27685
X33490Y27685
X36490Y27685
X36990Y28185
X38490Y28185
X38490Y26685
X38490Y25685
X36990Y25185
X36490Y25685
X34490Y25185
X36990Y21185
X36990Y18685
X40490Y21185
X41990Y19935
X43990Y21735
X43490Y22185
X43490Y24185
X44490Y24185
X45990Y24185
X45690Y26635
X44740Y26685
X42490Y26685
X42490Y28185
X40990Y31185
X42040Y31635
X42240Y31935
X42490Y31685
X42790Y32235
X43840Y31435
X43640Y33735
X43640Y34935
X43740Y36035
X43740Y36385
X43540Y36685
X43740Y37035
X43440Y37785
X42540Y37285
X42590Y36935
X42340Y36635
X42990Y36535
X42640Y36035
X41190Y36535
X40890Y36035
X40340Y36935
X40490Y38435
X40740Y39085
X40990Y39635
X40890Y40085
X40040Y40135
X39690Y40135
X39340Y40385
X39090Y40635
X38490Y39985
X37690Y40035
X36490Y39885
X37540Y38835
X36990Y37185
X37490Y36185
X38240Y36185
X38240Y35185
X37490Y35185
X37490Y34185
X38240Y34135
X38240Y33185
X37490Y33185
X37290Y31685
X39840Y33735
X40990Y31885
X39840Y35835
X34490Y34185
X26990Y34185
X21790Y30585
X21440Y30685
X20990Y28935
X19990Y28935
X19340Y29335
X18140Y30185
X16490Y28935
X15990Y29435
X15590Y28535
X14290Y28835
X13990Y29185
X17140Y26035
X21140Y23635
X21540Y23535
X21940Y23435
X22340Y23335
X22990Y22685
X20990Y21185
X19490Y20835
X18990Y21185
X20340Y19235
X19490Y17685
X20490Y15685
X20490Y14185
X24490Y17185
X26490Y21185
X26990Y22685
X30990Y18685
X28490Y13185
X36990Y13185
X38490Y13185
X46990Y20185
X50490Y20185
X41990Y24185
X50490Y28185
X49490Y36185
X44490Y39685
X42240Y41135
X41490Y41135
X40990Y41235
X40640Y41585
X40240Y41535
X31840Y40685
X31490Y40685
X30490Y40735
X30190Y40885
X29490Y40185
X18490Y33685
X13290Y32685
X9990Y33685
X23990Y28935
X24990Y28935
X50490Y13185
T02
X36990Y16685
X35990Y16685
X34990Y16685
X31990Y16685
X30990Y16685
X29990Y16685
T03
X25990Y22685
X24990Y22685
X14490Y24185
X13490Y24185
X19490Y14185
X19490Y13185
X38490Y20185
X38490Y21185
T04
X26240Y19935
X25240Y19935
X24240Y19935
X23240Y19935
X22740Y18935
X23740Y18935
X24740Y18935
X25740Y18935
X22356Y32685
X20624Y32685
X16356Y32685
X14624Y32685
T05
X11144Y32732
X10144Y32732
X10144Y31732
X11144Y31732
X11144Y30732
X10144Y30732
X10144Y29732
X10144Y28732
X11144Y28732
X11144Y29732
X11144Y27732
X10144Y27732
X10144Y26732
X11144Y26732
X11144Y25732
X10144Y25732
X10144Y24732
X11144Y24732
X11144Y23732
X10144Y23732
X10144Y22732
X11144Y22732
X11144Y21732
X10144Y21732
X10144Y20732
X11144Y20732
X11144Y19732
X10144Y19732
X10144Y18732
X11144Y18732
X11144Y17732
X10144Y17732
X10144Y16732
X11144Y16732
X11144Y15732
X10144Y15732
X10144Y14732
X11144Y14732
X11144Y13732
X10144Y13732
X12490Y19185
X12490Y20185
X12490Y27185
X12490Y28185
X12490Y37185
X11490Y37185
X10490Y37185
X10490Y38185
X11490Y38185
X12490Y38185
X13490Y38185
X14490Y38185
X14490Y37185
X13490Y37185
X15490Y37185
X15490Y38185
X19490Y38185
X19490Y37185
X20490Y37185
X21490Y37185
X22490Y37185
X22490Y38185
X21490Y38185
X20490Y38185
X23490Y38185
X24490Y38185
X24490Y37185
X23490Y37185
X28490Y37185
X29490Y37185
X29490Y38185
X28490Y38185
X30490Y38185
X31490Y38185
X31490Y37185
X30490Y37185
X32490Y37185
X33490Y37185
X33490Y38185
X32490Y38185
X32695Y41435
X33695Y41435
X34695Y41435
X34695Y42435
X33695Y42435
X32695Y42435
X31695Y42435
X31695Y41435
X30695Y41435
X29695Y41435
X28695Y41435
X27695Y41435
X26695Y41435
X25695Y41435
X24695Y41435
X23695Y41435
X22695Y41435
X21695Y41435
X20695Y41435
X19695Y41435
X18695Y41435
X17695Y41435
X16695Y41435
X15695Y41435
X15695Y42435
X16695Y42435
X17695Y42435
X18695Y42435
X19695Y42435
X20695Y42435
X21695Y42435
X22695Y42435
X23695Y42435
X24695Y42435
X25695Y42435
X26695Y42435
X27695Y42435
X28695Y42435
X29695Y42435
X30695Y42435
X13490Y42685
X12490Y42685
T06
X20112Y30071
X21097Y30071
X21884Y30071
X22868Y30071
X23000Y15104
X22000Y14506
X25980Y14506
X26980Y15104
T07
X40490Y15185
X40490Y14185
X40490Y16185
X40490Y17185
X39990Y42185
X38990Y42185
X37990Y42185
X40990Y42185
X41990Y42185
X42990Y42185
T08
X36990Y15650
X34990Y15650
X31990Y15650
X29990Y15650
T09
X46717Y32095
X44787Y32331
X44787Y38040
X46717Y38276
T10
X45710Y17445
X43050Y15755
X42060Y16305
X44070Y13215
X45920Y14495
T11
X27591Y17636
X21390Y17636
T12
X18904Y31138
X24077Y31138
T13
X41740Y34185
T14
X26740Y16435
X22240Y16435
T15
X49660Y37854
X46589Y42028
X10644Y42028
M30
