G75*
G70*
%OFA0B0*%
%FSLAX24Y24*%
%IPPOS*%
%LPD*%
%AMOC8*
5,1,8,0,0,1.08239X$1,22.5*
%
%ADD10R,0.0157X0.0472*%
%ADD11C,0.0540*%
%ADD12C,0.0472*%
%ADD13C,0.0650*%
%ADD14R,0.0394X0.0433*%
%ADD15R,0.0591X0.0512*%
%ADD16R,0.0787X0.0984*%
%ADD17R,0.0787X0.1299*%
%ADD18R,0.0197X0.1220*%
%ADD19OC8,0.0630*%
%ADD20C,0.0630*%
%ADD21OC8,0.0540*%
%ADD22R,0.0433X0.0394*%
%ADD23R,0.0394X0.1102*%
%ADD24R,0.0512X0.0748*%
%ADD25R,0.0394X0.0315*%
%ADD26R,0.0276X0.0472*%
%ADD27R,0.0394X0.0472*%
%ADD28R,0.0272X0.0390*%
%ADD29C,0.0531*%
%ADD30C,0.0945*%
%ADD31C,0.0591*%
%ADD32OC8,0.0480*%
%ADD33R,0.0480X0.0480*%
%ADD34OC8,0.0885*%
%ADD35C,0.0885*%
%ADD36R,0.0512X0.0591*%
%ADD37R,0.0600X0.0600*%
%ADD38C,0.0600*%
%ADD39R,0.0866X0.0236*%
%ADD40C,0.1299*%
%ADD41C,0.0768*%
%ADD42R,0.0138X0.0236*%
%ADD43R,0.0540X0.0540*%
%ADD44R,0.2047X0.2047*%
%ADD45R,0.0630X0.0591*%
D10*
X028723Y023043D03*
X028978Y023043D03*
X029234Y023043D03*
X029490Y023043D03*
X029746Y023043D03*
X030002Y023043D03*
X030258Y023043D03*
X030258Y025327D03*
X030002Y025327D03*
X029746Y025327D03*
X029490Y025327D03*
X029234Y025327D03*
X028978Y025327D03*
X028723Y025327D03*
X023258Y024543D03*
X023002Y024543D03*
X022746Y024543D03*
X022490Y024543D03*
X022234Y024543D03*
X021978Y024543D03*
X021723Y024543D03*
X020758Y024543D03*
X020502Y024543D03*
X020246Y024543D03*
X019990Y024543D03*
X019734Y024543D03*
X019478Y024543D03*
X019223Y024543D03*
X019223Y026827D03*
X019478Y026827D03*
X019734Y026827D03*
X019990Y026827D03*
X020246Y026827D03*
X020502Y026827D03*
X020758Y026827D03*
X021723Y026827D03*
X021978Y026827D03*
X022234Y026827D03*
X022490Y026827D03*
X022746Y026827D03*
X023002Y026827D03*
X023258Y026827D03*
X037595Y037043D03*
X037850Y037043D03*
X038106Y037043D03*
X038362Y037043D03*
X038618Y037043D03*
X038874Y037043D03*
X039130Y037043D03*
X039386Y037043D03*
X039386Y039327D03*
X039130Y039327D03*
X038874Y039327D03*
X038618Y039327D03*
X038362Y039327D03*
X038106Y039327D03*
X037850Y039327D03*
X037595Y039327D03*
X042339Y027827D03*
X042595Y027827D03*
X042850Y027827D03*
X043106Y027827D03*
X043362Y027827D03*
X043618Y027827D03*
X043874Y027827D03*
X044130Y027827D03*
X044386Y027827D03*
X044642Y027827D03*
X044642Y025543D03*
X044386Y025543D03*
X044130Y025543D03*
X043874Y025543D03*
X043618Y025543D03*
X043362Y025543D03*
X043106Y025543D03*
X042850Y025543D03*
X042595Y025543D03*
X042339Y025543D03*
D11*
X033490Y038185D03*
X034695Y041528D03*
X024490Y038185D03*
X015490Y038185D03*
X012490Y028185D03*
X012490Y027185D03*
X012490Y020185D03*
X012490Y019185D03*
X011144Y013732D03*
D12*
X030490Y016685D03*
X031490Y016685D03*
X032490Y016685D03*
X034490Y016685D03*
X035490Y016685D03*
X036490Y016685D03*
D13*
X036490Y015650D03*
X034490Y015650D03*
X032490Y015650D03*
X030490Y015650D03*
D14*
X040156Y018685D03*
X040825Y018685D03*
X041656Y022185D03*
X042325Y022185D03*
X042325Y023185D03*
X041656Y023185D03*
X040825Y023235D03*
X040156Y023235D03*
X040156Y025185D03*
X040825Y025185D03*
X043990Y023520D03*
X043990Y022851D03*
X044656Y023185D03*
X045325Y023185D03*
X046156Y023185D03*
X046825Y023185D03*
X045325Y022185D03*
X044656Y022185D03*
X046156Y025185D03*
X046825Y025185D03*
X045490Y026351D03*
X045490Y027020D03*
X036825Y027185D03*
X036156Y027185D03*
X036156Y026185D03*
X036825Y026185D03*
X034490Y025851D03*
X034490Y026520D03*
X027990Y025070D03*
X027990Y024401D03*
X023990Y025351D03*
X023990Y026020D03*
X018825Y024185D03*
X018156Y024185D03*
X018156Y023185D03*
X018825Y023185D03*
X018490Y025351D03*
X018490Y026020D03*
X017325Y026685D03*
X016656Y026685D03*
X016656Y025185D03*
X017325Y025185D03*
X012825Y026185D03*
X012156Y026185D03*
X017490Y029351D03*
X017490Y030020D03*
X012825Y032685D03*
X012156Y032685D03*
X012156Y033685D03*
X012825Y033685D03*
X017990Y020020D03*
X017990Y019351D03*
X015490Y018020D03*
X015490Y017351D03*
X012825Y016685D03*
X012156Y016685D03*
X012156Y015685D03*
X012825Y015685D03*
X012825Y014685D03*
X012156Y014685D03*
X012156Y013685D03*
X012825Y013685D03*
X046156Y018685D03*
X046825Y018685D03*
X046325Y035185D03*
X045656Y035185D03*
X045656Y036185D03*
X046325Y036185D03*
X046325Y037185D03*
X045656Y037185D03*
X044490Y041401D03*
X044490Y042070D03*
D15*
X042990Y023520D03*
X042990Y022851D03*
X016990Y020020D03*
X015990Y020070D03*
X015990Y019401D03*
X016990Y019351D03*
X016490Y018020D03*
X016490Y017351D03*
X015490Y027351D03*
X015490Y028020D03*
D16*
X013738Y033866D03*
X017242Y033866D03*
D17*
X017242Y031543D03*
X013738Y031543D03*
D18*
X014860Y031504D03*
X015175Y031504D03*
X015490Y031504D03*
X015805Y031504D03*
X016120Y031504D03*
D19*
X014490Y024185D03*
X024990Y022685D03*
X038990Y021185D03*
D20*
X038990Y020185D03*
X025990Y022685D03*
X013490Y024185D03*
D21*
X011144Y023732D03*
X010144Y023732D03*
X010144Y022732D03*
X011144Y022732D03*
X011144Y021732D03*
X010144Y021732D03*
X010144Y020732D03*
X011144Y020732D03*
X011144Y019732D03*
X010144Y019732D03*
X010144Y018732D03*
X011144Y018732D03*
X011144Y017732D03*
X010144Y017732D03*
X010144Y016732D03*
X011144Y016732D03*
X011144Y015732D03*
X010144Y015732D03*
X010144Y014732D03*
X011144Y014732D03*
X010144Y013732D03*
X010144Y024732D03*
X011144Y024732D03*
X011144Y025732D03*
X010144Y025732D03*
X010144Y026732D03*
X011144Y026732D03*
X011144Y027732D03*
X010144Y027732D03*
X010144Y028732D03*
X011144Y028732D03*
X011144Y029732D03*
X010144Y029732D03*
X010144Y030732D03*
X011144Y030732D03*
X011144Y031732D03*
X010144Y031732D03*
X010144Y032732D03*
X011144Y032732D03*
X011490Y037185D03*
X012490Y037185D03*
X013490Y037185D03*
X013490Y038185D03*
X012490Y038185D03*
X011490Y038185D03*
X010490Y037185D03*
X014490Y037185D03*
X015490Y037185D03*
X014490Y038185D03*
X019490Y037185D03*
X020490Y037185D03*
X021490Y037185D03*
X022490Y037185D03*
X022490Y038185D03*
X021490Y038185D03*
X020490Y038185D03*
X023490Y038185D03*
X023490Y037185D03*
X024490Y037185D03*
X028490Y037185D03*
X029490Y037185D03*
X029490Y038185D03*
X030490Y038185D03*
X031490Y038185D03*
X032490Y038185D03*
X032490Y037185D03*
X031490Y037185D03*
X030490Y037185D03*
X033490Y037185D03*
X033695Y041528D03*
X033695Y042528D03*
X034695Y042528D03*
X032695Y042528D03*
X032695Y041528D03*
X031695Y041528D03*
X031695Y042528D03*
X030695Y042528D03*
X029695Y042528D03*
X029695Y041528D03*
X030695Y041528D03*
X028695Y041528D03*
X028695Y042528D03*
X027695Y042528D03*
X026695Y042528D03*
X026695Y041528D03*
X027695Y041528D03*
X025695Y041528D03*
X025695Y042528D03*
X024695Y042528D03*
X023695Y042528D03*
X023695Y041528D03*
X024695Y041528D03*
X022695Y041528D03*
X022695Y042528D03*
X021695Y042528D03*
X020695Y042528D03*
X019695Y042528D03*
X019695Y041528D03*
X020695Y041528D03*
X021695Y041528D03*
X018695Y041528D03*
X018695Y042528D03*
X017695Y042528D03*
X016695Y042528D03*
X016695Y041528D03*
X017695Y041528D03*
X015695Y041528D03*
X015695Y042528D03*
D22*
X016656Y038185D03*
X017325Y038185D03*
X025656Y038185D03*
X026325Y038185D03*
X034656Y038185D03*
X035325Y038185D03*
X045156Y039685D03*
X045825Y039685D03*
X031825Y026685D03*
X031156Y026685D03*
X032490Y024520D03*
X032490Y023851D03*
X024990Y027851D03*
X024990Y028520D03*
X023990Y028520D03*
X023990Y027851D03*
X022990Y027851D03*
X022990Y028520D03*
X021990Y028520D03*
X021990Y027851D03*
X020990Y027851D03*
X020990Y028520D03*
X019990Y028520D03*
X019990Y027851D03*
X018990Y027851D03*
X018990Y028520D03*
X017990Y028520D03*
X017990Y027851D03*
X016490Y028020D03*
X016490Y027351D03*
X016490Y029351D03*
X016490Y030020D03*
X015490Y030020D03*
X015490Y029351D03*
X014490Y029351D03*
X014490Y030020D03*
X014656Y019185D03*
X015325Y019185D03*
X017156Y018185D03*
X017825Y018185D03*
X015990Y016020D03*
X015990Y015351D03*
X017490Y014520D03*
X017490Y013851D03*
X040156Y024185D03*
X040825Y024185D03*
X046156Y024185D03*
X046825Y024185D03*
D23*
X032980Y033947D03*
D24*
X027685Y033986D03*
D25*
X032980Y032303D03*
D26*
X032636Y028169D03*
X032262Y028169D03*
X031829Y028169D03*
X031396Y028169D03*
X030963Y028169D03*
X030530Y028169D03*
X030097Y028169D03*
X029663Y028169D03*
X029230Y028169D03*
D27*
X028620Y028169D03*
X032971Y029862D03*
D28*
X032990Y026693D03*
X032616Y026693D03*
X033364Y026693D03*
X033364Y025673D03*
X032616Y025673D03*
D29*
X026740Y019935D03*
X025740Y019935D03*
X024740Y019935D03*
X023740Y019935D03*
X023240Y018935D03*
X024240Y018935D03*
X025240Y018935D03*
X026240Y018935D03*
D30*
X028091Y017636D03*
X021890Y017636D03*
D31*
X023500Y015104D03*
X022500Y014506D03*
X026480Y014506D03*
X027480Y015104D03*
X022868Y030071D03*
X021884Y030071D03*
X021097Y030071D03*
X020112Y030071D03*
D32*
X019490Y014185D03*
D33*
X019490Y013185D03*
D34*
X043570Y013215D03*
X045420Y014495D03*
X045210Y017445D03*
D35*
X042550Y015755D03*
X041560Y016305D03*
D36*
X041656Y018685D03*
X042325Y018685D03*
X044656Y018685D03*
X045325Y018685D03*
X046156Y022185D03*
X046825Y022185D03*
X040825Y022185D03*
X040156Y022185D03*
X035325Y037185D03*
X034656Y037185D03*
X026325Y037185D03*
X025656Y037185D03*
X017325Y037185D03*
X016656Y037185D03*
D37*
X037990Y042185D03*
X039990Y017185D03*
D38*
X039990Y016185D03*
X039990Y015185D03*
X039990Y014185D03*
X039990Y042185D03*
X038990Y042185D03*
X040990Y042185D03*
X041990Y042185D03*
X042990Y042185D03*
D39*
X042467Y021435D03*
X042467Y020935D03*
X042467Y020435D03*
X042467Y019935D03*
X044514Y019935D03*
X044514Y020435D03*
X044514Y020935D03*
X044514Y021435D03*
D40*
X024077Y031138D03*
X018904Y031138D03*
D41*
X044787Y032331D03*
X046717Y032095D03*
X046717Y038276D03*
X044787Y038040D03*
D42*
X040286Y040788D03*
X040089Y040788D03*
X039892Y040788D03*
X039695Y040788D03*
X039695Y041182D03*
X039892Y041182D03*
X040089Y041182D03*
X040286Y041182D03*
X030286Y026882D03*
X030089Y026882D03*
X029892Y026882D03*
X029695Y026882D03*
X029695Y026488D03*
X029892Y026488D03*
X030089Y026488D03*
X030286Y026488D03*
D43*
X028490Y038185D03*
X019490Y038185D03*
X010490Y038185D03*
D44*
X041990Y034185D03*
D45*
X041486Y038937D03*
X041486Y040433D03*
X043494Y040433D03*
X043494Y038937D03*
M02*
