G75*
G70*
%OFA0B0*%
%FSLAX24Y24*%
%IPPOS*%
%LPD*%
%AMOC8*
5,1,8,0,0,1.08239X$1,22.5*
%
%ADD10C,0.0540*%
%ADD11C,0.0472*%
%ADD12C,0.0650*%
%ADD13R,0.0433X0.0394*%
%ADD14OC8,0.0630*%
%ADD15C,0.0630*%
%ADD16OC8,0.0540*%
%ADD17C,0.0531*%
%ADD18C,0.0945*%
%ADD19C,0.0591*%
%ADD20R,0.0118X0.0591*%
%ADD21R,0.0591X0.0118*%
%ADD22R,0.0394X0.0433*%
%ADD23OC8,0.0480*%
%ADD24R,0.0480X0.0480*%
%ADD25R,0.0591X0.0157*%
%ADD26OC8,0.0885*%
%ADD27C,0.0885*%
%ADD28R,0.0600X0.0600*%
%ADD29C,0.0600*%
%ADD30C,0.1299*%
%ADD31R,0.0787X0.0984*%
%ADD32R,0.0787X0.1299*%
%ADD33R,0.0197X0.1220*%
%ADD34R,0.0748X0.0118*%
%ADD35C,0.0768*%
%ADD36R,0.0591X0.0512*%
%ADD37R,0.0236X0.0138*%
%ADD38R,0.0540X0.0540*%
%ADD39R,0.0138X0.0236*%
%ADD40R,0.2047X0.2047*%
%ADD41R,0.0118X0.0197*%
%ADD42R,0.0197X0.0118*%
D10*
X011144Y013732D03*
X012490Y019185D03*
X012490Y020185D03*
X012490Y027185D03*
X012490Y028185D03*
X015490Y038185D03*
X024490Y038185D03*
X033490Y038185D03*
X034695Y041528D03*
D11*
X034490Y016685D03*
X035490Y016685D03*
X036490Y016685D03*
X032490Y016685D03*
X031490Y016685D03*
X030490Y016685D03*
D12*
X030490Y015650D03*
X032490Y015650D03*
X034490Y015650D03*
X036490Y015650D03*
D13*
X036325Y018185D03*
X035656Y018185D03*
X032490Y018351D03*
X031275Y018185D03*
X030606Y018185D03*
X032490Y019020D03*
X026490Y018020D03*
X025490Y018020D03*
X024490Y018020D03*
X023490Y018020D03*
X023490Y017351D03*
X024490Y017351D03*
X025490Y017351D03*
X026490Y017351D03*
X025490Y014520D03*
X025490Y013851D03*
X024490Y013851D03*
X024490Y014520D03*
X020490Y016851D03*
X020490Y017520D03*
X020490Y018351D03*
X020490Y019020D03*
X018990Y017020D03*
X018990Y016351D03*
X018490Y015020D03*
X017490Y015020D03*
X017490Y014351D03*
X018490Y014351D03*
X016490Y014351D03*
X016490Y015020D03*
X016990Y021351D03*
X016990Y022020D03*
X017990Y022020D03*
X017990Y021351D03*
X027990Y028851D03*
X027990Y029520D03*
X028990Y029520D03*
X028990Y028851D03*
X029990Y028851D03*
X029990Y029520D03*
X030990Y029520D03*
X030990Y028851D03*
X031990Y028851D03*
X031990Y029520D03*
X032990Y029520D03*
X032990Y028851D03*
X033990Y028851D03*
X033990Y029520D03*
X037156Y033185D03*
X037825Y033185D03*
X037825Y034185D03*
X037156Y034185D03*
X037156Y035185D03*
X037825Y035185D03*
X037825Y036185D03*
X037156Y036185D03*
X039156Y036185D03*
X039825Y036185D03*
X039825Y035185D03*
X039156Y035185D03*
X039156Y034185D03*
X039825Y034185D03*
X039825Y033185D03*
X039156Y033185D03*
X041990Y037351D03*
X041990Y038020D03*
D14*
X024990Y022685D03*
X014490Y024185D03*
X038990Y021185D03*
D15*
X038990Y020185D03*
X025990Y022685D03*
X013490Y024185D03*
D16*
X011144Y023732D03*
X010144Y023732D03*
X010144Y022732D03*
X011144Y022732D03*
X011144Y021732D03*
X010144Y021732D03*
X010144Y020732D03*
X011144Y020732D03*
X011144Y019732D03*
X010144Y019732D03*
X010144Y018732D03*
X011144Y018732D03*
X011144Y017732D03*
X010144Y017732D03*
X010144Y016732D03*
X011144Y016732D03*
X011144Y015732D03*
X010144Y015732D03*
X010144Y014732D03*
X011144Y014732D03*
X010144Y013732D03*
X010144Y024732D03*
X011144Y024732D03*
X011144Y025732D03*
X010144Y025732D03*
X010144Y026732D03*
X011144Y026732D03*
X011144Y027732D03*
X010144Y027732D03*
X010144Y028732D03*
X011144Y028732D03*
X011144Y029732D03*
X010144Y029732D03*
X010144Y030732D03*
X011144Y030732D03*
X011144Y031732D03*
X010144Y031732D03*
X010144Y032732D03*
X011144Y032732D03*
X011490Y037185D03*
X012490Y037185D03*
X013490Y037185D03*
X013490Y038185D03*
X012490Y038185D03*
X011490Y038185D03*
X010490Y037185D03*
X014490Y037185D03*
X015490Y037185D03*
X014490Y038185D03*
X019490Y037185D03*
X020490Y037185D03*
X021490Y037185D03*
X022490Y037185D03*
X022490Y038185D03*
X021490Y038185D03*
X020490Y038185D03*
X023490Y038185D03*
X023490Y037185D03*
X024490Y037185D03*
X028490Y037185D03*
X029490Y037185D03*
X029490Y038185D03*
X030490Y038185D03*
X031490Y038185D03*
X032490Y038185D03*
X032490Y037185D03*
X031490Y037185D03*
X030490Y037185D03*
X033490Y037185D03*
X033695Y041528D03*
X033695Y042528D03*
X034695Y042528D03*
X032695Y042528D03*
X032695Y041528D03*
X031695Y041528D03*
X031695Y042528D03*
X030695Y042528D03*
X029695Y042528D03*
X029695Y041528D03*
X030695Y041528D03*
X028695Y041528D03*
X028695Y042528D03*
X027695Y042528D03*
X026695Y042528D03*
X026695Y041528D03*
X027695Y041528D03*
X025695Y041528D03*
X025695Y042528D03*
X024695Y042528D03*
X023695Y042528D03*
X023695Y041528D03*
X024695Y041528D03*
X022695Y041528D03*
X022695Y042528D03*
X021695Y042528D03*
X020695Y042528D03*
X019695Y042528D03*
X019695Y041528D03*
X020695Y041528D03*
X021695Y041528D03*
X018695Y041528D03*
X018695Y042528D03*
X017695Y042528D03*
X016695Y042528D03*
X016695Y041528D03*
X017695Y041528D03*
X015695Y041528D03*
X015695Y042528D03*
D17*
X023740Y019935D03*
X024740Y019935D03*
X025740Y019935D03*
X026740Y019935D03*
X026240Y018935D03*
X025240Y018935D03*
X024240Y018935D03*
X023240Y018935D03*
D18*
X021890Y017636D03*
X028091Y017636D03*
D19*
X027480Y015104D03*
X026480Y014506D03*
X023500Y015104D03*
X022500Y014506D03*
X022868Y030071D03*
X021884Y030071D03*
X021097Y030071D03*
X020112Y030071D03*
D20*
X018073Y020319D03*
X017876Y020319D03*
X017679Y020319D03*
X017482Y020319D03*
X017286Y020319D03*
X017089Y020319D03*
X016892Y020319D03*
X016695Y020319D03*
X016498Y020319D03*
X016301Y020319D03*
X016104Y020319D03*
X015908Y020319D03*
X015908Y017051D03*
X016104Y017051D03*
X016301Y017051D03*
X016498Y017051D03*
X016695Y017051D03*
X016892Y017051D03*
X017089Y017051D03*
X017286Y017051D03*
X017482Y017051D03*
X017679Y017051D03*
X017876Y017051D03*
X018073Y017051D03*
D21*
X018624Y017603D03*
X018624Y017799D03*
X018624Y017996D03*
X018624Y018193D03*
X018624Y018390D03*
X018624Y018587D03*
X018624Y018784D03*
X018624Y018980D03*
X018624Y019177D03*
X018624Y019374D03*
X018624Y019571D03*
X018624Y019768D03*
X015356Y019768D03*
X015356Y019571D03*
X015356Y019374D03*
X015356Y019177D03*
X015356Y018980D03*
X015356Y018784D03*
X015356Y018587D03*
X015356Y018390D03*
X015356Y018193D03*
X015356Y017996D03*
X015356Y017799D03*
X015356Y017603D03*
D22*
X014325Y017185D03*
X013656Y017185D03*
X013325Y014185D03*
X012656Y014185D03*
X023990Y015851D03*
X023990Y016520D03*
X025990Y016520D03*
X025990Y015851D03*
X037990Y031351D03*
X037990Y032020D03*
X038990Y032020D03*
X038990Y031351D03*
X039990Y031351D03*
X039990Y032020D03*
X041990Y032020D03*
X041990Y031351D03*
X042990Y031351D03*
X042990Y032020D03*
X042990Y037351D03*
X042990Y038020D03*
X040990Y038020D03*
X040990Y037351D03*
X039990Y037351D03*
X038990Y037351D03*
X038990Y038020D03*
X039990Y038020D03*
X042656Y040185D03*
X043325Y040185D03*
X043325Y041185D03*
X042656Y041185D03*
D23*
X019490Y014185D03*
D24*
X019490Y013185D03*
D25*
X017167Y027810D03*
X017167Y028060D03*
X017167Y028310D03*
X017167Y028560D03*
X017167Y028810D03*
X017167Y029060D03*
X017167Y029310D03*
X017167Y029560D03*
X014813Y029560D03*
X014813Y029310D03*
X014813Y029060D03*
X014813Y028810D03*
X014813Y028560D03*
X014813Y028310D03*
X014813Y028060D03*
X014813Y027810D03*
D26*
X043570Y013215D03*
X045420Y014495D03*
X045210Y017445D03*
D27*
X042550Y015755D03*
X041560Y016305D03*
D28*
X039990Y017185D03*
X037990Y042185D03*
D29*
X038990Y042185D03*
X039990Y042185D03*
X040990Y042185D03*
X041990Y042185D03*
X042990Y042185D03*
X039990Y016185D03*
X039990Y015185D03*
X039990Y014185D03*
D30*
X024077Y031138D03*
X018904Y031138D03*
D31*
X019738Y033866D03*
X023242Y033866D03*
D32*
X023242Y031543D03*
X019738Y031543D03*
D33*
X020860Y031504D03*
X021175Y031504D03*
X021490Y031504D03*
X021805Y031504D03*
X022120Y031504D03*
D34*
X044394Y033315D03*
X044394Y033512D03*
X044394Y033709D03*
X044394Y033906D03*
X044394Y034103D03*
X044394Y034299D03*
X044394Y034496D03*
X044394Y034693D03*
X044394Y034890D03*
X044394Y035087D03*
X044394Y035284D03*
X044394Y035480D03*
X044394Y035677D03*
X044394Y035874D03*
X044394Y036071D03*
X044394Y036268D03*
X044394Y036465D03*
X044394Y036662D03*
X044394Y036858D03*
D35*
X044787Y038040D03*
X046717Y038276D03*
X044787Y032331D03*
X046717Y032095D03*
D36*
X040990Y032020D03*
X040990Y031351D03*
D37*
X040687Y040390D03*
X040687Y040587D03*
X040687Y040784D03*
X040687Y040980D03*
X040293Y040980D03*
X040293Y040784D03*
X040293Y040587D03*
X040293Y040390D03*
X013187Y021980D03*
X013187Y021784D03*
X013187Y021587D03*
X013187Y021390D03*
X012793Y021390D03*
X012793Y021587D03*
X012793Y021784D03*
X012793Y021980D03*
X012793Y018480D03*
X012793Y018284D03*
X012793Y018087D03*
X012793Y017890D03*
X013187Y017890D03*
X013187Y018087D03*
X013187Y018284D03*
X013187Y018480D03*
D38*
X010490Y038185D03*
X019490Y038185D03*
X028490Y038185D03*
D39*
X028392Y039988D03*
X028589Y039988D03*
X028786Y039988D03*
X028786Y040382D03*
X028589Y040382D03*
X028392Y040382D03*
X028195Y040382D03*
X028195Y039988D03*
X027286Y039988D03*
X027089Y039988D03*
X026892Y039988D03*
X026695Y039988D03*
X026695Y040382D03*
X026892Y040382D03*
X027089Y040382D03*
X027286Y040382D03*
X023286Y040382D03*
X023089Y040382D03*
X022892Y040382D03*
X022695Y040382D03*
X022695Y039988D03*
X022892Y039988D03*
X023089Y039988D03*
X023286Y039988D03*
X021286Y039988D03*
X021089Y039988D03*
X020892Y039988D03*
X020695Y039988D03*
X020695Y040382D03*
X020892Y040382D03*
X021089Y040382D03*
X021286Y040382D03*
X015286Y040382D03*
X015089Y040382D03*
X014892Y040382D03*
X014695Y040382D03*
X014695Y039988D03*
X014892Y039988D03*
X015089Y039988D03*
X015286Y039988D03*
X013286Y039988D03*
X013089Y039988D03*
X012892Y039988D03*
X012695Y039988D03*
X012695Y040382D03*
X012892Y040382D03*
X013089Y040382D03*
X013286Y040382D03*
D40*
X041990Y034185D03*
D41*
X041892Y032866D03*
X042089Y032866D03*
X042286Y032866D03*
X042482Y032866D03*
X042679Y032866D03*
X042876Y032866D03*
X043073Y032866D03*
X041695Y032866D03*
X041498Y032866D03*
X041301Y032866D03*
X041104Y032866D03*
X040908Y032866D03*
X040908Y035504D03*
X041104Y035504D03*
X041301Y035504D03*
X041498Y035504D03*
X041695Y035504D03*
X041892Y035504D03*
X042089Y035504D03*
X042286Y035504D03*
X042482Y035504D03*
X042679Y035504D03*
X042876Y035504D03*
X043073Y035504D03*
D42*
X043309Y035268D03*
X043309Y035071D03*
X043309Y034874D03*
X043309Y034677D03*
X043309Y034480D03*
X043309Y034284D03*
X043309Y034087D03*
X043309Y033890D03*
X043309Y033693D03*
X043309Y033496D03*
X043309Y033299D03*
X043309Y033103D03*
X040671Y033103D03*
X040671Y033299D03*
X040671Y033496D03*
X040671Y033693D03*
X040671Y033890D03*
X040671Y034087D03*
X040671Y034284D03*
X040671Y034480D03*
X040671Y034677D03*
X040671Y034874D03*
X040671Y035071D03*
X040671Y035268D03*
M02*
