%
M48
M72
T01C0.0118
T02C0.0315
T03C0.0320
T04C0.0354
T05C0.0360
T06C0.0394
T07C0.0400
T08C0.0433
T09C0.0512
T10C0.0590
T11C0.0630
T12C0.0906
T13C0.1260
T14C0.1299
%
T01
X14990Y13185
X14990Y14685
X14990Y15785
X13790Y16335
X13490Y15885
X14740Y16535
X15490Y16935
X16690Y16185
X16540Y15685
X17490Y15435
X18390Y16685
X18090Y17685
X18090Y18785
X17490Y18735
X16490Y18685
X15490Y20185
X15390Y20635
X14840Y20585
X17490Y23185
X15990Y23935
X15890Y24285
X15740Y24635
X15640Y24985
X16490Y25735
X16240Y26285
X16240Y26685
X17140Y26035
X18490Y24935
X18890Y24735
X19490Y24985
X19990Y24985
X21090Y24735
X21990Y24985
X22490Y25035
X22490Y25385
X23140Y25985
X23040Y26335
X22540Y26285
X21690Y25935
X21440Y26685
X21090Y27085
X20990Y27435
X19990Y27435
X19490Y27435
X18990Y27435
X17490Y27385
X16490Y28935
X15990Y29435
X15590Y28535
X14290Y28835
X13990Y29185
X18140Y30185
X19340Y29335
X19990Y28935
X20990Y28935
X22390Y30435
X22490Y30735
X23990Y28935
X24990Y28935
X24490Y26685
X24490Y25185
X22340Y23335
X21940Y23435
X21540Y23535
X21140Y23635
X22990Y22685
X21040Y20735
X19490Y20185
X18990Y20685
X19490Y17685
X20490Y17935
X20490Y15685
X20990Y14185
X24990Y17185
X30690Y23185
X29840Y23835
X29490Y24285
X29840Y24535
X29740Y24835
X29240Y24785
X28990Y24185
X27990Y25685
X29490Y26035
X30740Y26685
X30490Y27685
X30040Y27685
X29690Y27685
X29240Y27685
X30990Y27685
X31840Y27685
X32290Y27685
X32690Y27685
X33490Y27685
X36490Y27685
X36990Y28185
X38490Y28185
X38490Y26685
X36490Y25685
X36990Y25185
X34490Y25185
X31090Y25085
X41490Y19935
X43490Y19935
X42990Y22185
X42990Y24185
X43990Y24185
X45490Y25935
X44240Y26685
X50490Y28185
X43590Y31535
X43640Y32385
X42690Y32485
X42340Y32485
X41990Y32485
X41640Y32485
X40340Y32485
X40340Y33685
X38490Y33485
X38490Y33135
X37290Y32485
X38490Y34035
X38490Y34385
X38490Y34885
X38490Y35235
X38490Y35735
X38490Y36085
X40340Y35835
X41090Y35835
X41390Y36385
X42140Y36935
X42440Y36785
X42790Y36885
X43190Y36235
X42890Y35835
X43740Y36035
X43740Y36385
X43540Y36685
X43740Y37035
X42990Y38435
X44490Y39685
X41990Y41235
X41490Y40985
X41040Y41285
X40940Y40135
X40990Y39635
X40690Y38735
X39790Y39885
X39540Y40135
X39340Y40385
X39090Y40635
X38490Y39985
X37690Y40035
X37540Y38835
X40340Y36985
X43640Y34885
X43640Y33735
X32040Y40385
X31740Y40135
X30590Y40935
X30340Y40635
X18490Y33685
X13290Y32685
X9990Y33685
X19490Y25735
X20240Y26085
X36990Y13185
X38490Y13185
X50490Y13185
T02
X36490Y16685
X35490Y16685
X34490Y16685
X32490Y16685
X31490Y16685
X30490Y16685
T03
X38990Y20185
X38990Y21185
X25990Y22685
X24990Y22685
X14490Y24185
X13490Y24185
X19490Y14185
X19490Y13185
T04
X23240Y18935
X24240Y18935
X25240Y18935
X26240Y18935
X25740Y19935
X26740Y19935
X24740Y19935
X23740Y19935
X22356Y32685
X20624Y32685
X16356Y32685
X14624Y32685
T05
X11144Y32732
X10144Y32732
X10144Y31732
X11144Y31732
X11144Y30732
X10144Y30732
X10144Y29732
X10144Y28732
X11144Y28732
X11144Y29732
X11144Y27732
X10144Y27732
X10144Y26732
X11144Y26732
X11144Y25732
X10144Y25732
X10144Y24732
X11144Y24732
X11144Y23732
X10144Y23732
X10144Y22732
X11144Y22732
X11144Y21732
X10144Y21732
X10144Y20732
X11144Y20732
X11144Y19732
X10144Y19732
X10144Y18732
X11144Y18732
X11144Y17732
X10144Y17732
X10144Y16732
X11144Y16732
X11144Y15732
X10144Y15732
X10144Y14732
X11144Y14732
X11144Y13732
X10144Y13732
X12490Y19185
X12490Y20185
X12490Y27185
X12490Y28185
X12490Y37185
X11490Y37185
X10490Y37185
X10490Y38185
X11490Y38185
X12490Y38185
X13490Y38185
X13490Y37185
X14490Y37185
X15490Y37185
X15490Y38185
X14490Y38185
X19490Y38185
X19490Y37185
X20490Y37185
X21490Y37185
X22490Y37185
X22490Y38185
X21490Y38185
X20490Y38185
X23490Y38185
X24490Y38185
X24490Y37185
X23490Y37185
X28490Y37185
X29490Y37185
X29490Y38185
X28490Y38185
X30490Y38185
X31490Y38185
X32490Y38185
X32490Y37185
X31490Y37185
X30490Y37185
X33490Y37185
X33490Y38185
X33695Y41528
X33695Y42528
X34695Y42528
X34695Y41528
X32695Y41528
X32695Y42528
X31695Y42528
X30695Y42528
X29695Y42528
X29695Y41528
X30695Y41528
X31695Y41528
X28695Y41528
X28695Y42528
X27695Y42528
X26695Y42528
X26695Y41528
X27695Y41528
X25695Y41528
X25695Y42528
X24695Y42528
X23695Y42528
X23695Y41528
X24695Y41528
X22695Y41528
X22695Y42528
X21695Y42528
X20695Y42528
X19695Y42528
X19695Y41528
X20695Y41528
X21695Y41528
X18695Y41528
X18695Y42528
X17695Y42528
X16695Y42528
X16695Y41528
X17695Y41528
X15695Y41528
X15695Y42528
T06
X20112Y30071
X21097Y30071
X21884Y30071
X22868Y30071
X23500Y15104
X22500Y14506
X26480Y14506
X27480Y15104
T07
X39990Y15185
X39990Y14185
X39990Y16185
X39990Y17185
X39990Y42185
X38990Y42185
X37990Y42185
X40990Y42185
X41990Y42185
X42990Y42185
T08
X36490Y15650
X34490Y15650
X32490Y15650
X30490Y15650
T09
X46717Y32095
X44787Y32331
X44787Y38040
X46717Y38276
T10
X45210Y17445
X42550Y15755
X41560Y16305
X43570Y13215
X45420Y14495
T11
X28091Y17636
X21890Y17636
T12
X24077Y31138
X18904Y31138
T13
X10644Y42028
X41990Y34185
X49738Y37784
X46589Y42028
T14
X27240Y16435
X22740Y16435
M30
